<svg width="229" height="229" viewBox="0 0 229 229" fill="none" xmlns="http://www.w3.org/2000/svg">
<path d="M114.11 228.12C51.22 228.12 0.0499878 176.95 0.0499878 114.06C0.0499878 51.17 51.22 0 114.11 0C177 0 228.17 51.17 228.17 114.06C228.17 176.95 177 228.12 114.11 228.12ZM114.11 15C59.49 15 15.05 59.44 15.05 114.06C15.05 168.68 59.49 213.12 114.11 213.12C168.73 213.12 213.17 168.68 213.17 114.06C213.17 59.44 168.73 15 114.11 15Z" fill="black"/>
<path d="M114.11 132.43C119.16 132.43 123.49 130.63 127.08 127.04C130.68 123.44 132.48 119.12 132.48 114.07V84.68C132.48 79.63 130.68 75.3 127.08 71.71C123.48 68.11 119.16 66.31 114.11 66.31C109.06 66.31 104.73 68.11 101.14 71.71C97.54 75.31 95.74 79.63 95.74 84.68V114.07C95.74 119.12 97.54 123.45 101.14 127.04C104.74 130.64 109.06 132.43 114.11 132.43Z" fill="black"/>
<path d="M146.08 104.13C145.35 103.4 144.49 103.04 143.5 103.04C142.51 103.04 141.65 103.4 140.92 104.13C140.19 104.86 139.83 105.72 139.83 106.71V114.06C139.83 121.14 137.31 127.2 132.28 132.23C127.25 137.26 121.19 139.78 114.11 139.78C107.03 139.78 100.97 137.26 95.94 132.23C90.91 127.2 88.39 121.14 88.39 114.06V106.71C88.39 105.72 88.03 104.85 87.3 104.13C86.57 103.4 85.71 103.04 84.72 103.04C83.73 103.04 82.86 103.4 82.14 104.13C81.41 104.86 81.05 105.72 81.05 106.71V114.06C81.05 122.52 83.87 129.88 89.52 136.13C95.16 142.39 102.14 145.97 110.44 146.89V154.47H95.74C94.74 154.47 93.88 154.83 93.16 155.56C92.43 156.29 92.07 157.15 92.07 158.14C92.07 159.13 92.43 160 93.16 160.72C93.89 161.45 94.75 161.81 95.74 161.81H132.48C133.47 161.81 134.34 161.45 135.06 160.72C135.79 159.99 136.15 159.13 136.15 158.14C136.15 157.15 135.79 156.28 135.06 155.56C134.33 154.83 133.47 154.47 132.48 154.47H117.79V146.89C126.09 145.97 133.07 142.38 138.71 136.13C144.35 129.87 147.18 122.52 147.18 114.06V106.71C147.18 105.72 146.82 104.86 146.09 104.13H146.08Z" fill="black"/>
</svg>
