<svg width="229" height="229" viewBox="0 0 229 229" fill="none" xmlns="http://www.w3.org/2000/svg">
<path d="M114.41 228.12C51.52 228.12 0.350006 176.95 0.350006 114.06C0.350006 51.17 51.52 0 114.41 0C177.3 0 228.47 51.17 228.47 114.06C228.47 176.95 177.3 228.12 114.41 228.12ZM114.41 15C59.79 15 15.35 59.44 15.35 114.06C15.35 168.68 59.79 213.12 114.41 213.12C169.03 213.12 213.47 168.68 213.47 114.06C213.47 59.44 169.03 15 114.41 15Z" fill="black"/>
<path d="M102.82 72.36H91.06C88.895 72.36 87.14 74.115 87.14 76.28V151.85C87.14 154.015 88.895 155.77 91.06 155.77H102.82C104.985 155.77 106.74 154.015 106.74 151.85V76.28C106.74 74.115 104.985 72.36 102.82 72.36Z" fill="black"/>
<path d="M137.75 72.36H125.99C123.825 72.36 122.07 74.115 122.07 76.28V151.85C122.07 154.015 123.825 155.77 125.99 155.77H137.75C139.915 155.77 141.67 154.015 141.67 151.85V76.28C141.67 74.115 139.915 72.36 137.75 72.36Z" fill="black"/>
</svg>
