<svg width="229" height="229" viewBox="0 0 229 229" fill="none" xmlns="http://www.w3.org/2000/svg">
<path d="M114.06 228.12C51.17 228.12 0 176.96 0 114.06C0 51.16 51.17 0 114.06 0C176.95 0 228.12 51.17 228.12 114.06C228.12 176.95 176.95 228.12 114.06 228.12ZM114.06 15C59.44 15 15 59.44 15 114.06C15 168.68 59.44 213.12 114.06 213.12C168.68 213.12 213.12 168.68 213.12 114.06C213.12 59.44 168.69 15 114.06 15Z" fill="black"/>
<path d="M93.81 164.28C91.93 164.28 90.05 163.82 88.32 162.9C84.52 160.87 82.16 156.93 82.16 152.63V75.49C82.16 71.18 84.52 67.24 88.32 65.22C92.12 63.19 96.71 63.42 100.29 65.82L157.89 104.39C161.13 106.56 163.06 110.17 163.06 114.07C163.06 117.97 161.13 121.58 157.89 123.75L100.29 162.32C98.33 163.63 96.08 164.29 93.81 164.29V164.28ZM97.16 81.77V146.35L145.38 114.06L97.16 81.77Z" fill="black"/>
</svg>
