<svg width="229" height="229" viewBox="0 0 229 229" fill="none" xmlns="http://www.w3.org/2000/svg">
<path d="M114.76 228.12C51.87 228.12 0.700012 176.95 0.700012 114.06C0.700012 51.17 51.87 0 114.76 0C177.65 0 228.82 51.17 228.82 114.06C228.82 176.95 177.65 228.12 114.76 228.12ZM114.76 15C60.14 15 15.7 59.44 15.7 114.06C15.7 168.68 60.14 213.12 114.76 213.12C169.38 213.12 213.82 168.68 213.82 114.06C213.82 59.44 169.38 15 114.76 15Z" fill="black"/>
<path d="M144.13 73.78H85.38C79.3601 73.78 74.48 78.6601 74.48 84.68V143.43C74.48 149.45 79.3601 154.33 85.38 154.33H144.13C150.15 154.33 155.03 149.45 155.03 143.43V84.68C155.03 78.6601 150.15 73.78 144.13 73.78Z" fill="black"/>
</svg>
