<?xml version="1.0" encoding="utf-8"?>
<!-- Generator: Adobe Illustrator 24.0.0, SVG Export Plug-In . SVG Version: 6.00 Build 0)  -->
<svg version="1.1" id="Isolation_Mode" xmlns="http://www.w3.org/2000/svg" xmlns:xlink="http://www.w3.org/1999/xlink" x="0px"
	 y="0px" viewBox="0 0 228 228" style="enable-background:new 0 0 228 228;" xml:space="preserve">
<style type="text/css">
	.st0{opacity:0.9;fill:#FFFFFF;}
	.st1{opacity:0.8;fill:#FFFFFF;}
</style>
<g>
	<path class="st0" d="M92.82,77.27c0.45,6.09-4.1,11.25-10.3,11.68c-6.15,0.43-11.62-4.09-12.16-10.06
		c-0.55-6.07,4.29-11.51,10.57-11.87C87.15,66.66,92.37,71.16,92.82,77.27z"/>
	<path class="st0" d="M126.86,93.79c0.45,6.09-4.1,11.25-10.3,11.68c-6.15,0.43-11.62-4.09-12.16-10.06
		c-0.55-6.07,4.29-11.51,10.57-11.87C121.19,83.18,126.41,87.68,126.86,93.79z"/>
	<path class="st0" d="M159.57,82.03c0.45,6.09-4.1,11.25-10.3,11.68c-6.15,0.43-11.62-4.09-12.16-10.06
		c-0.55-6.07,4.29-11.51,10.57-11.87C153.89,71.42,159.11,75.92,159.57,82.03z"/>
	<path class="st0" d="M67.73,144.94v-7.53c-0.1-1.48,2.08-2.57,3.7-2.67c1.64-0.1,3.03,1.03,3.13,2.5l0.44,7.11l0.04,0.49
		c10.72-4.61,22.5-7.54,35.03-8.27c0.1,0,0.19,0,0.29,0l-1.43-22.66c-0.76-12.05-12.15-21.2-25.42-20.43
		c-13.27,0.77-23.42,11.16-22.67,23.21l-0.04,35.55c2.04-1.23,4.96-2.82,7.11-3.91L67.73,144.94z"/>
	<path class="st0" d="M164.72,133.98c-0.08-1.48,1.16-2.75,2.78-2.85c1.64-0.1,3.03,1.03,3.13,2.51l0.95,15.1
		c1.95,0.9,3.43,2.42,5.3,3.43l-2.15-34.24c-0.76-12.05-12.15-21.2-25.42-20.43c-13.27,0.76-23.42,11.16-22.66,23.21l1.03,16.38
		c1.41,0.15,2.8,0.35,4.2,0.56c0.34-1.05,1.18-1.93,2.46-2.01c1.62-0.09,3.01,1.03,3.11,2.51l0.04,0.47
		c3.39,0.71,7.87,2.16,11.7,2.67c6.2,1.21,10.53,2.21,16.27,4.41L164.72,133.98z"/>
	<path class="st1" d="M109.92,136.63c7.46-0.43,14.74,0,21.82,1.07c0.34-1.05,1.18-1.93,2.44-2c1.64-0.1,3.03,1.03,3.13,2.5
		l0.04,0.47c1.58,0.33,3.13,0.74,4.69,1.14l-0.57-9.08c-0.76-12.05-12.13-21.2-25.4-20.43c-13.29,0.77-23.44,11.16-22.67,23.21
		l0.32,5.33C98.97,137.7,104.35,136.95,109.92,136.63z"/>
</g>
</svg>
