<?xml version="1.0" encoding="utf-8"?>
<!-- Generator: Adobe Illustrator 24.0.0, SVG Export Plug-In . SVG Version: 6.00 Build 0)  -->
<svg version="1.1" id="Layer_1" xmlns="http://www.w3.org/2000/svg" xmlns:xlink="http://www.w3.org/1999/xlink" x="0px" y="0px"
	 viewBox="0 0 228 228" style="enable-background:new 0 0 228 228;" xml:space="preserve">
<style type="text/css">
	.st0{fill:#FFFFFF;}
</style>
<g>
	<path class="st0" d="M25.4,113.98c0.5-48.04,37.55-87.46,87.35-88.55c48.7-1.07,89.11,38.11,89.6,87.68
		c0.48,48.2-36.73,88.78-87.98,89.22C65.99,202.75,26.28,164.9,25.4,113.98z M152.42,133.4c2.33,0,4.67,0,7,0
		c2.33,0,4.67,0.04,7-0.01c5.58-0.14,7.78-2.34,7.82-7.98c0.05-7.5,0.05-15-0.01-22.5c-0.05-6.31-2.1-8.39-8.38-8.42
		c-8.83-0.05-17.67-0.2-26.5,0.08c-4.44,0.14-6.22-1.03-6.04-5.83c0.36-9.15,0.15-18.33,0.04-27.5c-0.06-5.33-2.33-7.52-7.69-7.57
		c-7.67-0.07-15.33-0.06-23,0.01c-5.98,0.05-8.06,2.11-8.12,8.16c-0.09,9.17-0.2,18.34,0.02,27.5c0.09,3.89-1.09,5.31-5.1,5.2
		c-9.16-0.24-18.33-0.11-27.5-0.02c-6.28,0.06-8.24,2.11-8.28,8.51c-0.05,7.5-0.07,15-0.01,22.5c0.04,5.61,2.21,7.78,7.93,7.83
		c9.33,0.09,18.67,0.18,28-0.01c3.64-0.07,5.05,1.04,4.96,4.82c-0.21,8.83-0.07,17.67-0.07,26.5c0,7.7,1.74,9.52,9.26,9.56
		c7,0.04,14,0.03,21,0.01c6.56-0.02,8.6-2.06,8.63-8.68c0.04-9.17,0.13-18.34-0.03-27.5c-0.06-3.4,0.99-4.86,4.56-4.69
		C142.75,133.57,147.59,133.4,152.42,133.4z"/>
	<path class="st0" d="M113.67-66.03c-19.59-0.1-34.83-15.73-34.69-35.57c0.13-19.05,16.22-34.63,35.51-34.41
		c19.2,0.22,34.52,16.01,34.42,35.47C148.82-81.27,133.16-65.93,113.67-66.03z"/>
	<path class="st0" d="M78.99,328.8c-0.02-19.46,15.34-34.85,34.83-34.92c19.41-0.06,35.12,15.45,35.11,34.68
		c-0.01,19.66-15.62,35.36-35.12,35.33C94.59,363.86,79.01,348.15,78.99,328.8z"/>
	<path class="st0" d="M299.76,43.23c-19.34,0.14-35.08-15.35-35.19-34.65c-0.11-19.55,15.49-35.31,35.06-35.42
		c18.98-0.1,34.93,15.85,35.02,35.04C334.73,27.44,319.14,43.09,299.76,43.23z"/>
	<path class="st0" d="M-36.73,219.31c0.11,19.37-15.25,34.94-34.69,35.17c-19.12,0.23-35.11-15.46-35.34-34.67
		c-0.23-19.32,15.57-35.3,35.09-35.48C-52.62,184.16-36.84,199.95-36.73,219.31z"/>
	<path class="st0" d="M300.27,184.35c19.54,0.61,35.19,17.06,34.38,36.16c-0.8,19.16-16.9,34.55-35.54,33.99
		c-19.81-0.6-35.13-16.52-34.52-35.9C265.2,199.16,281.25,183.76,300.27,184.35z"/>
	<path class="st0" d="M-36.76,8.44c-0.01,19.33-15.68,34.9-34.97,34.76c-19.46-0.14-34.95-15.57-35-34.87
		c-0.06-19.3,16.06-35.32,35.36-35.16C-52.14-26.67-36.74-10.98-36.76,8.44z"/>
	<path class="st0" d="M264.61-26.92c-3.07,4.27-5.96,8.3-9.19,12.79c-33.44-19.3-66.93-38.64-100.62-58.09
		c2.2-4.79,4.24-9.24,6.56-14.29C195.9-66.57,230.27-46.74,264.61-26.92z"/>
	<path class="st0" d="M73.53,300.35c-2.45,4.77-4.65,9.04-7.18,13.96C32.12,294.54-2.06,274.8-36.43,254.95
		c3.1-4.42,6.01-8.55,9.04-12.86C6.2,261.48,39.75,280.85,73.53,300.35z"/>
	<path class="st0" d="M154.97,299.98c33.35-19.25,66.74-38.52,99.94-57.69c3.29,4.31,6.31,8.27,9.59,12.57
		c-34.15,19.72-68.39,39.49-102.64,59.27C159.51,309.3,157.35,304.86,154.97,299.98z"/>
	<path class="st0" d="M66.04-86.24c2.37,4.8,4.55,9.22,6.95,14.08C39.72-52.94,6.47-33.74-26.87-14.49
		c-3.21-4.14-6.23-8.04-9.68-12.5C-2.44-46.69,31.73-66.43,66.04-86.24z"/>
	<path class="st0" d="M-82.87,56.45c4.89,0.58,9.61,1.14,14.76,1.76c0,37.03,0,74.04,0,111.35c-4.86,0.38-9.61,0.75-14.76,1.15
		C-82.87,132.62-82.87,94.6-82.87,56.45z"/>
	<path class="st0" d="M310.75,170.88c-5.02-0.45-9.63-0.86-14.71-1.32c0-37.04,0-74.07,0-111.49c4.79-0.33,9.53-0.66,14.71-1.02
		C310.75,94.91,310.75,132.62,310.75,170.88z"/>
	<path class="st0" d="M20.83,69.84c-17.87-10.43-35.36-20.65-53-30.95c2.5-4.85,4.83-9.35,7.4-14.34
		c18.04,10.3,35.9,20.49,54.09,30.86C26.48,60.24,23.81,64.77,20.83,69.84z"/>
	<path class="st0" d="M-24.22,203.03c-2.64-4.87-5.06-9.35-7.69-14.21c17.43-10.18,34.88-20.38,52.77-30.83
		c2.79,4.71,5.53,9.33,8.54,14.41C11.33,182.73-6.47,192.9-24.22,203.03z"/>
	<path class="st0" d="M260.4,189.17c-2.7,4.83-5.19,9.28-7.88,14.08c-17.87-10.21-35.56-20.33-53.51-30.59
		c2.75-4.81,5.35-9.36,8.27-14.46C225.03,168.54,242.72,178.86,260.4,189.17z"/>
	<path class="st0" d="M207.17,69.79c-2.77-4.87-5.38-9.44-8.27-14.52c17.73-10.14,35.41-20.25,53.27-30.46
		c2.6,4.7,5.05,9.14,7.82,14.15C242.54,49.14,224.96,59.41,207.17,69.79z"/>
	<path class="st0" d="M121.87,279.52c-5.48,0-10.29,0-15.64,0c0-20.69,0-41.41,0-62.5c4.97,0,10.17,0,15.64,0
		C121.87,237.83,121.87,258.57,121.87,279.52z"/>
	<path class="st0" d="M121.82,10.85c-5.33,0-10.28,0-15.68,0c0-20.83,0-41.53,0-62.54c5.21,0,10.25,0,15.68,0
		C121.82-30.89,121.82-10.3,121.82,10.85z"/>
</g>
</svg>
