<?xml version="1.0" encoding="utf-8"?>
<!-- Generator: Adobe Illustrator 24.0.0, SVG Export Plug-In . SVG Version: 6.00 Build 0)  -->
<svg version="1.1" id="Capa_1" xmlns="http://www.w3.org/2000/svg" xmlns:xlink="http://www.w3.org/1999/xlink" x="0px" y="0px"
	 viewBox="0 0 512 512" style="enable-background:new 0 0 512 512;" xml:space="preserve">
<style type="text/css">
	.st0{fill:#FFFFFF;}
</style>
<g>
	<path class="st0" d="M375.57,236.24c2.47,0,4.42-0.03,6.36,0c8.28,0.13,11.24,3.98,9.44,12.36c-2.66,12.36-5.37,24.71-8.06,37.06
		c-3.57,16.42-7.14,32.83-10.69,49.25c-1.84,8.52-6.27,12.12-15.04,12.12c-54.87,0.01-109.75-0.21-164.61,0.19
		c-13.34,0.1-19.03-7.59-18.94-18.72c0.37-43.67,0.19-87.35,0.11-131.02c-0.01-5.79,0.87-11.18,6-14.51
		c2.52-1.64,5.78-2.96,8.72-2.99c26.02-0.23,52.04-0.21,78.05-0.02c1.89,0.01,4.35,1.44,5.54,2.98c4.07,5.27,7.82,10.79,11.42,16.39
		c1.73,2.69,3.71,3.68,6.94,3.66c22.52-0.14,45.03-0.1,67.55-0.07c11.42,0.02,17.18,5.86,17.19,17.29
		C375.58,225.34,375.57,230.47,375.57,236.24z M364.7,236.23c0-5.47,0.02-10.42,0-15.37c-0.03-6.24-0.92-7.12-7.35-7.12
		c-24.02-0.01-48.04-0.08-72.06,0.08c-3.42,0.02-5.45-1-7.26-3.88c-3.36-5.36-7.28-10.36-10.69-15.7c-1.73-2.7-3.7-3.64-6.93-3.62
		c-22.52,0.15-45.04,0.07-67.56,0.08c-7.41,0-7.85,0.45-7.85,8.02c-0.01,38.18-0.01,76.36,0,114.54c0,1.42,0.16,2.84,0.25,4.26
		c1-0.65,1.23-1.36,1.39-2.1c4.68-21.63,9.34-43.26,14.05-64.88c2.48-11.37,6.24-14.31,17.94-14.31c46.71,0,93.42,0,140.13,0
		C360.55,236.23,362.34,236.23,364.7,236.23z M306.77,257.86c-7.39,0-14.35,0.15-21.31-0.07c-3.38-0.11-4.62,1.15-5.15,4.41
		c-0.9,5.54-2.34,11-3.63,16.82c-7.15,0-13.95,0-20.95,0c-1.81,8.57-3.54,16.77-5.4,25.59c7.37,0,13.98,0,20.9,0
		c-1.42,7.13-2.73,13.73-4.13,20.73c8.79,0,16.9,0,25.3,0c1.55-6.9,3.06-13.66,4.66-20.78c5.89,0,11.54,0.15,17.17-0.1
		c1.47-0.07,3.89-1.15,4.15-2.19c1.88-7.54,3.32-15.18,5.01-23.34c-7.27,0-13.89,0-20.89,0
		C303.94,271.8,305.29,265.15,306.77,257.86z"/>
	<path class="st0" d="M212.48,231.14c3.8-6.45,8.4-9.95,15.22-9.95c25.82-0.03,51.65-0.04,77.47-0.05c15.49-0.01,30.99,0,46.48,0.01
		c7.4,0.01,7.4,0.02,6.1,8.19c-1.5,0.07-3.11,0.22-4.71,0.22c-40.32,0.02-80.64-0.01-120.96,0.1c-3.07,0.01-6.11,1.17-9.2,1.43
		C219.8,231.34,216.68,231.14,212.48,231.14z"/>
</g>
</svg>
