<svg id="Layer_1" data-name="Layer 1" xmlns="http://www.w3.org/2000/svg" viewBox="0 0 480 480.25"><title>Schedule</title><g id="Schedue"><path d="M440,64H408V48a32,32,0,0,0-64,0V64H280V48a32,32,0,0,0-64,0V64H152V48a32,32,0,0,0-64,0V64H56a40.05,40.05,0,0,0-40,40V440a40.05,40.05,0,0,0,40,40H296a8,8,0,0,0,0-16H56a24,24,0,0,1-24-24h0V176H464V288a8,8,0,0,0,16,0V104A40.05,40.05,0,0,0,440,64ZM360,48a16,16,0,0,1,32,0V96a16,16,0,0,1-32,0ZM232,48a16,16,0,0,1,32,0V96a16,16,0,0,1-32,0ZM104,48a16,16,0,0,1,32,0V96a16,16,0,0,1-32,0ZM32,160V104A24,24,0,0,1,56,80H88V96a32,32,0,0,0,64,0V80h64V96a32,32,0,0,0,64,0V80h64V96a32,32,0,0,0,64,0V80h32a24,24,0,0,1,24,24v56Z" transform="translate(-16 -16)"/><path d="M488,328a8,8,0,0,0,0-16H456a8,8,0,0,0-8,8v32a8,8,0,0,0,16,0V341.54a87.8,87.8,0,1,1-41.3-32,8,8,0,1,0,5.6-15h0A104.15,104.15,0,1,0,473.88,328Z" transform="translate(-16 -16)"/><path d="M400,369.47V328a8,8,0,0,0-16,0v41.47A24,24,0,0,0,369.47,384H344a8,8,0,0,0,0,16h25.47A23.94,23.94,0,1,0,400,369.47ZM392,400a8,8,0,1,1,8-8A8,8,0,0,1,392,400Z" transform="translate(-16 -16)"/><path d="M216,264H184a16,16,0,0,1-16-16V224a16,16,0,0,1,16-16h32a16,16,0,0,1,16,16v24A16,16,0,0,1,216,264Zm-32-40v24h32V224Z" transform="translate(-16 -16)"/><path d="M312,264H280a16,16,0,0,1-16-16V224a16,16,0,0,1,16-16h32a16,16,0,0,1,16,16v24A16,16,0,0,1,312,264Zm-32-40v24h32V224Z" transform="translate(-16 -16)"/><path d="M120,264H88a16,16,0,0,1-16-16V224a16,16,0,0,1,16-16h32a16,16,0,0,1,16,16v24A16,16,0,0,1,120,264ZM88,224v24h32V224Z" transform="translate(-16 -16)"/><path d="M408,264H376a16,16,0,0,1-16-16V224a16,16,0,0,1,16-16h32a16,16,0,0,1,16,16v24A16,16,0,0,1,408,264Zm-32-40v24h32V224Z" transform="translate(-16 -16)"/><path d="M216,352H184a16,16,0,0,1-16-16V312a16,16,0,0,1,16-16h32a16,16,0,0,1,16,16v24A16,16,0,0,1,216,352Zm-32-40v24h32V312Z" transform="translate(-16 -16)"/><path d="M280,352a16,16,0,0,1-16-16V312a16,16,0,0,1,16-16h24a8,8,0,0,1,0,16H280v24a8,8,0,0,1,0,16Z" transform="translate(-16 -16)"/><path d="M120,352H88a16,16,0,0,1-16-16V312a16,16,0,0,1,16-16h32a16,16,0,0,1,16,16v24A16,16,0,0,1,120,352ZM88,312v24h32V312Z" transform="translate(-16 -16)"/><path d="M216,440H184a16,16,0,0,1-16-16V400a16,16,0,0,1,16-16h32a16,16,0,0,1,16,16v24A16,16,0,0,1,216,440Zm-32-40v24h32V400Z" transform="translate(-16 -16)"/><path d="M120,440H88a16,16,0,0,1-16-16V400a16,16,0,0,1,16-16h32a16,16,0,0,1,16,16v24A16,16,0,0,1,120,440ZM88,400v24h32V400Z" transform="translate(-16 -16)"/></g></svg>