<?xml version="1.0" encoding="utf-8"?>
<!-- Generator: Adobe Illustrator 24.0.0, SVG Export Plug-In . SVG Version: 6.00 Build 0)  -->
<svg version="1.1" id="Capa_1" xmlns="http://www.w3.org/2000/svg" xmlns:xlink="http://www.w3.org/1999/xlink" x="0px" y="0px"
	 viewBox="0 0 512 512" style="enable-background:new 0 0 512 512;" xml:space="preserve">
<g>
	<g>
		<path d="M490.67,405.33h-56.81c-9.24-30.74-37.48-53.33-71.19-53.33s-61.93,22.59-71.19,53.33H21.33
			C9.56,405.33,0,414.89,0,426.67S9.56,448,21.33,448h270.14c9.24,30.74,37.48,53.33,71.19,53.33s61.93-22.59,71.19-53.33h56.81
			c11.8,0,21.33-9.56,21.33-21.33S502.46,405.33,490.67,405.33z M362.67,458.67c-17.64,0-32-14.36-32-32s14.36-32,32-32
			s32,14.36,32,32S380.31,458.67,362.67,458.67z"/>
	</g>
</g>
<g>
	<g>
		<path d="M490.67,64h-56.81c-9.26-30.74-37.48-53.33-71.19-53.33S300.74,33.26,291.48,64H21.33C9.56,64,0,73.56,0,85.33
			s9.56,21.33,21.33,21.33h270.14c9.26,30.74,37.48,53.33,71.19,53.33s61.93-22.59,71.19-53.33h56.81c11.8,0,21.33-9.56,21.33-21.33
			S502.46,64,490.67,64z M362.67,117.33c-17.64,0-32-14.36-32-32s14.36-32,32-32s32,14.36,32,32S380.31,117.33,362.67,117.33z"/>
	</g>
</g>
<g>
	<g>
		<path d="M490.67,234.67H220.52c-9.26-30.74-37.48-53.33-71.19-53.33s-61.93,22.59-71.19,53.33H21.33C9.56,234.67,0,244.22,0,256
			s9.56,21.33,21.33,21.33h56.81c9.26,30.74,37.48,53.33,71.19,53.33s61.93-22.59,71.19-53.33h270.14c11.8,0,21.33-9.56,21.33-21.33
			C512,244.22,502.46,234.67,490.67,234.67z M149.33,288c-17.64,0-32-14.36-32-32s14.36-32,32-32s32,14.36,32,32
			S166.98,288,149.33,288z"/>
	</g>
</g>
</svg>
