<?xml version="1.0" encoding="utf-8"?>
<!-- Generator: Adobe Illustrator 26.0.3, SVG Export Plug-In . SVG Version: 6.00 Build 0)  -->
<svg version="1.1" id="Layer_1" xmlns="http://www.w3.org/2000/svg" xmlns:xlink="http://www.w3.org/1999/xlink" x="0px" y="0px"
	 viewBox="0 0 241 175" style="enable-background:new 0 0 241 175;" xml:space="preserve">
<style type="text/css">
	.st0{fill:#FFFFFF;}
</style>
<g>
	<path class="st0" d="M47.46,109.22l-4.97-5.37c-1.22,0.35-2.56,0.53-4.03,0.53c-2.63,0-5.05-0.62-7.26-1.85
		c-2.21-1.23-3.96-2.96-5.25-5.17c-1.29-2.21-1.93-4.7-1.93-7.47s0.64-5.25,1.93-7.45c1.29-2.2,3.04-3.91,5.25-5.15
		c2.21-1.23,4.63-1.85,7.26-1.85c2.66,0,5.09,0.62,7.31,1.85c2.21,1.23,3.96,2.95,5.23,5.15c1.28,2.2,1.91,4.68,1.91,7.45
		c0,2.61-0.56,4.96-1.69,7.06c-1.13,2.1-2.68,3.79-4.66,5.07l6.8,7.2H47.46z M30.02,95.41c0.83,1.59,1.97,2.81,3.44,3.66
		c1.46,0.85,3.13,1.28,5.01,1.28s3.54-0.43,5.01-1.28c1.47-0.85,2.61-2.08,3.44-3.66c0.83-1.59,1.24-3.43,1.24-5.52
		c0-2.09-0.41-3.92-1.24-5.49s-1.97-2.78-3.44-3.62c-1.46-0.84-3.13-1.26-5.01-1.26s-3.54,0.42-5.01,1.26
		c-1.47,0.84-2.61,2.05-3.44,3.62c-0.83,1.57-1.24,3.41-1.24,5.49C28.78,91.98,29.19,93.82,30.02,95.41z"/>
	<path class="st0" d="M77.91,81.67v22.43h-4.64v-2.65c-0.73,0.92-1.69,1.65-2.87,2.18s-2.44,0.79-3.77,0.79
		c-1.76,0-3.34-0.37-4.74-1.1s-2.5-1.82-3.3-3.26c-0.8-1.44-1.2-3.17-1.2-5.21V81.67h4.6v12.5c0,2.01,0.5,3.55,1.51,4.62
		c1,1.07,2.37,1.61,4.11,1.61c1.74,0,3.11-0.54,4.13-1.61c1.02-1.07,1.53-2.61,1.53-4.62v-12.5H77.91z"/>
	<path class="st0" d="M91.36,82.26c1.12-0.64,2.46-0.96,4.01-0.96v4.8h-1.18c-1.82,0-3.19,0.46-4.13,1.38
		c-0.94,0.92-1.4,2.52-1.4,4.8v11.8h-4.64V81.67h4.64v3.26C89.33,83.79,90.23,82.9,91.36,82.26z"/>
	<path class="st0" d="M122.23,75.81v28.29h-4.64V91.72h-13.31v12.37h-4.64V75.81h4.64v12.13h13.31V75.81H122.23z"/>
	<path class="st0" d="M132.32,103.02c-1.71-0.96-3.05-2.32-4.03-4.07c-0.98-1.75-1.46-3.78-1.46-6.08c0-2.28,0.5-4.3,1.51-6.06
		c1-1.76,2.37-3.12,4.11-4.07c1.74-0.95,3.68-1.42,5.82-1.42s4.08,0.48,5.82,1.42c1.74,0.95,3.11,2.31,4.11,4.07
		c1,1.76,1.51,3.79,1.51,6.06s-0.52,4.3-1.55,6.06s-2.44,3.13-4.21,4.09s-3.74,1.44-5.88,1.44
		C135.95,104.46,134.03,103.98,132.32,103.02z M141.42,99.58c1.04-0.57,1.89-1.42,2.54-2.56s0.98-2.52,0.98-4.15s-0.31-3-0.94-4.13
		c-0.62-1.12-1.45-1.97-2.48-2.54c-1.03-0.57-2.14-0.85-3.34-0.85c-1.19,0-2.3,0.28-3.32,0.85s-1.83,1.42-2.42,2.54
		c-0.6,1.13-0.9,2.5-0.9,4.13c0,2.42,0.62,4.28,1.85,5.6c1.23,1.32,2.79,1.97,4.66,1.97C139.26,100.43,140.37,100.15,141.42,99.58z"
		/>
	<path class="st0" d="M186.19,82.4c1.4,0.73,2.5,1.82,3.3,3.26c0.8,1.44,1.2,3.17,1.2,5.21v13.23h-4.6V91.56
		c0-2.01-0.5-3.55-1.51-4.62c-1-1.07-2.37-1.61-4.11-1.61c-1.74,0-3.11,0.54-4.13,1.61c-1.02,1.07-1.53,2.61-1.53,4.62v12.54h-4.6
		V91.56c0-2.01-0.5-3.55-1.51-4.62c-1-1.07-2.38-1.61-4.11-1.61s-3.11,0.54-4.13,1.61c-1.02,1.07-1.53,2.61-1.53,4.62v12.54h-4.64
		V81.67h4.64v2.56c0.76-0.92,1.72-1.64,2.89-2.16c1.17-0.52,2.42-0.77,3.75-0.77c1.79,0,3.39,0.38,4.8,1.14
		c1.41,0.76,2.5,1.86,3.26,3.3c0.68-1.36,1.74-2.44,3.17-3.24c1.44-0.8,2.98-1.2,4.64-1.2C183.21,81.3,184.79,81.67,186.19,82.4z"/>
	<path class="st0" d="M216.98,94.61h-17.14c0.14,1.79,0.8,3.23,1.99,4.31c1.19,1.09,2.66,1.63,4.4,1.63c2.5,0,4.26-1.04,5.29-3.13
		h5.01c-0.68,2.06-1.91,3.75-3.68,5.07s-3.98,1.97-6.61,1.97c-2.14,0-4.06-0.48-5.76-1.44c-1.7-0.96-3.03-2.32-3.99-4.07
		c-0.96-1.75-1.45-3.78-1.45-6.08c0-2.31,0.47-4.33,1.4-6.08s2.25-3.1,3.95-4.05c1.7-0.95,3.64-1.42,5.84-1.42
		c2.12,0,4,0.46,5.66,1.38c1.65,0.92,2.94,2.22,3.87,3.89s1.38,3.59,1.38,5.76C217.14,93.18,217.09,93.94,216.98,94.61z
		 M212.3,90.87c-0.03-1.71-0.64-3.08-1.83-4.11c-1.19-1.03-2.67-1.55-4.44-1.55c-1.6,0-2.97,0.51-4.11,1.53
		c-1.14,1.02-1.82,2.4-2.04,4.13H212.3z"/>
</g>
<path class="st0" d="M15.75,75.24c6.55-3.55,13.32-6.76,20.09-9.86c0.19-0.09,3.14-1.42,3.25-1.47c0.11,0.06,2.94,1.41,3.13,1.5
	c6.5,3.16,13.01,6.43,19.28,10.04c-7.71-2.95-15.3-6.4-22.77-9.93c0,0,0.67,0.01,0.67,0.01C31.64,68.97,23.75,72.36,15.75,75.24
	L15.75,75.24z"/>
</svg>
