<?xml version="1.0" encoding="utf-8"?>
<!-- Generator: Adobe Illustrator 24.1.3, SVG Export Plug-In . SVG Version: 6.00 Build 0)  -->
<svg version="1.1" id="Capa_1" xmlns="http://www.w3.org/2000/svg" xmlns:xlink="http://www.w3.org/1999/xlink" x="0px" y="0px"
	 viewBox="0 0 512 512" style="enable-background:new 0 0 512 512;" xml:space="preserve">
<g>
	<g>
		<path style="fill:#6CD4E5;" d="M31.2,205.8l32.6-32.6c9.4-9.4,24.6-9.4,33.9,0l41.7,41.7c9.4,9.4,9.4,24.6,0,33.9l-28.9,28.9
			c-2.3,2.3-3.3,5.6-2.8,8.8c2.8,15.8,11.5,49.5,40.9,79c8.4,8.4,35.5,33.4,79,40.9c3.2,0.5,6.4-0.5,8.7-2.8l28.9-28.9
			c9.4-9.4,24.6-9.4,33.9,0l41.7,41.7c9.4,9.4,9.4,24.6,0,33.9L308.4,483c-21.1,21.1-52.4,28.4-80.6,18.5
			C190.4,488.4,141,464,95.6,418.6s-69.8-94.8-82.9-132.2C2.8,258.2,10.1,226.9,31.2,205.8L31.2,205.8z"/>
		<g>
			<path style="fill:#27BDCC;" d="M227.7,406.5c-43.6-7.5-70.6-32.5-79-40.9c-29.4-29.4-38.1-63.1-40.9-79c-0.6-3.2,0.5-6.5,2.8-8.8l28.9-28.9
				c9.4-9.4,9.4-24.6,0-33.9l-41.7-41.7c-8.7-8.7-22.4-9.3-31.9-1.8c2.4,2.4,41.2,41.2,43.6,43.6c9.4,9.4,9.4,24.6,0,33.9
				l-28.9,28.9c-2.3,2.3-3.3,5.6-2.8,8.8c2.8,15.8,11.5,49.5,40.9,79c10.6,10.6,37.6,35.8,79,40.9
				C210.1,408,220.5,407.4,227.7,406.5z"/>
			<path style="fill:#27BDCC;" d="M341,416.5l-41.7-41.7c-8.7-8.7-22.5-9.3-32-1.8c0.7,0.5,1.3,1.1,2,1.8l41.7,41.7c9.4,9.4,9.4,24.6,0,33.9
				L278.4,483c-11.1,11.1-25.1,18.4-40,21.4c25.2,5,51.5-2.9,70-21.4l32.6-32.6C350.4,441,350.4,425.8,341,416.5z"/>
		</g>
		<path style="fill:#D6C7F9;" d="M468.7,223c49.5-49.5,49-129.9-1.4-178.8C418.6-3,340.4-2.8,292,44.8c-40.8,40.1-48.3,101.1-22.6,148.9
			c0.8,1.5,1,3.2,0.4,4.8l-19.3,57.7c-1.6,4.7,2.9,9.2,7.6,7.6l57.7-19.3c1.6-0.5,3.3-0.4,4.8,0.4
			C368.1,270.4,428.6,263.1,468.7,223L468.7,223z"/>
		<g>
			<path style="fill:#A291D8;" d="M467.3,44.2c-28.1-27.2-66-38.7-102.3-34.3c26.4,3.1,51.9,14.6,72.3,34.3c50.4,48.9,50.9,129.4,1.4,178.8
				c-20.7,20.7-46.8,32.6-73.7,35.8c36.9,4.4,75.4-7.5,103.7-35.8C518.1,173.5,517.7,93.1,467.3,44.2L467.3,44.2z"/>
		</g>
		<path style="fill:#FFFFFF;" d="M439.2,117.4h-38.9c-1.9,0-3.4-1.5-3.4-3.4V75c0-3.7-3-6.8-6.8-6.8h-20.3c-3.7,0-6.8,3-6.8,6.8V114
			c0,1.9-1.5,3.4-3.4,3.4h-38.9c-3.7,0-6.8,3-6.8,6.8v20.3c0,3.7,3,6.8,6.8,6.8h38.9c1.9,0,3.4,1.5,3.4,3.4v38.9
			c0,3.7,3,6.8,6.8,6.8h20.3c3.7,0,6.8-3,6.8-6.8v-38.9c0-1.9,1.5-3.4,3.4-3.4h38.9c3.7,0,6.8-3,6.8-6.8v-20.3
			C446,120.4,443,117.4,439.2,117.4z"/>
	</g>
	<path d="M304.6,369.4c-12.3-12.3-32.3-12.3-44.6,0l-28.9,28.9c-0.6,0.6-1.4,0.8-2.1,0.7c-38-6.5-63.3-27.1-75-38.8
		c-27.1-27.1-36-58.6-38.8-74.9c-0.1-0.8,0.1-1.6,0.7-2.2l28.9-28.9c12.2-12.1,12.1-32.6,0-44.6L103,167.9
		c-12.3-12.3-32.3-12.3-44.6,0l-32.6,32.6c-23.1,23.1-31,57.7-20.3,88.4c18.1,51.5,46.6,96.9,84.7,135
		c22.5,22.5,47.9,41.8,75.6,57.6c3.6,2.1,8.2,0.8,10.2-2.8c2-3.6,0.8-8.2-2.8-10.2c-26.5-15.1-50.9-33.7-72.4-55.2
		c-36.5-36.5-63.8-80.1-81.1-129.4c-8.8-25.2-2.3-53.8,16.7-72.8l32.6-32.6c6.3-6.4,17-6.4,23.3,0l41.7,41.7
		c6.4,6.4,6.4,16.9,0,23.3l-28.9,28.9c-4,4-5.8,9.8-4.9,15.4c3.2,18.1,13,52.9,43,83c13,13,41,35.8,83.1,43c5.6,1,11.3-0.9,15.3-4.9
		l28.9-28.9c6.4-6.4,16.9-6.4,23.3,0l41.7,41.7c6.3,6.3,6.4,17,0,23.3l-32.6,32.6c-19,19-47.6,25.6-72.8,16.7
		c-8.9-3.1-17.9-6.7-26.5-10.5c-3.8-1.7-8.2,0-9.9,3.8c-1.7,3.8,0,8.2,3.8,9.9c9,4,18.3,7.7,27.7,11c30.5,10.7,65.2,2.9,88.3-20.3
		l32.6-32.6c12.2-12.1,12.1-32.6,0-44.6L304.6,369.4z M472.5,38.8C438.9,6.2,389.7-6.3,344.2,6.3c-4,1.1-6.3,5.2-5.2,9.2
		c1.1,4,5.2,6.3,9.2,5.2c40.4-11.2,84-0.1,113.8,28.8c22.9,22.2,35.6,52,35.9,83.8c0.2,31.9-12,61.8-34.5,84.3
		c-18.3,18.3-41.5,29.8-67,33.4c-24.7,3.5-50.4-1.1-72.2-12.9c-3.3-1.8-7.2-2.1-10.7-0.9l-54.8,18.3l18.3-54.8
		c1.2-3.5,0.8-7.4-0.9-10.7c-11.8-22-16.4-47.8-12.8-72.7c3.7-25.7,15.5-49,34.1-67.3c6.4-6.2,13.4-11.8,21-16.4
		c3.5-2.2,4.6-6.8,2.5-10.3c-2.2-3.5-6.8-4.6-10.3-2.5c-8.5,5.2-16.5,11.4-23.6,18.5c-21,20.6-34.2,46.8-38.4,75.8
		c-4,27.8,1,56.7,14.2,81.4l-19.1,57c-1.6,4.9-0.4,10.2,3.3,13.8c3.7,3.7,9,4.9,13.8,3.3l57-19.1c24.5,13,53.2,18.1,80.9,14.2
		c28.8-4,54.9-17,75.5-37.7c25.4-25.4,39.2-59.1,38.9-95C512.6,97.4,498.3,63.8,472.5,38.8L472.5,38.8z M390.1,60.7h-20.3
		c-7.9,0-14.3,6.4-14.3,14.3v34.8h-34.8c-7.9,0-14.3,6.4-14.3,14.3v20.3c0,7.9,6.4,14.3,14.3,14.3h34.8v34.8
		c0,7.9,6.4,14.3,14.3,14.3h20.3c7.9,0,14.3-6.4,14.3-14.3v-34.8h34.8c7.9,0,14.3-6.4,14.3-14.3v-20.3c0-7.9-6.4-14.3-14.3-14.3
		h-34.8V75C404.4,67.1,398,60.7,390.1,60.7z M438.5,124.9v18.9h-38.2c-6,0-10.9,4.9-10.9,10.9v38.2h-18.9v-38.2
		c0-6-4.9-10.9-10.9-10.9h-38.2v-18.9h38.2c6,0,10.9-4.9,10.9-10.9V75.7h18.9V114c0,6,4.9,10.9,10.9,10.9H438.5z"/>
</g>
</svg>
