<svg id="Layer_1" enable-background="new 0 0 512 512" height="512" viewBox="0 0 512 512" width="512" xmlns="http://www.w3.org/2000/svg"><path d="m507.313 400.783-95.907-95.907c-3-3.001-7.07-4.687-11.313-4.687s-8.313 1.686-11.313 4.687l-54.978 54.978c-31.109-8.313-75.325-42.239-107.371-74.284-43.325-43.327-67.6-83.46-74.24-107.416l54.934-54.933c3.001-3 4.687-7.07 4.687-11.313s-1.686-8.313-4.687-11.313l-95.908-95.908c-6.248-6.248-16.379-6.248-22.627 0l-61.036 61.036c-.669.668-1.276 1.394-1.816 2.17-27.539 39.54-33.188 95.151-15.908 156.588 16.811 59.771 54.291 120.909 105.535 172.153s112.383 88.725 172.153 105.535c23.354 6.569 45.859 9.823 66.967 9.823 34.42 0 65.112-8.66 89.622-25.73.776-.54 1.502-1.147 2.17-1.816l61.036-61.036c6.25-6.248 6.25-16.379 0-22.627zm-82.62 59.993c-18.913 12.778-42.882 19.244-70.154 19.242-18.162 0-37.794-2.869-58.356-8.653-54.58-15.351-110.76-49.927-158.19-97.357s-82.007-103.61-97.357-158.19c-14.468-51.438-10.699-97.003 10.589-128.511l48.68-48.68 73.279 73.28-49.722 49.722c-3.533 3.533-5.213 8.514-4.541 13.466 4.671 34.411 37.196 85.413 84.884 133.102 12.911 12.911 80.006 77.679 133.103 84.884 4.947.674 9.932-1.009 13.465-4.541l49.722-49.722 73.28 73.279zm-183.653-210.58c-2.106 5.324-1.207 11.367 2.357 15.848 3.062 3.848 7.688 6.039 12.519 6.038.794 0 1.595-.059 2.394-.18l65.986-9.978c16.386 6.743 33.741 10.157 51.663 10.157 75.014 0 136.041-61.027 136.041-136.041s-61.027-136.04-136.041-136.04-136.041 61.027-136.041 136.041c0 24.541 6.511 48.293 18.902 69.211zm134.919-218.196c57.368 0 104.041 46.673 104.041 104.041s-46.673 104.041-104.041 104.041c-14.971 0-29.41-3.106-42.917-9.233-2.085-.945-4.339-1.429-6.609-1.429-.798 0-1.598.06-2.393.18l-43.012 6.504 10.546-26.659c1.951-4.933 1.331-10.513-1.656-14.896-11.775-17.279-18-37.511-18-58.507 0-57.369 46.673-104.042 104.041-104.042zm-70.628 104.041c0-8.837 7.163-16 16-16h38.628v-38.628c0-8.837 7.163-16 16-16s16 7.163 16 16v38.628h38.628c8.837 0 16 7.163 16 16s-7.163 16-16 16h-38.628v38.628c0 8.837-7.163 16-16 16s-16-7.163-16-16v-38.628h-38.628c-8.837 0-16-7.163-16-16z"/></svg>