<?xml version="1.0" encoding="utf-8"?>
<!-- Generator: Adobe Illustrator 25.2.3, SVG Export Plug-In . SVG Version: 6.00 Build 0)  -->
<svg version="1.1" id="Capa_1" xmlns="http://www.w3.org/2000/svg" xmlns:xlink="http://www.w3.org/1999/xlink" x="0px" y="0px"
	 viewBox="0 0 496 496" style="enable-background:new 0 0 496 496;" xml:space="preserve">
<g>
	<g>
		<path d="M431.9,500c-4.5,0-9-0.4-13.4-1.3c-26.9-5.2-48.3-26.8-53.3-53.8c-4.4-23.9,3.7-47.7,21.6-63.7c0.8-0.7,1.2-1.7,1.2-2.8
			V40c0-24.3,19.7-44,44-44s44,19.7,44,44v338.4c0,1.1,0.4,2.1,1.1,2.7C491.6,394,500,412.6,500,432c0,20.4-9,39.5-24.8,52.5
			C463.1,494.5,447.7,500,431.9,500z M412,378.4c0,7.9-3.4,15.5-9.3,20.7c-11.6,10.3-16.8,25.8-14,41.3c3.2,17.3,17,31.3,34.3,34.6
			c2.9,0.6,5.9,0.8,8.8,0.8c10.3,0,20.3-3.6,28.1-10c10.2-8.4,16-20.8,16-34c0-12.6-5.4-24.5-14.8-32.9c-5.8-5.2-9.2-12.7-9.2-20.7
			V356h-16v-24h16v-8h-32v-24h32v-8h-16v-24h16v-8h-32v-24h32v-8h-16v-24h16v-8h-32v-24h32v-8h-16v-24h16v-8h-40V378.4z M452,108v-8
			h-16V76h16v-8h-32V44h32v-4c0-11-9-20-20-20s-20,9-20,20v68H452z"/>
		<path d="M474.4,384.1c-1.6-1.4-2.4-3.4-2.4-5.7V40c0-22.1-17.9-40-40-40s-40,17.9-40,40v338.4c0,2.2-0.9,4.4-2.5,5.8
			c-16.9,15-24.5,37.4-20.3,59.9c4.7,25.4,24.8,45.7,50.1,50.6c4.2,0.8,8.4,1.2,12.6,1.2c14.9,0,29.2-5.1,40.8-14.6
			c14.8-12.2,23.3-30.2,23.3-49.4C496,413.7,488.1,396.3,474.4,384.1z M408,40c0-13.2,10.8-24,24-24s24,10.8,24,24v8h-32v16h32v16
			h-16v16h16v16h-48V40z M462.5,469.1c-11.1,9.2-25.8,12.8-40.2,10c-18.9-3.7-33.9-18.9-37.4-37.8c-3.1-16.9,2.6-33.8,15.2-45.1
			c5-4.5,7.9-10.9,7.9-17.7V128h48v16h-16v16h16v16h-32v16h32v16h-16v16h16v16h-32v16h32v16h-16v16h16v16h-32v16h32v16h-16v16h16
			v26.4c0,6.8,2.8,13.3,7.8,17.7c10.3,9.1,16.2,22.2,16.2,35.9C480,446.4,473.6,459.9,462.5,469.1z"/>
	</g>
</g>
<g>
	<g>
		<path d="M196.7,82.3l13.2-13.2c1.4-1.4,2.1-3.2,2.1-5.2s-0.8-3.8-2.1-5.2l-4.7-4.7c-5.9-5.9-9.2-13.8-9.2-22.1
			c0-8.4,3.3-16.2,9.2-22.1l13.2-13.2l17,17l-13.2,13.2c-1.4,1.4-2.1,3.2-2.1,5.2s0.8,3.8,2.1,5.2l4.7,4.7
			c5.9,5.9,9.2,13.8,9.2,22.1c0,8.4-3.3,16.2-9.2,22.1l-13.2,13.2L196.7,82.3z"/>
		<path d="M224,44.7l-4.7-4.7c-2.1-2.1-3.3-5-3.3-8s1.2-5.9,3.3-8l10.3-10.3L218.3,2.3L208,12.7c-5.2,5.2-8,12-8,19.3
			s2.8,14.2,8,19.3l4.7,4.7c2.1,2.1,3.3,5,3.3,8s-1.2,5.9-3.3,8l-10.3,10.3l11.3,11.3L224,83.3c5.2-5.2,8-12,8-19.3
			S229.2,49.8,224,44.7z"/>
	</g>
</g>
<g>
	<g>
		<path d="M140.7,82.3l13.2-13.2c1.4-1.4,2.1-3.2,2.1-5.2s-0.8-3.8-2.1-5.2l-4.7-4.7c-5.9-5.9-9.2-13.8-9.2-22.1
			c0-8.4,3.3-16.2,9.2-22.1l13.2-13.2l17,17l-13.2,13.2c-1.4,1.4-2.1,3.2-2.1,5.2s0.8,3.8,2.1,5.2l4.7,4.7
			c5.9,5.9,9.2,13.8,9.2,22.1c0,8.4-3.3,16.2-9.2,22.1l-13.2,13.2L140.7,82.3z"/>
		<path d="M168,44.7l-4.7-4.7c-2.1-2.1-3.3-5-3.3-8s1.2-5.9,3.3-8l10.3-10.3L162.3,2.3L152,12.7c-5.2,5.2-8,12-8,19.3
			s2.8,14.2,8,19.3l4.7,4.7c2.1,2.1,3.3,5,3.3,8s-1.2,5.9-3.3,8l-10.3,10.3l11.3,11.3L168,83.3c5.2-5.2,8-12,8-19.3
			S173.2,49.8,168,44.7z"/>
	</g>
</g>
<g>
	<g>
		<path d="M252.7,82.3l13.2-13.2c1.4-1.4,2.1-3.2,2.1-5.2s-0.8-3.8-2.1-5.2l-4.7-4.7c-5.9-5.9-9.2-13.8-9.2-22.1
			c0-8.4,3.3-16.2,9.2-22.1l13.2-13.2l17,17l-13.2,13.2c-1.4,1.4-2.1,3.2-2.1,5.2s0.8,3.8,2.1,5.2l4.7,4.7
			c5.9,5.9,9.2,13.8,9.2,22.1c0,8.4-3.3,16.2-9.2,22.1l-13.2,13.2L252.7,82.3z"/>
		<path d="M280,44.7l-4.7-4.7c-2.1-2.1-3.3-5-3.3-8s1.2-5.9,3.3-8l10.3-10.3L274.3,2.3L264,12.7c-5.2,5.2-8,12-8,19.3
			s2.8,14.2,8,19.3l4.7,4.7c2.1,2.1,3.3,5,3.3,8s-1.2,5.9-3.3,8l-10.3,10.3l11.3,11.3L280,83.3c5.2-5.2,8-12,8-19.3
			S285.2,49.8,280,44.7z"/>
	</g>
</g>
<g>
	<g>
		<path d="M428,468v-24h4c6.6,0,12-5.4,12-12v-4h24v4c0,19.9-16.1,36-36,36H428z"/>
		<path d="M448,432c0,8.8-7.2,16-16,16v16c17.6,0,32-14.4,32-32H448z"/>
	</g>
</g>
<g>
	<g>
		<path d="M132,500v-53.5l-12.4,6.7c-8.2,4.4-17.5,6.8-26.9,6.8C61.4,460,36,434.6,36,403.3c0-29.9-11.6-57.9-32.7-79.1l-3.7-3.7
			c-2.2-2.2-3.5-5.3-3.5-8.5c0-3.2,1.3-6.3,3.5-8.5c19.5-19.5,34-43.8,42-70.3l3.6-12C65.4,153.5,126.5,108,197.2,108
			c87.6,0,158.8,71.2,158.8,158.8v5.5c0,33.8-10.5,66.1-30.4,93.4l-23.7,32.6c-6.5,9-9.9,19.5-9.9,30.6V500H132z M268,476v-47.2
			c0-16.2,5-31.6,14.5-44.7l23.7-32.6c16.9-23.2,25.8-50.6,25.8-79.3v-5.5c0-74.3-60.5-134.8-134.8-134.8
			c-60,0-111.9,38.6-129.1,96.1l-3.6,12c-7.9,26.3-21.7,51.1-39.9,71.7c22.9,25,35.4,57.4,35.4,91.4c0,18,14.7,32.7,32.7,32.7
			c5.4,0,10.8-1.4,15.5-3.9l97.6-52.6l11.4,21.1l-61.2,33V476H268z"/>
		<path d="M197.2,112C128.3,112,68.7,156.3,49,222.3l-3.6,12c-8.1,27.1-23,52-43,72C0.8,307.8,0,309.9,0,312s0.8,4.2,2.3,5.7
			l3.7,3.7C28,343.3,40,372.3,40,403.3c0,29.1,23.7,52.7,52.7,52.7c8.7,0,17.3-2.2,25-6.3l18.3-9.8V496h152v-8v-8v-51.2
			c0-11.9,3.7-23.3,10.7-32.9l23.7-32.6c19.4-26.6,29.6-58.1,29.6-91v-5.5C352,181.4,282.6,112,197.2,112z M336,272.3
			c0,29.5-9.2,57.8-26.5,81.6l-23.7,32.6c-9,12.4-13.8,27-13.8,42.4V480H152v-48.8l59.8-32.2l-7.6-14.1l-94.1,50.7
			c-5.3,2.9-11.3,4.4-17.4,4.4C72.5,440,56,423.5,56,403.3c0-34.4-13.1-66.7-36.8-91.4C38.3,291.1,52.5,266,60.7,239l3.6-12
			C82,167.8,135.4,128,197.2,128c76.5,0,138.8,62.3,138.8,138.8V272.3z"/>
	</g>
</g>
</svg>
