<?xml version="1.0" encoding="utf-8"?>
<!-- Generator: Adobe Illustrator 25.2.3, SVG Export Plug-In . SVG Version: 6.00 Build 0)  -->
<svg version="1.1" id="Capa_1" xmlns="http://www.w3.org/2000/svg" xmlns:xlink="http://www.w3.org/1999/xlink" x="0px" y="0px"
	 viewBox="0 0 512 512" style="enable-background:new 0 0 512 512;" xml:space="preserve">
<g>
	<circle cx="165" cy="285" r="22"/>
	<circle fill="#33D399" cx="165" cy="285" r="15"/>
	<path d="M210,277c-12.1,0-22-9.9-22-22c0-12.1,9.9-22,22-22s22,9.9,22,22C232,267.1,222.1,277,210,277z"/>
	<circle fill="#33D399" cx="210" cy="255" r="15"/>
	<circle cx="210" cy="315" r="22"/>
	<circle fill="#33D399" cx="210" cy="315" r="15"/>
	<path d="M454.6,519c-5.9,0-11.4-2.3-15.6-6.4L335.2,408.7c-4.2-4.2-6.4-9.7-6.4-15.6c0-5.9,2.3-11.4,6.4-15.6l5.7-5.7l-19.5-19.5
		C285.6,381.2,241,397,195,397C83.6,397-7,306.4-7,195C-7,83.6,83.6-7,195-7c111.4,0,202,90.6,202,202c0,46-15.8,90.6-44.5,126.4
		l19.5,19.5l5.7-5.7c4.2-4.2,9.7-6.4,15.6-6.4c5.9,0,11.4,2.3,15.6,6.4L512.6,439c8.6,8.6,8.6,22.5,0,31.1l-42.4,42.4
		C466,516.7,460.5,519,454.6,519z M454.6,465.9l11.3-11.3l-72.7-72.7l-11.3,11.3L454.6,465.9z M142,343.9c17,6.1,34.8,9.1,53,9.1
		c18.2,0,36-3.1,53-9.1V255c0-12.1,9.9-22,22-22h78.4c1.3-5.3,2.3-10.6,3.1-16H38.5c0.8,5.4,1.8,10.8,3.1,16H120
		c12.1,0,22,9.9,22,22V343.9z M292,319.6c15.1-11.8,28-26.3,38-42.6h-38V319.6z M60,277c10,16.4,22.9,30.8,38,42.6V277H60z
		 M351.5,173c-5.1-36.1-22.5-69.4-49.7-94.3C272.6,51.8,234.6,37,195,37S117.4,51.8,88.2,78.7c-27.2,25-44.6,58.2-49.7,94.3H351.5z"
		/>
	<path fill="#6CD4E5" d="M390,195C390,87.5,302.5,0,195,0S0,87.5,0,195c0,107.3,87.3,195,195,195c48.4,0,92.7-17.7,126.8-47l29,29
		l-10.6,10.6c-5.9,5.9-5.9,15.4,0,21.2L444,507.6c5.9,5.9,15.4,5.9,21.2,0l42.4-42.4c5.9-5.9,5.9-15.4,0-21.2L403.8,340.2
		c-5.9-5.9-15.4-5.9-21.2,0L372,350.8l-29-29C373.2,286.7,390,242,390,195z M393.2,372l82.6,82.6l-21.2,21.2L372,393.2
		C378,387.2,387,378.2,393.2,372z M105,333.2c-24.1-15.7-43.8-37.5-57-63.2h57V333.2z M285,333.2V270h56.9
		C328.8,295.7,309.1,317.5,285,333.2z M353.8,240H270c-8.3,0-15,6.7-15,15v93.7c-18.6,7.3-38.9,11.3-60,11.3s-41.4-4-60-11.3V255
		c0-8.3-6.7-15-15-15H36.2c-2.7-9.7-4.6-19.7-5.5-30h328.6C358.4,220.3,356.5,230.3,353.8,240L353.8,240z M195,180H30.7
		C38.3,96,109.1,30,195,30s156.7,66,164.3,150H195z"/>
	<path d="M195,187c-36.9,0-67-30.1-67-67s30.1-67,67-67s67,30.1,67,67S231.9,187,195,187z M195,97c-12.7,0-23,10.3-23,23
		s10.3,23,23,23s23-10.3,23-23S207.7,97,195,97z"/>
	<path fill="#D6C7F9" d="M255,120c0-33.1-26.9-60-60-60s-60,26.9-60,60s26.9,60,60,60S255,153.1,255,120z M195,150
		c-16.5,0-30-13.5-30-30s13.5-30,30-30s30,13.5,30,30S211.5,150,195,150z"/>
	<path fill="#D6C7F9" d="M29.6,195.1c0,36.3,11.9,69.8,31.9,96.9c-4.9-6.7-9.2-13.8-13.1-21.3h57v62.3c9.4,6,19.4,11.1,30,15.1v-92.5
		c0-8.3-6.7-15-15-15H36.7c-2.7-9.7-4.6-19.7-5.5-30h328.4c0.5-5.2,0.8-10.4,0.8-15.7c0-4.8-0.2-9.6-0.6-14.3H195.5H31.2"/>
	<path fill="#D6C7F9" d="M340.7,270.8c5-9.5,9.1-19.5,12.1-30h-83.3c-8.3,0-15,6.7-15,15v92.1c10.6-4.1,20.6-9.3,30-15.4v-61.7H340.7z"
		/>
</g>
</svg>
