<?xml version="1.0" encoding="utf-8"?>
<!-- Generator: Adobe Illustrator 24.1.3, SVG Export Plug-In . SVG Version: 6.00 Build 0)  -->
<svg version="1.1" id="Capa_1" xmlns="http://www.w3.org/2000/svg" xmlns:xlink="http://www.w3.org/1999/xlink" x="0px" y="0px"
	 viewBox="0 0 512 512" style="enable-background:new 0 0 512 512;" xml:space="preserve">
<g>
	<g>
		<path style="fill:#FFFFFF;" d="M456.3,135.6H292.9c-27,0-46.6,0-72.8,0H56.7c-4.7,0-8.4,4-8,8.7l0.6,6.5c0.9,9.8,8.8,17.4,18.6,18l129.9,7.8
			c0,9.1-0.6-4.4,4.5,94.5l-5.1,200.9l-28.5,21.2c-1.7,1.3-2.7,3.3-2.7,5.4c0,3.7,3,6.8,6.8,6.8h50.8c6.4,0,11.6-5.2,11.6-11.6
			v-18.8l19-146.5c0.3-2.3,3.6-2.3,3.9,0l19.1,147v18.4c0,6.4,5.2,11.6,11.6,11.6h50.8c3.7,0,6.8-3,6.8-6.8c0-2.1-1-4.2-2.7-5.4
			l-28.5-21.2l-0.1,0L310,271.2c5-98.8,4.5-85.4,4.5-94.4l130.6-7.9c9.8-0.6,17.7-8.2,18.6-18l0.6-6.5
			C464.7,139.7,461,135.6,456.3,135.6L456.3,135.6z"/>
	</g>
</g>
<g>
	<g>
		<path style="fill:#4671C6;" d="M310.6,295H201.7l-4.4,173h38.8l18.1-139.5c0.3-2.3,3.6-2.3,3.9,0L276.2,468h38.8L310.6,295z"/>
	</g>
</g>
<g>
	<g>
		<path style="fill:#6CD4E5;" d="M382.1,135.6h-89.2c-27,0-46.6,0-72.8,0h-85.4v37.3l63.1,3.8c0,9.1-0.6-4.4,4.5,94.5l-0.7,26.8h109l-0.7-26.8
			c5-98.8,4.5-85.4,4.5-94.4l67.7-4.1L382.1,135.6L382.1,135.6z"/>
	</g>
</g>
<g>
	<g>
		<path style="fill:#FFFFFF;" d="M256.8,161.9c-12.8,0-23.3-10.4-23.3-23.3V95.5h46.5v43.1C280.1,151.5,269.7,161.9,256.8,161.9z"/>
	</g>
</g>
<g>
	<g>
		<path style="fill:#D6C7F9;" d="M310.6,295H201.7l-4.4,173h38.8l18.1-139.5c0.3-2.3,3.6-2.3,3.9,0L276.2,468h38.8L310.6,295z"/>
	</g>
</g>
<g>
	<g>
		<path d="M339.6,509.5h-50.8c-8.6,0-15.6-7-15.6-15.6v-18.1l-17-131.1l-16.9,130.7v18.5c0,8.6-7,15.6-15.6,15.6h-50.8
			c-5.9,0-10.8-4.8-10.8-10.8c0-3.4,1.6-6.6,4.3-8.6l27-20l5-198.8l-2.6-50.3c-1.7-32.8-1.9-37.2-1.9-40.5l-126.1-7.6
			c-11.6-0.7-21.3-9.7-22.3-21.7l-0.6-6.5c-0.3-3.4,0.8-6.7,3.1-9.2c2.3-2.5,5.5-3.9,8.9-3.9h172.9V95.5c0-2.2,1.8-4,4-4h46.5
			c2.2,0,4,1.8,4,4v36.1h172.2c3.4,0,6.6,1.4,8.9,3.9s3.4,5.8,3.1,9.2l-0.6,6.5c-1.1,12-10.8,21-22.4,21.7l-126.8,7.6
			c0,3.2-0.2,7.8-1.9,40.4l-2.6,50.3l5,198.8l27,20.1c2.7,2,4.3,5.3,4.3,8.6C350.4,504.7,345.5,509.5,339.6,509.5L339.6,509.5z
			 M256.1,322.8c3,0,5.5,2.2,5.9,5.2l19.1,147c0,0.2,0,0.3,0,0.5v18.4c0,4.2,3.4,7.6,7.6,7.6h50.8c1.5,0,2.8-1.2,2.8-2.8
			c0-0.9-0.4-1.7-1.1-2.2l-28.3-21c-0.2-0.1-0.4-0.3-0.6-0.5c-0.8-0.7-1.3-1.8-1.3-2.9L306,271.3c0-0.1,0-0.2,0-0.3l2.6-50.5
			c1.9-37.7,1.9-37.7,1.9-41.5l0-2.3c0-2.1,1.6-3.9,3.8-4l130.6-7.9c7.6-0.5,14.1-6.4,14.9-14.4l0.6-6.5c0.1-1.1-0.3-2.2-1-3.1
			c-0.8-0.8-1.8-1.3-3-1.3H280.1c-2.2,0-4-1.8-4-4V99.5h-38.5v36.1c0,2.2-1.8,4-4,4H56.7c-1.1,0-2.2,0.5-3,1.3
			c-0.8,0.8-1.1,1.9-1,3.1l0.6,6.5c0.7,8,7.2,13.9,14.9,14.4l129.9,7.8c2.1,0.1,3.8,1.9,3.8,4c0,6.6-0.2,2.3,1.9,43.8l2.6,50.5
			c0,0.1,0,0.2,0,0.3l-5.1,200.9c0,1.2-0.6,2.4-1.6,3.1l-28.5,21.2c-0.7,0.5-1.1,1.3-1.1,2.2c0,1.5,1.2,2.8,2.8,2.8h50.8
			c4.2,0,7.6-3.4,7.6-7.6v-18.8c0-0.2,0-0.3,0-0.5l19-146.5C250.6,325,253.1,322.9,256.1,322.8L256.1,322.8z"/>
	</g>
</g>
<g>
	<g>
		<path d="M256.8,117.2c-29,0-52.5-23.5-52.5-52.5v-22c0-7.3,5.9-13.2,13.2-13.2h91.8v35.2C309.3,93.7,285.8,117.1,256.8,117.2z"/>
	</g>
</g>
<g>
	<g>
		<path d="M258.5,129.7c-31.1,0-56.5-25.3-56.5-56.5v-22c0-9.5,7.7-17.2,17.2-17.2H311c2.2,0,4,1.8,4,4v35.2
			C315,104.3,289.6,129.7,258.5,129.7z M219.2,42c-5.1,0-9.2,4.1-9.2,9.2v22c0,26.7,21.7,48.5,48.5,48.5S307,99.9,307,73.2V42H219.2
			z"/>
	</g>
</g>
<g>
	<g>
		<path style="fill:#FFCAA6;" d="M301.5,68.2V64c0-24.5-20-44.3-44.7-44.3c-24.7,0-44.7,19.8-44.7,44.3v4.2c-7.8-0.2-13.9,6-13.9,13.5
			c0,8,7,14.3,15.1,13.4c4.6,19.6,22.3,34.2,43.5,34.2c21.2,0,38.9-14.6,43.5-34.2c8.1,0.9,15.1-5.4,15.1-13.4
			C315.5,74.2,309.3,68.1,301.5,68.2L301.5,68.2z"/>
	</g>
</g>
<g>
	<g>
		<path d="M256.8,133.3c-21.7,0-40.4-13.9-46.6-34.2c-3.8-0.3-7.4-1.9-10.2-4.5c-3.7-3.3-5.8-8-5.8-13c0-4.7,1.9-9.2,5.3-12.5
			c2.4-2.4,5.4-4,8.7-4.7c0-28.2,22.7-48.9,48.7-48.9c26,0,48.7,20.6,48.7,48.9c3.3,0.7,6.2,2.3,8.7,4.7c3.4,3.3,5.3,7.7,5.3,12.5
			c0,4.9-2.1,9.7-5.8,13c-2.9,2.6-6.5,4.1-10.2,4.5C297.2,119.4,278.5,133.3,256.8,133.3L256.8,133.3z M217.2,94.2
			c4.3,18.3,20.6,31.1,39.6,31.1c19,0,35.3-12.8,39.6-31.1c0.5-2,2.3-3.3,4.3-3.1c2.8,0.3,5.5-0.6,7.5-2.4c2-1.8,3.1-4.3,3.1-7
			c0-2.6-1-5-2.9-6.8c-1.9-1.8-4.3-2.8-7-2.7c-1.1,0-2.1-0.4-2.9-1.1s-1.2-1.8-1.2-2.9V64c0-22.2-18.3-40.3-40.7-40.3
			S216.2,41.8,216.2,64v4.2c0,1.1-0.4,2.1-1.2,2.9c-0.8,0.8-1.8,1.2-2.9,1.1c-2.7,0-5.1,0.9-7,2.7c-1.8,1.8-2.9,4.2-2.9,6.8
			c0,2.7,1.1,5.2,3.1,7c2.1,1.9,4.7,2.7,7.5,2.4C214.9,91,216.8,92.3,217.2,94.2L217.2,94.2z"/>
	</g>
</g>
<g>
	<g>
		<path d="M309.3,59.6h-70.1c-14.9,0-27.1-12.1-27.1-27.1s12.1-27.1,27.1-27.1h45.9c13.4,0,24.2,10.8,24.2,24.2V59.6z"/>
	</g>
</g>
<g>
	<g>
		<path d="M309.3,63.6h-70.1c-17.1,0-31.1-13.9-31.1-31c0-17.1,13.9-31.1,31.1-31.1h45.9c15.6,0,28.2,12.7,28.2,28.2v29.9
			C313.3,61.8,311.5,63.6,309.3,63.6z M239.2,9.5c-12.7,0-23.1,10.3-23.1,23.1c0,12.7,10.3,23,23.1,23h66.1V29.7
			c0-11.2-9.1-20.2-20.2-20.2L239.2,9.5z"/>
	</g>
</g>
<g>
	<g>
		<path style="fill:#FF0000;" d="M285.7,63.7c-17.1,0-31.1-14-31.1-31.1s14-31.1,31.1-31.1s31.1,14,31.1,31.1S302.8,63.7,285.7,63.7z
			 M285.7,11.5c-11.6,0-21.1,9.5-21.1,21.1s9.5,21.1,21.1,21.1s21.1-9.5,21.1-21.1S297.3,11.5,285.7,11.5z"/>
	</g>
</g>
<g>
	<g>
		<circle style="fill:#FF0000;" cx="285.7" cy="32.6" r="11.7"/>
	</g>
</g>
<g>
	<g>
		<path style="fill:#FF0000;" d="M205.1,284.6c-17.1,0-31.1-14-31.1-31.1s14-31.1,31.1-31.1s31.1,14,31.1,31.1S222.3,284.6,205.1,284.6z
			 M205.1,232.4c-11.6,0-21.1,9.5-21.1,21.1c0,11.6,9.5,21.1,21.1,21.1c11.6,0,21.1-9.5,21.1-21.1
			C226.2,241.8,216.8,232.4,205.1,232.4L205.1,232.4z"/>
	</g>
</g>
<g>
	<g>
		<circle style="fill:#FF0000;" cx="205.1" cy="253.5" r="11.7"/>
	</g>
</g>
<g>
	<g>
		<path style="fill:#FF0000;" d="M256.8,192.8c-17.1,0-31.1-14-31.1-31.1s14-31.1,31.1-31.1s31.1,14,31.1,31.1S274,192.8,256.8,192.8z
			 M256.8,140.6c-11.6,0-21.1,9.5-21.1,21.1s9.5,21.1,21.1,21.1c11.6,0,21.1-9.5,21.1-21.1S268.5,140.6,256.8,140.6z"/>
	</g>
</g>
<g>
	<g>
		
			<ellipse transform="matrix(0.1602 -0.9871 0.9871 0.1602 56.1036 389.3179)" style="fill:#FF0000;" cx="256.8" cy="161.7" rx="11.7" ry="11.7"/>
	</g>
</g>
<g>
	<g>
		<path style="fill:#FF0000;" d="M310.7,412.6c-17.1,0-31.1-14-31.1-31.1s14-31.1,31.1-31.1s31.1,14,31.1,31.1S327.8,412.6,310.7,412.6z
			 M310.7,360.4c-11.6,0-21.1,9.5-21.1,21.1s9.5,21.1,21.1,21.1s21.1-9.5,21.1-21.1S322.3,360.4,310.7,360.4z"/>
	</g>
</g>
<g>
	<g>
		<circle style="fill:#FF0000;" cx="310.7" cy="381.5" r="11.7"/>
	</g>
</g>
</svg>
