<?xml version="1.0" encoding="utf-8"?>
<!-- Generator: Adobe Illustrator 26.0.3, SVG Export Plug-In . SVG Version: 6.00 Build 0)  -->
<svg version="1.1" id="Layer_1" xmlns="http://www.w3.org/2000/svg" xmlns:xlink="http://www.w3.org/1999/xlink" x="0px" y="0px"
	 viewBox="0 0 879.1 768.7" style="enable-background:new 0 0 879.1 768.7;" xml:space="preserve">
<style type="text/css">
	.st0{fill:#686868;}
</style>
<g id="hkTXql_00000146488883773535216870000014422720938820552363_">
	<g>
		<path class="st0" d="M447.9,86c118.6,0,237.2,0,355.7,0c41.9,0,55.8,14,55.8,56c0,160.1,0,320.1,0,480.2c0,41-15,56.1-56.3,56.2
			c-105,0.1-209.9,0.1-314.9-0.1c-9.2,0-22.7,4.2-26.1-6.7c-4.7-15.2-5.2-32.5,0.7-47.6c3-7.6,14-4.7,21.5-4.7
			c95.9-0.1,191.8-0.1,287.7-0.1c30.1,0,30.1,0,30.1-31c0-139.3-0.4-278.6,0.4-418c0.1-19.8-6-25.4-25.5-25.3
			c-219.7,0.6-439.3,0.6-659,0c-19.6-0.1-26.7,5.7-25.3,25.5c1.5,20.6-0.6,41.5,0.6,62.2c1,17.6-6.5,23.6-22.8,22
			c-0.6-0.1-1.3,0-1.9,0c-32.8,0.5-32.8,0.5-32.8-33c0-28.5-0.1-57,0-85.5c0.2-33.9,16-49.8,50.2-49.8C206.8,85.9,327.4,86,447.9,86
			z"/>
		<path class="st0" d="M36.1,347.9c0-29.7,0-29.7,30.5-28.3c152.1,6.9,294,134,321.8,288.5c2.9,15.9,4.3,32,6.6,48
			c2.3,15.8-4.2,23.4-20.4,22.2c-1.3-0.1-2.6,0-3.9,0c-33.9,0.1-33.2,0.7-35.9-31.2C323,507.1,210.1,393.9,70.3,379.2
			c-2.6-0.3-5.2-0.5-7.7-0.9C36.1,374.8,36.1,374.8,36.1,347.9z"/>
		<path class="st0" d="M36.1,473.5c0-33.8,0-33.8,30.4-30c107.3,13.3,191.7,98.5,204.5,206.3c3,25.6,0.6,28.7-24.6,28.6
			c-27.3-0.1-32.3,3.8-35.7-30.6c-7.2-72.3-71.6-135.4-148.8-145.6C39.1,499.1,32.1,491.1,36.1,473.5z"/>
		<path class="st0" d="M36.1,620.2c0-12.9,0.4-25.9-0.1-38.8c-0.6-14.4,6.3-17.7,19.3-15.8c43.8,6.4,84.3,45.9,91.6,89.2
			c2.8,16.6-2.1,24.2-19.9,23.7c-24.6-0.8-49.1-0.4-73.7-0.2c-11.8,0.1-18-4.5-17.4-17.3C36.6,647.4,36.1,633.8,36.1,620.2z"/>
	</g>
</g>
</svg>
