<?xml version="1.0" encoding="utf-8"?>
<!-- Generator: Adobe Illustrator 25.2.3, SVG Export Plug-In . SVG Version: 6.00 Build 0)  -->
<svg version="1.1" id="Capa_1" xmlns="http://www.w3.org/2000/svg" xmlns:xlink="http://www.w3.org/1999/xlink" x="0px" y="0px"
	 viewBox="0 0 512 512" style="enable-background:new 0 0 512 512;" xml:space="preserve">
<g>
	<g>
		<g>
			<path fill="#F9F6F9" d="M78.6,447.8v2.6c0,29.9,24.2,54.1,54.1,54.1h305.8c29.9,0,54.1-24.2,54.1-54.1V61.6
				c0-29.9-24.2-54.1-54.1-54.1H132.7c-29.9,0-54.1,24.2-54.1,54.1v28.2v18.5"/>
			<path fill="#DDDAEC" d="M105.8,450.4v-2.6V108.3V89.8V61.6c0-29.9,24.2-54.1,54.1-54.1h-27.2c-29.9,0-54.1,24.2-54.1,54.1v28.2v18.5
				v339.5v2.6c0,29.9,24.2,54.1,54.1,54.1h27.2C130,504.5,105.8,480.3,105.8,450.4z"/>
			<g>
				<path fill="#6CD4E5" d="M78.6,89.8H58.7c-5.1,0-9.3,4.2-9.3,9.3c0,5.1,4.2,9.3,9.3,9.3H95c5.1,0,9.3-4.2,9.3-9.3
					c0-8.3,6.7-15,15-15s15,6.7,15,15c0,21.6-17.6,39.3-39.3,39.3H58.7c-21.6,0-39.3-17.6-39.3-39.3S37,59.8,58.7,59.8h19.9"/>
				<path fill="#6CD4E5" d="M78.6,193H58.7c-5.1,0-9.3,4.2-9.3,9.3s4.2,9.3,9.3,9.3H95c5.1,0,9.3-4.2,9.3-9.3c0-8.3,6.7-15,15-15
					s15,6.7,15,15c0,21.6-17.6,39.3-39.3,39.3H58.7c-21.6,0-39.3-17.6-39.3-39.3S37,163,58.7,163h19.9"/>
				<path fill="#6CD4E5" d="M78.6,296.1H58.7c-5.1,0-9.3,4.2-9.3,9.3s4.2,9.3,9.3,9.3H95c5.1,0,9.3-4.2,9.3-9.3c0-8.3,6.7-15,15-15
					s15,6.7,15,15c0,21.6-17.6,39.3-39.3,39.3H58.7c-21.6,0-39.3-17.6-39.3-39.3c0-21.6,17.6-39.3,39.3-39.3h19.9"/>
				<path fill="#6CD4E5" d="M78.6,399.3H58.7c-5.1,0-9.3,4.2-9.3,9.3c0,5.1,4.2,9.3,9.3,9.3H95c5.1,0,9.3-4.2,9.3-9.3
					c0-8.3,6.7-15,15-15s15,6.7,15,15c0,21.6-17.6,39.3-39.3,39.3H58.7c-21.6,0-39.3-17.6-39.3-39.3c0-21.6,17.6-39.3,39.3-39.3
					h19.9"/>
			</g>
			<g>
				<path fill="#6DAAE2" d="M35.9,408.5c0,21.6,17.6,39.3,39.3,39.3H58.7c-21.6,0-39.3-17.6-39.3-39.3c0-21.6,17.6-39.3,39.3-39.3h16.5
					C53.5,369.3,35.9,386.9,35.9,408.5z"/>
				<path fill="#6DAAE2" d="M35.9,305.4c0,21.6,17.6,39.3,39.3,39.3H58.7c-21.6,0-39.3-17.6-39.3-39.3c0-21.6,17.6-39.3,39.3-39.3h16.5
					C53.5,266.1,35.9,283.7,35.9,305.4z"/>
				<path fill="#6DAAE2" d="M35.9,202.2c0,21.6,17.6,39.3,39.3,39.3H58.7c-21.6,0-39.3-17.6-39.3-39.3c0-21.6,17.6-39.3,39.3-39.3h16.5
					C53.5,163,35.9,180.6,35.9,202.2z"/>
				<path fill="#6DAAE2" d="M35.9,99.1c0,21.6,17.6,39.3,39.3,39.3H58.7c-21.6,0-39.3-17.6-39.3-39.3c0-21.6,17.6-39.3,39.3-39.3h16.5
					C53.5,59.8,35.9,77.4,35.9,99.1z"/>
			</g>
		</g>
	</g>
	<g>
		<path d="M438.5,0H132.7c-30.8,0-56.4,22.7-60.9,52.3H58.7c-19.1,0-36.1,11.5-43.3,29.2c-1.6,3.8,0.3,8.2,4.1,9.8
			c0.9,0.4,1.9,0.6,2.8,0.6c3,0,5.8-1.8,7-4.7c4.9-12.1,16.5-19.9,29.4-19.9h12.4v15H58.7c-9.2,0-16.8,7.5-16.8,16.8
			c0,9.2,7.5,16.8,16.8,16.8H95c9.2,0,16.8-7.5,16.8-16.8c0-4.1,3.4-7.5,7.5-7.5s7.5,3.4,7.5,7.5c0,17.5-14.2,31.8-31.8,31.8H58.7
			c-13,0-24.5-7.8-29.4-19.9c-1.6-3.8-5.9-5.7-9.8-4.1c-3.8,1.6-5.7,5.9-4.1,9.8c7.2,17.7,24.2,29.2,43.3,29.2h12.4v9.6H58.7
			c-25.8,0-46.8,21-46.8,46.8s21,46.8,46.8,46.8h12.4v9.6H58.7c-25.8,0-46.8,21-46.8,46.8s21,46.8,46.8,46.8h12.4v9.6H58.7
			c-25.8,0-46.8,21-46.8,46.8s21,46.8,46.8,46.8h12.6c2.5,31.7,29.1,56.7,61.4,56.7h305.8c34,0,61.6-27.6,61.6-61.6v-389
			C500.1,27.6,472.5,0,438.5,0L438.5,0z M56.9,99.1c0-1,0.8-1.8,1.8-1.8h12.4v3.5H58.7C57.7,100.8,56.9,100,56.9,99.1z M58.7,204
			c-1,0-1.8-0.8-1.8-1.8s0.8-1.8,1.8-1.8h12.4v3.5H58.7V204z M26.9,202.2c0-17.5,14.2-31.8,31.8-31.8h12.4v15H58.7
			c-9.2,0-16.8,7.5-16.8,16.8c0,9.2,7.5,16.8,16.8,16.8H95c9.2,0,16.8-7.5,16.8-16.8c0-4.1,3.4-7.5,7.5-7.5s7.5,3.4,7.5,7.5
			c0,17.5-14.2,31.8-31.8,31.8H58.7C41.2,234,26.9,219.7,26.9,202.2z M58.7,307.2c-1,0-1.8-0.8-1.8-1.8s0.8-1.8,1.8-1.8h12.4v3.5
			L58.7,307.2L58.7,307.2z M26.9,305.4c0-17.5,14.2-31.8,31.8-31.8h12.4v15H58.7c-9.2,0-16.8,7.5-16.8,16.8s7.5,16.8,16.8,16.8H95
			c9.2,0,16.8-7.5,16.8-16.8c0-4.1,3.4-7.5,7.5-7.5s7.5,3.4,7.5,7.5c0,17.5-14.2,31.8-31.8,31.8H58.7
			C41.2,337.2,26.9,322.9,26.9,305.4z M58.7,410.3c-1,0-1.8-0.8-1.8-1.8s0.8-1.8,1.8-1.8h12.4v3.5L58.7,410.3L58.7,410.3z
			 M26.9,408.5c0-17.5,14.2-31.8,31.8-31.8h12.4v15H58.7c-9.2,0-16.8,7.5-16.8,16.8s7.5,16.8,16.8,16.8H95c9.2,0,16.8-7.5,16.8-16.8
			c0-4.1,3.4-7.5,7.5-7.5s7.5,3.4,7.5,7.5c0,17.5-14.2,31.8-31.8,31.8H58.7C41.2,440.3,26.9,426.1,26.9,408.5z M485.1,450.4
			c0,25.7-20.9,46.6-46.6,46.6H132.7c-24,0-43.9-18.3-46.3-41.7H95c25.8,0,46.8-21,46.8-46.8c0-12.4-10.1-22.5-22.5-22.5
			s-22.5,10.1-22.5,22.5c0,1-0.8,1.8-1.8,1.8h-8.9v-58.2H95c25.8,0,46.8-21,46.8-46.8c0-12.4-10.1-22.5-22.5-22.5
			S96.7,293,96.7,305.4c0,1-0.8,1.8-1.8,1.8H86V249h9c25.8,0,46.8-21,46.8-46.8c0-12.4-10.1-22.5-22.5-22.5s-22.5,10.1-22.5,22.5
			c0,1-0.8,1.8-1.8,1.8h-8.9v-58.2H95c25.8,0,46.8-21,46.8-46.8c0-12.4-10.1-22.5-22.5-22.5S96.8,86.6,96.8,99c0,1-0.8,1.8-1.8,1.8
			h-8.9V61.6C86.1,35.9,107,15,132.7,15h305.8c25.7,0,46.6,20.9,46.6,46.6V450.4L485.1,450.4z"/>
		<path d="M218.8,186.9c0.9,0.3,1.8,0.5,2.7,0.5c3,0,5.9-1.8,7-4.8l2.8-7.2h19.3l2.7,7.2c1.5,3.9,5.8,5.8,9.7,4.4
			c3.9-1.5,5.8-5.8,4.4-9.7l-18.3-48.5c0-0.1-0.1-0.1-0.1-0.2c-1.3-3.2-4.5-5.3-8-5.3l0,0c-3.5,0-6.6,2.1-8,5.4c0,0.1,0,0.1-0.1,0.2
			l-18.5,48.5C213,181.1,215,185.4,218.8,186.9z M244.9,160.3H237l4-10.5L244.9,160.3z"/>
		<path d="M418.8,128.8c0-0.1-0.1-0.1-0.1-0.2c-1.3-3.2-4.5-5.3-8-5.3l0,0c-3.5,0-6.6,2.1-8,5.4c0,0.1,0,0.1-0.1,0.2l-18.5,48.5
			c-1.5,3.9,0.5,8.2,4.3,9.7c0.9,0.3,1.8,0.5,2.7,0.5c3,0,5.9-1.8,7-4.8l2.8-7.2h19.3l2.7,7.2c1.5,3.9,5.8,5.8,9.7,4.4
			c3.9-1.5,5.8-5.8,4.4-9.7L418.8,128.8z M406.8,160.3l4-10.5l3.9,10.5H406.8z"/>
		<path d="M280.7,187.4c4.1,0,7.5-3.4,7.5-7.5v-25l19.5,28.3c2.2,3.1,5.8,4.4,9.2,3.3c3.5-1.1,5.7-4.3,5.7-8.3l-0.5-47.5
			c0-4.1-3.4-7.4-7.5-7.4c0,0,0,0-0.1,0c-4.1,0-7.5,3.4-7.4,7.6l0.2,25.5l-20.6-29.8c-1.9-2.7-5.3-3.9-8.4-2.9s-5.3,3.9-5.3,7.2V180
			C273.2,184,276.5,187.4,280.7,187.4L280.7,187.4z"/>
		<path d="M167.6,181.5c1.2,3.5,4.5,5.9,8.2,5.9l0,0c3.7,0,7-2.4,8.1-6c0-0.1,0.1-0.2,0.1-0.3l6.2-21.7l4.1,21.5
			c0.8,4.1,4.7,6.7,8.8,6c4.1-0.8,6.7-4.7,6-8.8l-9.2-48c-0.8-3.8-4-6.7-8-6.9c-3.9-0.2-7.5,2.2-8.7,5.9c0,0.1-0.1,0.2-0.1,0.3
			l-7.5,26.4l-7.8-26.5c0-0.1-0.1-0.2-0.1-0.3c-1.2-3.7-4.8-6.1-8.7-5.9c-3.9,0.3-7.1,3.1-7.9,7l-8.6,47.9c-0.7,4.1,2,8,6,8.7
			c4.1,0.7,8-2,8.7-6l3.8-21.3l6.4,21.7C167.5,181.3,167.6,181.4,167.6,181.5L167.6,181.5z"/>
		<path d="M466.1,172.3c-3.3,0-6.7,0-9.7,0v-41.7c0-4.1-3.4-7.5-7.5-7.5s-7.5,3.4-7.5,7.5v49.1c0,3.7,2.6,6.8,6.2,7.4
			c0.5,0.1,0.9,0.2,6.4,0.2c2.7,0,6.5,0,12.1,0c4.1,0,7.5-3.4,7.5-7.5S470.2,172.4,466.1,172.3z"/>
		<path d="M342.8,183.6c3.9,2.5,8.3,3.8,13.1,3.8l0,0c4.1,0,8-0.9,11.5-2.7c8.6-4.3,13.4-11.5,13.4-20.2v-33.8
			c0-4.1-3.4-7.5-7.5-7.5s-7.5,3.4-7.5,7.5v33.8c0,2.1-0.6,4.5-5.1,6.8c-1.4,0.7-3,1.1-4.7,1.1l0,0c-1.9,0-3.6-0.5-5-1.4
			c-3.6-2.3-4.3-4.1-4.3-6.4v-33.8c0-4.1-3.4-7.5-7.5-7.5s-7.5,3.4-7.5,7.5v33.8C331.7,172.5,335.4,178.9,342.8,183.6z"/>
		<path fill="#D5C6F8" d="M420.7,245.3H170.5c-4.1,0-7.5,3.4-7.5,7.5c0,4.1,3.4,7.5,7.5,7.5h250.2c4.1,0,7.5-3.4,7.5-7.5
			C428.2,248.7,424.8,245.3,420.7,245.3z"/>
		<path fill="#D5C6F8" d="M420.7,282.9H170.5c-4.1,0-7.5,3.4-7.5,7.5s3.4,7.5,7.5,7.5h250.2c4.1,0,7.5-3.4,7.5-7.5
			C428.2,286.2,424.8,282.9,420.7,282.9z"/>
		<path fill="#D5C6F8" d="M420.7,320.4h-42.2c-4.1,0-7.5,3.4-7.5,7.5s3.4,7.5,7.5,7.5h42.2c4.1,0,7.5-3.4,7.5-7.5
			S424.8,320.4,420.7,320.4z"/>
		<path fill="#D5C6F8" d="M170.5,335.4h178c4.1,0,7.5-3.4,7.5-7.5s-3.4-7.5-7.5-7.5h-178c-4.1,0-7.5,3.4-7.5,7.5
			C163,332.1,166.3,335.4,170.5,335.4z"/>
		<path fill="#D5C6F8" d="M420.7,358H170.5c-4.1,0-7.5,3.4-7.5,7.5s3.4,7.5,7.5,7.5h250.2c4.1,0,7.5-3.4,7.5-7.5S424.8,358,420.7,358z"
			/>
		<path fill="#D5C6F8" d="M420.7,395.6H170.5c-4.1,0-7.5,3.4-7.5,7.5s3.4,7.5,7.5,7.5h250.2c4.1,0,7.5-3.4,7.5-7.5
			C428.2,398.9,424.8,395.6,420.7,395.6z"/>
	</g>
</g>
</svg>
