<?xml version="1.0" encoding="utf-8"?>
<!-- Generator: Adobe Illustrator 25.2.3, SVG Export Plug-In . SVG Version: 6.00 Build 0)  -->
<svg version="1.1" id="Capa_1" height="512" width="512" xmlns="http://www.w3.org/2000/svg" xmlns:xlink="http://www.w3.org/1999/xlink" x="0px" y="0px"
	 viewBox="0 0 512 512" style="enable-background:new 0 0 512 512;" xml:space="preserve">
<g>
	<path d="M211,348c-2.9,0-5.7-0.7-8.2-2.1c-5.4-3-8.8-8.7-8.8-14.9V181c0-6.2,3.4-11.9,8.8-14.9c2.5-1.4,5.4-2.1,8.2-2.1
		c3.2,0,6.3,0.9,9,2.6l120,75c5,3.1,8,8.5,8,14.4c0,5.9-3,11.3-8,14.4l-120,75C217.3,347.1,214.2,348,211,348z M228,300.3l70.9-44.3
		L228,211.7V300.3z"/>
	<path d="M339,243.3l-120-75c-4.6-2.9-10.5-3-15.2-0.4c-4.8,2.6-7.7,7.7-7.7,13.1v150c0,5.5,3,10.5,7.7,13.1
		c2.3,1.3,4.8,1.9,7.3,1.9c2.8,0,5.5-0.8,7.9-2.3l120-75c4.4-2.7,7-7.5,7-12.7S343.3,246,339,243.3L339,243.3z M226,303.9v-95.9
		l76.7,47.9L226,303.9z"/>
	<path d="M75,453c-42.5,0-77-34.5-77-77V136c0-42.5,34.5-77,77-77h362c42.5,0,77,34.5,77,77v240c0,42.5-34.5,77-77,77H75z M75,93
		c-23.7,0-43,19.3-43,43v240c0,23.7,19.3,43,43,43h362c23.7,0,43-19.3,43-43V136c0-23.7-19.3-43-43-43H75z"/>
	<path d="M437,61H75C33.6,61,0,94.6,0,136v240c0,41.4,33.6,75,75,75h362c41.4,0,75-33.6,75-75V136C512,94.6,478.4,61,437,61z
		 M482,376c0,24.8-20.2,45-45,45H75c-24.8,0-45-20.2-45-45V136c0-24.8,20.2-45,45-45h362c24.8,0,45,20.2,45,45V376z"/>
</g>
</svg>
