<?xml version="1.0" encoding="utf-8"?>
<!-- Generator: Adobe Illustrator 25.2.3, SVG Export Plug-In . SVG Version: 6.00 Build 0)  -->
<svg version="1.1" id="Capa_1" xmlns="http://www.w3.org/2000/svg" xmlns:xlink="http://www.w3.org/1999/xlink" x="0px" y="0px"
	 viewBox="0 0 512 512" style="enable-background:new 0 0 512 512;" xml:space="preserve">
<g>
	<g>
		<path style="fill-rule:evenodd;clip-rule:evenodd;fill:#FFFFFF;" d="M443.7,303.6L295.1,154.9L256,192.6l-39-37.7L68.3,303.6v170.1c0,10.3,8.4,18.7,18.7,18.7H87h46.7V381.7
			c0-28.5,17.9-39.3,32.7-45.7c-6.5-7-10.5-16.3-10.5-26.6c0-21.5,17.4-39,38.9-39c21.5,0,39,17.5,39,39c0,10.3-4,19.7-10.5,26.6
			c12.1,5.2,26.1,13.3,31,31.5c0.6-0.1,1.2-0.1,1.7-0.1c0.6,0,1.2,0,1.8,0.1c4.8-18.2,18.9-26.3,31-31.5c-6.5-7-10.5-16.3-10.5-26.6
			c0-21.5,17.5-39,39-39s39,17.5,39,39c0,10.3-4,19.7-10.5,26.6c14.9,6.4,32.7,17.2,32.7,45.7v110.7H425h0.1
			c10.3-0.1,18.6-8.5,18.6-18.7L443.7,303.6L443.7,303.6z"/>
	</g>
	<g>
		<path style="fill-rule:evenodd;clip-rule:evenodd;fill:#6CD4E5;" d="M339.5,112c21.3-20.5,21.9-54.7,1.4-76c-20.6-21.3-54.7-21.9-76-1.4l-8.9,8.6l-8.9-8.6
			c-21.3-20.5-55.5-19.9-76,1.4c-20.5,21.3-19.9,55.5,1.3,76l5.5,5.3l39,37.6l39,37.7l39.1-37.7l39-37.6L339.5,112z"/>
	</g>
	<g>
		<path style="fill-rule:evenodd;clip-rule:evenodd;fill:#D6C7F9;" d="M494.1,277.3L334,117.3l-39,37.6l148.6,148.7l12.1,12.1c10.5,10.5,27.8,10.5,38.3,0
			C504.6,305.1,504.6,287.9,494.1,277.3L494.1,277.3z"/>
	</g>
	<g>
		<path style="fill-rule:evenodd;clip-rule:evenodd;fill:#D6C7F9;" d="M68.3,303.6L217,154.9l-39-37.6l-160,160c-5.3,5.2-7.9,12.2-7.9,19.1v0.2c0,6.9,2.6,13.8,7.9,19.1
			c10.5,10.5,27.8,10.5,38.3,0L68.3,303.6z"/>
	</g>
	<g>
		<path style="fill-rule:evenodd;clip-rule:evenodd;fill:#FFDCD5;" d="M233.8,309.3c0-21.5-17.4-39-39-39c-21.5,0-38.9,17.5-38.9,39c0,10.3,4,19.7,10.5,26.6
			c7.1,7.6,17.2,12.3,28.4,12.3c11.2,0,21.3-4.7,28.4-12.3C229.8,329,233.8,319.7,233.8,309.3L233.8,309.3z"/>
	</g>
	<g>
		<path style="fill-rule:evenodd;clip-rule:evenodd;fill:#6CD4E5;" d="M254.3,367.4c-4.9-18.2-18.9-26.3-31-31.5c-7.1,7.6-17.2,12.3-28.4,12.3c-11.2,0-21.3-4.7-28.4-12.3
			c-14.9,6.4-32.7,17.2-32.7,45.7v110.7h76.6v-41.9c0-21.3,13.4-29.4,24.4-34.2c-4.9-5.2-7.9-12.2-7.9-19.9
			C226.9,381,239,368.3,254.3,367.4L254.3,367.4z"/>
	</g>
	<g>
		<path style="fill-rule:evenodd;clip-rule:evenodd;fill:#FFDCD5;" d="M356.1,309.3c0-21.5-17.5-39-39-39c-21.5,0-39,17.5-39,39c0,10.3,4,19.7,10.5,26.6
			c7.1,7.6,17.2,12.3,28.4,12.3c11.2,0,21.3-4.7,28.4-12.3C352.1,329,356.1,319.7,356.1,309.3L356.1,309.3z"/>
	</g>
	<g>
		<path style="fill-rule:evenodd;clip-rule:evenodd;fill:#D6C7F9;" d="M378.3,381.7c0-28.5-17.9-39.3-32.7-45.7c-7.1,7.6-17.2,12.3-28.4,12.3c-11.2,0-21.3-4.7-28.4-12.3
			c-12.1,5.2-26.1,13.3-31,31.5c15.2,0.9,27.4,13.5,27.4,29c0,7.7-3,14.7-7.9,19.9c11.1,4.8,24.5,12.8,24.5,34.2v41.9h76.6
			L378.3,381.7L378.3,381.7z"/>
	</g>
	<g>
		<path style="fill-rule:evenodd;clip-rule:evenodd;fill:#FFDCD5;" d="M285.1,396.5c0-15.5-12.1-28.1-27.4-29.1c-0.6,0-1.2,0-1.8,0c-0.6,0-1.2,0-1.7,0
			c-15.3,0.9-27.4,13.6-27.4,29.1c0,7.7,3,14.7,7.9,19.9c5.3,5.7,12.9,9.2,21.2,9.2c8.4,0,15.9-3.5,21.2-9.2
			C282.1,411.2,285.1,404.2,285.1,396.5z"/>
	</g>
	<g>
		<path style="fill-rule:evenodd;clip-rule:evenodd;fill:#33D399;" d="M301.7,450.5c0-21.3-13.4-29.4-24.5-34.2c-5.3,5.7-12.8,9.2-21.2,9.2c-8.4,0-15.9-3.5-21.2-9.2
			c-11.1,4.8-24.4,12.8-24.4,34.2v41.9h91.4L301.7,450.5L301.7,450.5z"/>
	</g>
	<path d="M501.2,270.2l-56.3-56.3c-3.9-3.9-10.2-3.9-14.1,0s-3.9,10.2,0,14.1l56.3,56.3c6.7,6.7,6.7,17.5,0,24.2
		c-6.7,6.7-17.5,6.7-24.2,0L309.3,155l24.6-23.7l33.3,33.3c2,2,4.5,2.9,7.1,2.9c2.6,0,5.1-1,7.1-2.9c3.9-3.9,3.9-10.2,0-14.1
		l-33.1-33.1c23.5-24.6,23.6-63.7-0.2-88.3c-11.8-12.2-27.7-19.1-44.7-19.4c-17-0.3-33.2,6-45.4,17.8l-2,1.9l-1.9-1.9
		c-12.2-11.8-28.3-18.1-45.4-17.8c-17.1,0.3-33,7.2-44.7,19.4c-23.8,24.7-23.7,63.8-0.2,88.3L10.8,270.2c-14.5,14.5-14.5,38,0,52.5
		c7,7,16.3,10.8,26.2,10.8h0c7.7,0,15-2.3,21.2-6.6v146.8c0,15.8,12.9,28.7,28.7,28.7H425c15.8,0,28.7-12.9,28.7-28.7V326.9
		c6.4,4.4,13.8,6.7,21.2,6.7c9.5,0,19-3.6,26.2-10.8C515.6,308.3,515.6,284.7,501.2,270.2L501.2,270.2z M178.3,42.9
		c8.1-8.4,19-13.1,30.7-13.3c0.3,0,0.5,0,0.8,0c11.4,0,22.2,4.3,30.4,12.2l8.9,8.6c3.9,3.7,10,3.7,13.9,0l8.9-8.6
		c8.4-8.1,19.4-12.4,31.1-12.2c11.7,0.2,22.6,4.9,30.7,13.3c16.7,17.3,16.2,45.1-1.1,61.9L256,178.7l-76.6-73.9
		C162.1,88,161.6,60.3,178.3,42.9L178.3,42.9z M37.1,313.5C37.1,313.5,37.1,313.5,37.1,313.5c-4.6,0-8.9-1.8-12.1-5
		c-6.7-6.7-6.7-17.5,0-24.2l153.1-153.1l24.6,23.7L61.5,296.2c-0.2,0.2-0.4,0.4-0.6,0.6l-11.8,11.8C46,311.8,41.7,313.5,37.1,313.5
		L37.1,313.5z M194.8,338.3c-16,0-28.9-13-28.9-29c0-16,13-29,28.9-29c16,0,29,13,29,29C223.8,325.3,210.8,338.3,194.8,338.3z
		 M164.6,347.9c8.3,6.5,18.8,10.5,30.2,10.5c11.4,0,21.9-3.9,30.2-10.5c6,3.1,11.5,7,15.4,12.8c-13.8,6-23.5,19.8-23.5,35.8
		c0,5.8,1.3,11.2,3.5,16.1c-10.4,6.7-20.1,17.7-20.1,37.9v31.9h-56.6V381.7C143.7,363.5,151.9,354.4,164.6,347.9L164.6,347.9z
		 M317.2,338.3c-16,0-29-13-29-29c0-16,13-29,29-29c16,0,29,13,29,29C346.1,325.3,333.1,338.3,317.2,338.3z M287,347.8
		c8.3,6.5,18.8,10.5,30.2,10.5c11.4,0,21.9-3.9,30.2-10.5c12.8,6.6,21,15.6,21,33.9v100.7h-56.6v-31.9c0-20.2-9.7-31.3-20.1-37.9
		c2.2-4.9,3.5-10.4,3.5-16.1c0-16-9.7-29.8-23.5-35.8C275.5,354.8,281,350.9,287,347.8L287,347.8z M256,377.4
		c10.5,0,19.1,8.6,19.1,19.1c0,10.5-8.6,19.1-19.1,19.1c-10.5,0-19.1-8.6-19.1-19.1C236.9,386,245.5,377.4,256,377.4L256,377.4z
		 M233.2,428.2c6.4,4.6,14.3,7.3,22.8,7.3c8.5,0,16.4-2.7,22.8-7.3c8.1,4.5,12.9,10.6,12.9,22.3v31.9h-71.4v-31.9
		C220.3,438.8,225.1,432.8,233.2,428.2z M425,482.4h-36.6V381.7c0-27.1-13.9-41.2-27.9-49.5c3.6-6.8,5.7-14.6,5.7-22.9
		c0-27-22-49-49-49s-49,22-49,49c0,8.3,2.1,16.1,5.7,22.9c-6.3,3.7-12.8,8.8-17.9,15.8c-5.1-7.1-11.6-12.1-17.9-15.8
		c3.6-6.8,5.7-14.6,5.7-22.9c0-27-22-49-49-49c-27,0-48.9,22-48.9,49c0,8.3,2.1,16.1,5.7,22.9c-14,8.2-27.9,22.3-27.9,49.5v100.7H87
		c-4.7,0-8.7-4-8.7-8.7V307.7l138.8-138.8l32,30.9c1.9,1.9,4.4,2.8,6.9,2.8c2.5,0,5-0.9,6.9-2.8l32-30.9l138.8,138.8v166
		C433.7,478.5,429.8,482.4,425,482.4L425,482.4z"/>
	<g>
		<path d="M406,199.3c-3.7,0-7.2-2-8.9-5.5l0-0.1c-2.5-4.9-0.5-10.9,4.5-13.4c4.9-2.5,10.9-0.5,13.4,4.5c2.5,4.9,0.5,11-4.5,13.4
			C409.1,198.9,407.5,199.3,406,199.3L406,199.3z"/>
	</g>
</g>
</svg>
