<?xml version="1.0" encoding="utf-8"?>
<!-- Generator: Adobe Illustrator 25.2.3, SVG Export Plug-In . SVG Version: 6.00 Build 0)  -->
<svg version="1.1" id="Layer_1" height="512" width="512" xmlns="http://www.w3.org/2000/svg" xmlns:xlink="http://www.w3.org/1999/xlink" x="0px" y="0px"
	 viewBox="0 0 491 491" style="enable-background:new 0 0 491 491;" xml:space="preserve">
<path d="M163.3,223.1c-30.2,0-54.8-24.6-54.8-54.8c0-30.2,24.6-54.8,54.8-54.8c30.2,0,54.8,24.6,54.8,54.8
	C218.1,198.5,193.5,223.1,163.3,223.1z M163.2,137.9c-16.8,0-30.4,13.6-30.4,30.4c0,16.8,13.6,30.4,30.4,30.4s30.4-13.6,30.4-30.4
	C193.6,151.5,180,137.9,163.2,137.9z"/>
<path d="M216.1,168.3c0-29.2-23.7-52.8-52.8-52.8c-29.2,0-52.8,23.7-52.8,52.8c0,29.2,23.7,52.8,52.8,52.8
	C192.3,221.1,216.1,197.4,216.1,168.3z M130.8,168.3c0-17.9,14.5-32.4,32.4-32.4c17.9,0,32.4,14.5,32.4,32.4
	c0,17.9-14.5,32.4-32.4,32.4C145.3,200.7,130.8,186.1,130.8,168.3z"/>
<path d="M79.6,387.5c-13.3,0-24.1-10.8-24.1-24.1V302c0-39.6,32.2-71.9,71.9-71.9h70.8c14.3,0,27.6,4.1,39.5,12.3
	c2.7,1.8,4.5,4.6,5.1,7.8c0.6,3.2-0.1,6.4-1.9,9.1c-2.2,3.3-6,5.3-10.1,5.3c-2.4,0-4.8-0.7-6.9-2.1c-7.9-5.4-16.3-8-25.8-8h-70.8
	c-26.2,0-47.4,21.3-47.4,47.4v61.1h16.3v-60.8c0-5.7,4.6-10.3,10.3-10.3c5.7,0,10.3,4.6,10.3,10.3v60.8h41.6
	c6.7,0,12.2,5.5,12.2,12.2c0,6.7-5.5,12.2-12.2,12.2H79.6z"/>
<path d="M158.4,365.1h-43.6v-62.8c0-4.6-3.7-8.3-8.3-8.3c-4.6,0-8.3,3.7-8.3,8.3v62.8H79.6c-0.8,0-1.7-0.6-1.7-1.7V302
	c0-27.2,22.2-49.4,49.4-49.4h70.8c9.9,0,18.7,2.7,26.9,8.4c1.8,1.2,3.8,1.8,5.7,1.8c3.3,0,6.4-1.5,8.4-4.5c3.2-4.7,2-11-2.7-14.2
	c-11.6-7.9-24.5-11.9-38.4-11.9h-70.8c-38.5,0-69.9,31.3-69.9,69.9v61.4c0,12.2,10,22.1,22.1,22.1h78.8c5.6,0,10.2-4.6,10.2-10.2
	C168.6,369.7,164,365.1,158.4,365.1z"/>
<path d="M343.7,283.5c-27.9,0-50.6-22.7-50.6-50.6c0-27.9,22.7-50.6,50.6-50.6c27.9,0,50.6,22.7,50.6,50.6
	C394.3,260.8,371.6,283.5,343.7,283.5z M343.7,206.7c-14.4,0-26.2,11.8-26.2,26.2c0,14.4,11.8,26.2,26.2,26.2
	c14.4,0,26.2-11.8,26.2-26.2C369.9,218.5,358.1,206.7,343.7,206.7z"/>
<path d="M343.7,281.5c26.8,0,48.6-21.8,48.6-48.6c0-26.8-21.8-48.6-48.6-48.6c-26.8,0-48.6,21.8-48.6,48.6
	C295.1,259.7,316.9,281.5,343.7,281.5z M343.7,204.7c15.6,0,28.2,12.6,28.2,28.2s-12.6,28.2-28.2,28.2s-28.2-12.6-28.2-28.2
	S328.1,204.7,343.7,204.7z"/>
<path d="M343,433.8c-6.7,0-12.2-5.5-12.2-12.2c0-6.7,5.5-12.2,12.2-12.2h43.9v-53.7c0-5.7,4.6-10.3,10.3-10.3s10.3,4.6,10.3,10.3
	v53.7h8.4v-54c0-11.2-4.2-21.7-11.8-29.5c-7.6-7.8-17.8-12-28.7-12h-65.7c-1,0-1.9,0-2.4,0c-0.5,0.1-1,0.1-1.5,0.1
	c-6.2,0-11.4-4.6-12.1-10.8c-0.4-3.3,0.5-6.5,2.5-9c2-2.6,4.9-4.2,8.2-4.6c1.3-0.2,2.7-0.2,4.1-0.2c0.6,0,1.2,0,1.8,0l65.2,0
	c17.6,0,34,6.9,46.2,19.4c12.1,12.4,18.8,28.9,18.7,46.6v55.4c0,12.6-10.3,22.9-22.9,22.9H343z"/>
<path d="M420.1,310.3c-11.9-12.1-27.7-18.8-44.8-18.8h-63.8c-0.5,0-1,0-1.5,0c-1.6-0.1-3.4-0.1-5.5,0.2c-5.6,0.6-9.6,5.7-8.9,11.4
	c0.6,5.2,5,9,10.1,9c0.4,0,0.8,0,1.2-0.1c0.6-0.1,1.6-0.1,2.7-0.1h65.7c11.5,0,22.2,4.5,30.2,12.6c8,8.2,12.4,19.1,12.4,30.9v55.4
	c0,0.3-0.1,0.5-0.5,0.5h-11.9v-55.7c0-4.6-3.7-8.3-8.3-8.3c-4.6,0-8.3,3.7-8.3,8.3v55.7H343c-5.6,0-10.2,4.6-10.2,10.2
	c0,5.6,4.6,10.2,10.2,10.2h74.3c11.6,0,20.9-9.4,20.9-20.9v-55.4C438.3,338.3,431.9,322.3,420.1,310.3z"/>
<path d="M246.5,353.2c-23.6,0-42.9-19.2-42.9-42.9c0-23.6,19.2-42.9,42.9-42.9c23.7,0,42.9,19.2,42.9,42.9
	C289.4,333.9,270.2,353.2,246.5,353.2z M246.5,291.8c-10.2,0-18.5,8.3-18.5,18.5c0,10.2,8.3,18.5,18.5,18.5
	c10.2,0,18.5-8.3,18.5-18.5C265,300.1,256.7,291.8,246.5,291.8z"/>
<path d="M205.6,310.3c0,22.6,18.4,40.9,40.9,40.9c22.6,0,40.9-18.4,40.9-40.9c0-22.6-18.4-40.9-40.9-40.9
	C223.9,269.4,205.6,287.8,205.6,310.3z M246.5,289.8c11.3,0,20.5,9.2,20.5,20.5c0,11.3-9.2,20.5-20.5,20.5
	c-11.3,0-20.5-9.2-20.5-20.5C226,299,235.2,289.8,246.5,289.8z"/>
<path d="M186.2,477.3c-11.5,0-20.9-9.4-20.9-20.9v-44.3c0-30.4,24.8-55.2,55.2-55.2h51c14.7,0,28.5,5.8,38.8,16.3
	c10.2,10.4,15.8,24.2,15.6,38.9v44.3c0,11.5-9.3,20.9-20.6,20.9H186.2z M301.5,452.9v-40.7c0-8.3-3.1-16-8.7-21.8
	c-5.6-5.8-13.2-9-21.3-9h-51c-17,0-30.8,13.8-30.8,30.8v40.7h5.3v-40.5c0-5.7,4.6-10.3,10.3-10.3c5.7,0,10.3,4.6,10.3,10.3v40.5
	h63.2v-40.5c0-5.7,4.6-10.3,10.3-10.3c5.7,0,10.3,4.6,10.3,10.3v40.5H301.5z"/>
<path d="M308.8,374.6c-9.9-10.1-23.2-15.7-37.3-15.7h-51c-29.4,0-53.2,23.9-53.2,53.2v44.3c0,10.4,8.5,18.9,18.9,18.9h119.1
	c10.3,0,18.6-8.5,18.6-18.9v-44.3C324,397.9,318.5,384.6,308.8,374.6z M220.5,379.3h51c8.6,0,16.7,3.4,22.7,9.6
	c6,6.2,9.3,14.4,9.3,23.2v42.7h-6.1v-42.5c0-4.6-3.7-8.3-8.3-8.3c-4.6,0-8.3,3.7-8.3,8.3v42.5h-67.2v-42.5c0-4.6-3.7-8.3-8.3-8.3
	c-4.6,0-8.3,3.7-8.3,8.3v42.5h-9.3v-42.7C187.8,394,202.4,379.3,220.5,379.3z"/>
<path d="M444.1,151.1c-1.9,0-3.9-0.5-5.7-1.4l-65.1-32.1H373l-0.4-0.4l-0.1,0c-0.2-0.1-0.3-0.2-0.5-0.3l-0.2-0.1l0,0l-0.2-0.1
	l-0.1-0.1c-0.1-0.1-0.3-0.2-0.5-0.3c-0.2-0.1-0.4-0.2-0.6-0.5l-0.1-0.2c0,0-0.3-0.3-0.3-0.3l-0.1-0.1c-0.1,0-0.1-0.1-0.1-0.1
	c-0.1-0.1-0.3-0.3-0.5-0.5c-0.1-0.2-0.3-0.3-0.4-0.5c-0.2-0.2-0.3-0.4-0.4-0.5c0,0-0.1-0.1-0.1-0.1c-0.1-0.1-0.2-0.2-0.2-0.3
	l-0.1-0.1l-0.1-0.1l0-0.1c-0.1-0.1-0.2-0.3-0.2-0.4l0,0c-0.1-0.1-0.2-0.3-0.2-0.4c-0.1-0.1-0.2-0.3-0.3-0.6l-0.1-0.2
	c-0.2-0.3-0.3-0.6-0.4-0.8c-0.1-0.2-0.1-0.3-0.1-0.4l-0.2-0.6c-0.1-0.2-0.1-0.3-0.1-0.5c-0.1-0.3-0.2-0.7-0.2-1.1c0-0.1,0-0.2,0-0.2
	c-0.1-0.2-0.1-0.4-0.1-0.6c-0.1-0.4-0.1-0.7-0.1-0.9V38.6h-29.6v40.7l-0.1,0.2c0,0.1,0,0.1,0,0.2c0,0.2,0,0.4-0.1,0.6
	c0,0.3,0,0.7-0.2,1.1c0,0.1,0,0.3-0.1,0.4c0,0.2-0.1,0.3-0.1,0.5c0,0.1-0.1,0.3-0.1,0.4c-0.1,0.3-0.1,0.5-0.2,0.7
	c-0.1,0.2-0.1,0.3-0.2,0.4c-0.1,0.3-0.2,0.6-0.4,0.8c0,0-0.3,0.5-0.3,0.5v0.3L334,86l-0.2,0.3v0.2l-0.1,0.1v0.1l-0.6,0.6
	c-0.1,0.1-0.1,0.1-0.2,0.2c-0.1,0.1-0.2,0.3-0.4,0.4l-0.1,0.1c-0.6,0.6-1.1,1-1.7,1.4c0,0-0.1,0.1-0.1,0.1l-0.2,0.1
	c-0.1,0.1-0.3,0.2-0.4,0.3c-0.1,0-0.2,0.1-0.2,0.1l-0.1,0.1c0,0-0.9,0.4-1.1,0.6c-0.1,0.1-0.3,0.1-0.4,0.2l-0.1,0
	c0,0-0.4,0.1-0.5,0.2c-0.1,0.1-0.3,0.1-0.4,0.1l-0.1,0l-0.4,0.1c-0.2,0.1-0.5,0.1-0.8,0.2l-0.2,0h-0.2c-0.4,0.1-0.7,0.1-1.1,0.1
	h-0.1c-0.4,0.1-0.9,0.1-1.2,0.1c-0.4,0-0.8,0-1.3-0.1c-0.4,0-0.7-0.1-1-0.1h-0.1l-0.2,0c-0.2,0-0.5-0.1-0.7-0.2c0,0,0,0-0.1,0h-0.2
	l-0.1-0.1h-0.1l-0.4-0.2c0,0-0.1,0-0.1,0c-0.1,0-0.2-0.1-0.3-0.1h-0.1l-0.8-0.4l-74.3-36.2L51.1,148.3c-1.9,0.9-3.8,1.3-5.7,1.3
	c-4.9,0-9.3-2.7-11.6-7.2c-3.1-6.4-0.5-14.1,5.9-17.2l193.2-94.6c3.3-1.6,6.8-2.4,10.4-2.4s7.1,0.8,10.4,2.4l56.9,27.7V32.4
	c0-10.9,8.5-19.4,19.4-19.4h42c10.9,0,19.4,8.5,19.4,19.4v65.6l58.3,28.7c6.4,3.2,9,10.9,5.8,17.3
	C453.4,148.4,449,151.1,444.1,151.1z"/>
<path d="M449,128.5l-59.5-29.3V32.4c0-9.8-7.7-17.4-17.4-17.4h-42c-9.8,0-17.4,7.7-17.4,17.4v29.1l-59.8-29.1c-6.1-2.9-13-2.9-19,0
	L40.6,127c-5.4,2.6-7.6,9.1-5,14.5c1.9,3.8,5.7,6.1,9.8,6.1c1.6,0,3.3-0.4,4.8-1.1l193.1-94.6l75.3,36.7c0.1,0.1,0.3,0.1,0.4,0.2
	c0.1,0,0.1,0.1,0.2,0.1c0.3,0.1,0.6,0.2,0.8,0.3c0.1,0,0.1,0.1,0.2,0.1c0.3,0.1,0.6,0.2,0.9,0.3h0.1c0.3,0.1,0.6,0.1,1,0.1
	c0.4,0.1,0.7,0.1,1.1,0.1c0.3,0,0.7,0,1-0.1h0.3c0.3,0,0.6-0.1,0.8-0.1h0.2c0.3-0.1,0.6-0.1,0.8-0.2c0.1-0.1,0.3-0.1,0.3-0.1
	c0.2-0.1,0.4-0.1,0.6-0.2c0.1-0.1,0.2-0.1,0.3-0.1c0.3-0.1,0.5-0.3,0.8-0.4c0.1-0.1,0.1-0.1,0.3-0.1c0.2-0.1,0.4-0.3,0.6-0.4
	c0.1-0.1,0.1-0.1,0.2-0.1c0.5-0.4,1-0.8,1.5-1.2c0.1-0.1,0.1-0.1,0.1-0.1c0.2-0.2,0.4-0.4,0.6-0.6c0-0.1,0.1-0.1,0.1-0.1
	c0.2-0.3,0.4-0.5,0.6-0.8c0-0.1,0.1-0.1,0.1-0.1c0.1-0.2,0.3-0.4,0.4-0.6c0.1-0.1,0.1-0.2,0.2-0.3c0.1-0.1,0.1-0.1,0.1-0.2
	c0.1-0.1,0.1-0.1,0.1-0.2c0.1-0.2,0.2-0.4,0.3-0.6c0.1-0.1,0.1-0.3,0.1-0.4c0.1-0.2,0.1-0.4,0.2-0.6c0.1-0.2,0.1-0.3,0.1-0.5
	c0.1-0.2,0.1-0.3,0.1-0.5c0.1-0.2,0.1-0.4,0.1-0.6c0-0.1,0.1-0.3,0.1-0.4c0-0.3,0-0.4,0.1-0.7c0-0.1,0-0.1,0-0.3V36.6h33.6v69.5
	c0,0.2,0,0.4,0.1,0.6c0,0.1,0,0.3,0.1,0.4c0,0.2,0.1,0.4,0.1,0.6c0,0.2,0.1,0.4,0.1,0.5c0.1,0.1,0.1,0.3,0.1,0.4
	c0.1,0.2,0.1,0.4,0.2,0.6c0.1,0.1,0.1,0.3,0.1,0.4c0.1,0.2,0.1,0.4,0.3,0.6c0.1,0.1,0.1,0.3,0.2,0.4c0.1,0.2,0.2,0.4,0.3,0.5
	c0.1,0.1,0.2,0.3,0.3,0.4c0.1,0.1,0.2,0.3,0.3,0.4c0.1,0.2,0.3,0.3,0.4,0.5c0.1,0.1,0.2,0.3,0.3,0.3c0.1,0.2,0.3,0.3,0.4,0.5
	c0.1,0.1,0.2,0.2,0.3,0.3c0.1,0.1,0.3,0.3,0.4,0.4c0.1,0.1,0.3,0.2,0.3,0.3c0.1,0.1,0.3,0.2,0.4,0.3c0.1,0.1,0.3,0.2,0.4,0.3
	c0.1,0.1,0.3,0.1,0.4,0.3c0.2,0.1,0.4,0.2,0.6,0.3c0.1,0,0.1,0.1,0.1,0.1l65.5,32.3c1.5,0.8,3.2,1.1,4.8,1.1c4,0,7.9-2.2,9.8-6.1
	C456.5,137.7,454.3,131.1,449,128.5z"/>
</svg>
