<?xml version="1.0" encoding="utf-8"?>
<!-- Generator: Adobe Illustrator 25.2.3, SVG Export Plug-In . SVG Version: 6.00 Build 0)  -->
<svg version="1.1" id="Layer_1" xmlns="http://www.w3.org/2000/svg" xmlns:xlink="http://www.w3.org/1999/xlink" x="0px" y="0px"
	 viewBox="0 0 512 512" style="enable-background:new 0 0 512 512;" xml:space="preserve">
<g>
	<g>
		<g>
			<path style="fill-rule:evenodd;clip-rule:evenodd;fill:#D6C7F9;" d="M123.6,47.8h264.6c16.8,0,30.5,13.7,30.5,30.4v371.7c0,16.8-13.7,30.5-30.5,30.5H123.6
				c-16.7,0-30.4-13.7-30.4-30.5V78.2C93.2,61.5,107,47.8,123.6,47.8z"/>
			<path style="fill-rule:evenodd;clip-rule:evenodd;fill:#FFFFFF;" d="M121.4,68.9h269.2c4,0,7.1,3.2,7.1,7.1v376.1c0,4-3.2,7.1-7.1,7.1H121.4c-3.9,0-7-3.2-7-7.1V76.1
				C114.3,72.1,117.5,68.9,121.4,68.9z"/>
		</g>
		<g>
			<g>
				<g>
					<path style="fill:#8B909D;" d="M249.5,233.3v8h92.6v-8H249.5z M249.5,264.5h45v-8h-45L249.5,264.5z"/>
				</g>
			</g>
			<g>
				<path style="fill:#33D399;" d="M230.9,152.5l-5.7-5.7l-40.4,40.4l-17-17l-5.7,5.7l22.7,22.7L230.9,152.5z"/>
				<path style="fill:#33D399;" d="M184.9,269.7l46-46l-5.7-5.7l-40.4,40.4c-5.7-5.6-11.3-11.3-17-17l-5.7,5.6c6.6,6.7,13.2,13.3,19.9,19.9
					L184.9,269.7z"/>
				<path style="fill:#33D399;" d="M225.2,289.2l-40.4,40.5l-17-17l-5.7,5.7l22.7,22.7l46-46.2L225.2,289.2z"/>
			</g>
			<g>
				<path style="fill:#8B909D;" d="M249.5,185.2h45v8h-45L249.5,185.2z"/>
				<path style="fill:#8B909D;" d="M249.5,162.1h92.6v8h-92.6V162.1z"/>
				<path style="fill:#8B909D;" d="M249.5,304.6h92.6v8h-92.6V304.6z"/>
				<path style="fill:#8B909D;" d="M249.5,327.7h45v8h-45L249.5,327.7z"/>
			</g>
		</g>
		<path style="fill-rule:evenodd;clip-rule:evenodd;fill:#6CD4E5;" d="M218.6,31.6h79.3c14.3,0,26.1,11.7,26.1,26.1v26.1H192.4V57.7C192.4,43.3,204.2,31.6,218.6,31.6L218.6,31.6z"
			/>
	</g>
	<g>
		<path d="M414.8,449.9c0,14.6-11.9,26.5-26.5,26.5H123.6c-14.6,0-26.4-11.9-26.4-26.5V203.6h-8v246.3c0,19,15.4,34.5,34.4,34.5
			h264.6c19,0,34.5-15.5,34.5-34.5V322.4h-8V449.9z"/>
		<path d="M388.3,43.8h-63.7c-5-9.6-15.1-16.2-26.7-16.2h-79.3c-11.6,0-21.7,6.6-26.8,16.2h-68.3c-19,0-34.4,15.4-34.4,34.4v111.1h8
			V78.2c0-14.5,11.8-26.4,26.4-26.4H189c-0.4,1.9-0.6,3.9-0.6,5.9v22.1h-23.7v8h113.5v-8h-81.8V57.7c0-12.2,10-22.1,22.2-22.1h79.3
			c12.2,0,22.1,9.9,22.1,22.1v22.1h-27.7v8h59.4v-8H328V57.7c0-2-0.2-4-0.6-5.9h60.9c14.6,0,26.5,11.8,26.5,26.4v230.1h8V78.2
			C422.8,59.3,407.3,43.8,388.3,43.8L388.3,43.8z"/>
	</g>
</g>
</svg>
