<?xml version="1.0" encoding="utf-8"?>
<!-- Generator: Adobe Illustrator 25.2.3, SVG Export Plug-In . SVG Version: 6.00 Build 0)  -->
<svg version="1.1" id="Capa_1" height="512" width="512" xmlns="http://www.w3.org/2000/svg" xmlns:xlink="http://www.w3.org/1999/xlink" x="0px" y="0px"
	 viewBox="0 0 512 512" style="enable-background:new 0 0 512 512;" xml:space="preserve">
<style type="text/css">
	.st0{fill:none;stroke:#111111;stroke-width:18;stroke-miterlimit:10;}
</style>
<path class="st0" d="M303.6,294.7c0-35.2-28.7-63.9-63.9-63.9h-78.3c-35.2,0-63.9,28.7-63.9,63.9v129.4c0,7.1,5.7,12.8,12.8,12.8
	h150.5"/>
<path class="st0" d="M200.6,61.4c-42.4,0-76.9,34.5-76.9,76.9s34.5,76.9,76.9,76.9s76.9-34.5,76.9-76.9S242.9,61.4,200.6,61.4z"/>
<path d="M394.6,468.1c-13.5,0-25.8-7.9-31.4-20.2c-2.1-4.6-3.1-9.4-3.1-14.4c0-2.3,0.2-4.7,0.7-7c3.3-15.9,17.5-27.5,33.8-27.5
	c19,0,34.5,15.5,34.5,34.5S413.6,468.1,394.6,468.1z M394.7,413.9c-10.8,0-19.6,8.8-19.6,19.6c0,11,8.8,19.9,19.6,19.9
	s19.6-8.9,19.6-19.9C414.4,422.7,405.6,413.9,394.7,413.9z"/>
<path d="M394.6,465.1c17.4,0,31.5-14.1,31.5-31.5s-14.1-31.5-31.5-31.5c-15.2,0-27.9,10.8-30.8,25.1c-0.4,2.1-0.6,4.2-0.6,6.4
	c0,4.7,1,9.2,2.8,13.2C370.9,457.6,381.8,465.1,394.6,465.1z M394.7,410.9c12.5,0,22.6,10.1,22.6,22.6c0,12.6-10.1,22.9-22.6,22.9
	s-22.6-10.3-22.6-22.9C372.1,421.1,382.3,410.9,394.7,410.9z"/>
<g>
	<g>
		<path d="M391.2,444.8c-4.1,0-7.5-3.4-7.5-7.5v-9c0-4.1,3.4-7.5,7.5-7.5c4.1,0,7.5,3.4,7.5,7.5v1.5h1.5c4.1,0,7.5,3.4,7.5,7.5
			c0,4.1-3.4,7.5-7.5,7.5H391.2z"/>
		<path d="M400.2,432.8h-4.5v-4.5c0-2.5-2-4.5-4.5-4.5s-4.5,2-4.5,4.5v9c0,2.5,2,4.5,4.5,4.5h9c2.5,0,4.5-2,4.5-4.5
			C404.7,434.8,402.7,432.8,400.2,432.8z"/>
	</g>
</g>
<g>
	<g>
		<path d="M269.7,454.5c-4.7,0-9.1-1.9-12.5-5.4c-3.2-3.4-5-7.8-5-12.4v-1.8h-2.1c-9.6,0-17.5-7.8-17.5-17.5s7.8-17.5,17.5-17.5h2.1
			v-13.3h-2.1c-9.6,0-17.5-7.8-17.5-17.5s7.8-17.5,17.5-17.5h2.1v-13.3h-2.1c-9.6,0-17.5-7.8-17.5-17.5s7.8-17.5,17.5-17.5h2.1v-2.1
			c0-9.6,7.8-17.5,17.5-17.5h106.4c9.6,0,17.5,7.8,17.5,17.5l-0.3,106.7l-15.3,0.8V301.4c0-1-0.8-1.8-1.8-1.8H269.7
			c-1,0-1.8,0.8-1.8,1.8v4c5.8,2.9,9.6,9,9.6,15.6s-3.8,12.7-9.6,15.6v17c5.8,2.9,9.6,9,9.6,15.6c0,6.6-3.8,12.7-9.6,15.6v17
			c5.8,2.9,9.6,9,9.6,15.6s-3.8,12.7-9.6,15.6v3.7c0,1.2,1,2.1,1.8,2.1h103.7l0.9,15.6H269.7z M250.1,415.6c-1,0-1.8,0.8-1.8,1.8
			s0.8,1.8,1.8,1.8h10c1,0,1.8-0.8,1.8-1.8s-0.8-1.8-1.8-1.8H250.1z M250.1,367.4c-1,0-1.8,0.8-1.8,1.8s0.8,1.8,1.8,1.8h10
			c1,0,1.8-0.8,1.8-1.8s-0.8-1.8-1.8-1.8H250.1z M250.1,319.2c-1,0-1.8,0.8-1.8,1.8s0.8,1.8,1.8,1.8h10c1,0,1.8-0.8,1.8-1.8
			s-0.8-1.8-1.8-1.8H250.1z"/>
		<path d="M269.7,441.8c-2.6,0-4.8-2.4-4.8-5.1V431c5.6-2,9.6-7.3,9.6-13.6s-4-11.6-9.6-13.6v-20.9c5.6-2,9.6-7.3,9.6-13.6
			s-4-11.6-9.6-13.6v-20.9c5.6-2,9.6-7.3,9.6-13.6s-4-11.6-9.6-13.6v-6c0-2.7,2.2-4.8,4.8-4.8h106.4c2.7,0,4.8,2.2,4.8,4.8v104.3
			l9.3-0.5l0.3-103.9c0-8-6.5-14.5-14.5-14.5H269.7c-8,0-14.5,6.5-14.5,14.5v5.1h-5.1c-8,0-14.5,6.5-14.5,14.5s6.5,14.5,14.5,14.5
			h5.1v19.3h-5.1c-8,0-14.5,6.5-14.5,14.5s6.5,14.5,14.5,14.5h5.1V403h-5.1c-8,0-14.5,6.5-14.5,14.5s6.5,14.5,14.5,14.5h5.1v4.8
			c0,3.8,1.5,7.5,4.2,10.3c2.8,2.9,6.4,4.5,10.3,4.5h101.5l-0.6-9.6H269.7z M250.1,325.8c-2.7,0-4.8-2.2-4.8-4.8s2.2-4.8,4.8-4.8h10
			c2.7,0,4.8,2.2,4.8,4.8s-2.2,4.8-4.8,4.8H250.1z M250.1,374c-2.7,0-4.8-2.2-4.8-4.8s2.2-4.8,4.8-4.8h10c2.7,0,4.8,2.2,4.8,4.8
			s-2.2,4.8-4.8,4.8H250.1z M260.1,422.2h-10c-2.7,0-4.8-2.2-4.8-4.8s2.2-4.8,4.8-4.8h10c2.7,0,4.8,2.2,4.8,4.8
			S262.7,422.2,260.1,422.2z"/>
	</g>
</g>
<g>
	<g>
		<path d="M337.5,355.6c-4.3,0-7.8-3.5-7.8-7.8s3.5-7.8,7.8-7.8h28.9c4.3,0,7.8,3.5,7.8,7.8s-3.5,7.8-7.8,7.8H337.5z"/>
		<path d="M366.4,343h-28.9c-2.7,0-4.8,2.2-4.8,4.8c0,2.7,2.2,4.8,4.8,4.8h28.9c2.7,0,4.8-2.2,4.8-4.8
			C371.2,345.1,369.1,343,366.4,343z"/>
	</g>
</g>
<g>
	<g>
		<path d="M337.5,394.2c-4.3,0-7.8-3.5-7.8-7.8s3.5-7.8,7.8-7.8h28.9c4.3,0,7.8,3.5,7.8,7.8s-3.5,7.8-7.8,7.8H337.5z"/>
		<path d="M366.4,381.5h-28.9c-2.7,0-4.8,2.2-4.8,4.8s2.2,4.8,4.8,4.8h28.9c2.7,0,4.8-2.2,4.8-4.8S369.1,381.5,366.4,381.5z"/>
	</g>
</g>
<g>
	<g>
		<path d="M298.6,348.1c-2.1,0-4.1-0.8-5.5-2.3l-11-11c-3-3-3-8,0-11.1c1.5-1.5,3.4-2.3,5.5-2.3s4.1,0.8,5.5,2.3l5.5,5.5l13.8-13.8
			c1.5-1.5,3.4-2.3,5.5-2.3s4.1,0.8,5.5,2.3c3,3,3,8,0,11.1l-19.3,19.3C302.7,347.3,300.7,348.1,298.6,348.1z"/>
		<path d="M321.3,317.6c-1.9-1.9-4.9-1.9-6.8,0l-15.9,15.9l-7.6-7.6c-1.9-1.9-4.9-1.9-6.8,0s-1.9,4.9,0,6.8l11,11
			c0.9,0.9,2.2,1.4,3.4,1.4c1.2,0,2.5-0.5,3.4-1.4l19.3-19.3C323.2,322.5,323.2,319.5,321.3,317.6z"/>
	</g>
</g>
<g>
	<g>
		<path d="M298.6,386.7c-2.1,0-4.1-0.8-5.5-2.3l-11-11c-1.5-1.5-2.3-3.4-2.3-5.5s0.8-4.1,2.3-5.5c1.5-1.5,3.4-2.3,5.5-2.3
			s4.1,0.8,5.5,2.3l5.5,5.5l13.8-13.8c1.5-1.5,3.4-2.3,5.5-2.3c2.1,0,4.1,0.8,5.5,2.3c1.5,1.5,2.3,3.4,2.3,5.5s-0.8,4.1-2.3,5.5
			l-19.3,19.3C302.7,385.9,300.7,386.7,298.6,386.7z"/>
		<path d="M321.3,356.2c-1.9-1.9-4.9-1.9-6.8,0L298.6,372l-7.6-7.6c-1.9-1.9-4.9-1.9-6.8,0s-1.9,4.9,0,6.8l11,11
			c0.9,0.9,2.2,1.4,3.4,1.4c1.2,0,2.5-0.5,3.4-1.4l19.3-19.3C323.2,361.1,323.2,358,321.3,356.2z"/>
	</g>
</g>
<g>
	<g>
		<path d="M298.6,425.2c-2.1,0-4.1-0.8-5.5-2.3l-11-11c-3-3-3-8,0-11.1c1.5-1.5,3.4-2.3,5.5-2.3s4.1,0.8,5.5,2.3l5.5,5.5l13.8-13.8
			c1.5-1.5,3.4-2.3,5.5-2.3s4.1,0.8,5.5,2.3c1.5,1.5,2.3,3.4,2.3,5.5s-0.8,4.1-2.3,5.5l-19.3,19.3
			C302.7,424.4,300.7,425.2,298.6,425.2z"/>
		<path d="M321.3,394.7c-1.9-1.9-4.9-1.9-6.8,0l-15.9,15.9L291,403c-1.9-1.9-4.9-1.9-6.8,0c-1.9,1.9-1.9,4.9,0,6.8l11,11
			c0.9,0.9,2.2,1.4,3.4,1.4c1.2,0,2.5-0.5,3.4-1.4l19.3-19.3C323.2,399.7,323.2,396.6,321.3,394.7z"/>
	</g>
</g>
</svg>
