<svg xmlns="http://www.w3.org/2000/svg" viewBox="0 0 512 512">
  <g xmlns="http://www.w3.org/2000/svg" fill-rule="evenodd" clip-rule="evenodd">
    <path fill="#fff" d="M188.369 149.075v45.794h-45.812v-45.794zM88.912 87.717v347.481h263.411V87.717h-68.297c-16.77 11.361-38.617 18.144-63.423 18.144s-46.653-6.782-63.394-18.144zm52.804 257.575h45.812v45.794h-45.812zm0-98.108h45.812v45.794h-45.812z" />
    <path fill="#d6c7f9" d="M43.071 57.662v407.592c0 8.666 7.079 15.738 15.754 15.738h323.556c8.675 0 15.783-7.072 15.783-15.738V57.662c0-8.637-7.108-15.738-15.783-15.738h-65.367c-4.468 18.375-16.16 34.374-32.988 45.794h68.297v347.481H88.912V87.717h68.297c-16.828-11.419-28.549-27.418-32.988-45.794H58.825c-8.675.001-15.754 7.073-15.754 15.739z" />
    <path fill="#6cd4e5" d="M124.221 41.924c4.439 18.375 16.16 34.374 32.988 45.794 16.741 11.361 38.588 18.144 63.394 18.144s46.653-6.782 63.423-18.144c16.828-11.419 28.52-27.418 32.988-45.794 1.306-5.391 1.973-10.985 1.973-16.752 0-8.289-8.501-15.1-18.859-15.1H141.107c-10.387 0-18.888 6.811-18.888 15.1 0 5.767.696 11.361 2.002 16.752zM142.557 149.075h45.812v45.794h-45.812zM141.716 247.184h45.812v45.794h-45.812zM141.716 345.292h45.812v45.794h-45.812z" />
    <path fill="#6cd4e5" d="M350.872 490.469c17.205 15.361 31.479 15.361 48.336-.319l53.645-56.952c21.441-22.781 21.441-60.053 0-82.805-6.093-6.492-13.172-10.289-20.628-11.999-19.99-4.521-42.765 6.173-57.33 21.622-15.435-16.376-37.92-25.969-57.33-21.564-7.543 1.71-14.623 5.565-20.628 11.941-10.706 11.39-16.073 26.375-16.073 41.388s5.367 30.027 16.073 41.417l20.541 21.795z" />
  </g>
  <path xmlns="http://www.w3.org/2000/svg" d="M352.323 228.07c-5.562 0-10.071 4.509-10.071 10.071v.058c0 5.562 4.509 10.042 10.071 10.042s10.071-4.538 10.071-10.101-4.509-10.07-10.071-10.07zM184.917 62.487h71.401c5.562 0 10.071-4.509 10.071-10.071s-4.509-10.071-10.071-10.071h-71.401c-5.562 0-10.071 4.509-10.071 10.071s4.509 10.071 10.071 10.071z" />
  <path xmlns="http://www.w3.org/2000/svg" d="M460.186 343.49c-9.98-10.601-22.965-16.206-37.55-16.209h-.012c-4.706 0-9.544.626-14.389 1.788V57.662c0-14.231-11.598-25.809-25.854-25.809h-53.597a82.72 82.72 0 00.273-6.681C329.057 11.292 316.08 0 300.128 0H141.107c-15.968 0-28.958 11.292-28.958 25.172 0 2.244.094 4.471.273 6.681H58.825C44.585 31.853 33 43.43 33 57.662v407.592c0 14.231 11.585 25.809 25.825 25.809h278.773l5.944 6.311c.197.209.403.411.617.602 10.454 9.35 20.702 14.024 30.893 14.024 10.35 0 20.642-4.825 31.015-14.475.162-.151.319-.308.472-.469l53.648-56.955c25.085-26.653 25.083-69.994-.001-96.611zM324.527 51.995h57.855c3.097 0 5.712 2.595 5.712 5.667v279.422a87.018 87.018 0 00-13.175 9.097 86.35 86.35 0 00-12.523-8.805v-56.252c0-5.562-4.509-10.071-10.071-10.071s-10.071 4.509-10.071 10.071v48.045c-4.979-1.217-9.981-1.862-14.893-1.862-14.736 0-27.792 5.596-37.756 16.184a67.627 67.627 0 00-8.687 11.497H228.32c-5.562 0-10.071 4.509-10.071 10.071s4.509 10.071 10.071 10.071h44.426c-3.92 16.688-1.839 34.649 6.224 49.997H98.983V97.789h55.277c18.584 11.758 41.656 18.144 66.343 18.144 24.696 0 47.772-6.386 66.355-18.144h55.294v97.37c0 5.562 4.509 10.071 10.071 10.071s10.071-4.509 10.071-10.071V87.717c0-5.562-4.509-10.071-10.071-10.071H309.99c6.429-7.81 11.32-16.451 14.537-25.651zm-183.42-31.852h159.021c5.282 0 8.787 3.027 8.787 5.029 0 4.998-.588 9.842-1.709 14.496-.019.082-.044.162-.061.245-3.873 15.786-13.937 29.337-28.246 39.148-.414.246-.812.515-1.185.816C262.53 89.9 242.769 95.79 220.603 95.79c-22.073 0-41.764-5.837-56.922-15.784a10.07 10.07 0 00-1.595-1.097c-14.119-9.748-24.064-23.154-27.96-38.755a9.927 9.927 0 00-.262-1.124 61.778 61.778 0 01-1.574-13.857c0-2.003 3.517-5.03 8.817-5.03zM58.825 470.921c-3.134 0-5.683-2.542-5.683-5.667V57.662c0-3.124 2.549-5.667 5.683-5.667h57.857c3.218 9.2 8.111 17.84 14.542 25.651H88.912c-5.562 0-10.071 4.509-10.071 10.071v347.481c0 5.562 4.509 10.071 10.071 10.071h205.559l24.158 25.651H58.825zm386.698-44.629l-53.41 56.703c-12.742 11.758-21.137 11.823-34.214.246 0 0-51.811-55.046-52.105-55.327l-1.52-1.614c-14.309-15.225-17.164-38.066-8.589-56.33.207-.369.39-.753.549-1.149a48.517 48.517 0 018.036-11.527c6.149-6.534 13.917-9.846 23.089-9.846 5.958 0 12.287 1.458 18.472 4.116a10.038 10.038 0 004.53 2.184c6.198 3.296 12.115 7.767 17.2 13.17a10.075 10.075 0 007.331 3.169h.003c2.775 0 5.427-1.145 7.33-3.164 11.162-11.847 27.018-19.5 40.399-19.5h.007c9.022.002 16.724 3.324 22.894 9.878 17.913 19.008 17.911 49.959-.002 68.991z" />
  <path xmlns="http://www.w3.org/2000/svg" d="M187.702 139.004h-45.174c-5.562 0-10.071 4.509-10.071 10.071v45.127c0 5.562 4.509 10.071 10.071 10.071h45.174c5.562 0 10.071-4.509 10.071-10.071v-45.127c0-5.562-4.509-10.071-10.071-10.071zm-10.071 45.127h-25.032v-24.984h25.032zM297.256 161.553h-68.094c-5.562 0-10.071 4.509-10.071 10.071s4.509 10.071 10.071 10.071h68.094c5.562 0 10.071-4.509 10.071-10.071s-4.509-10.071-10.071-10.071zM186.889 235.721h-45.173c-5.562 0-10.071 4.509-10.071 10.071v45.127c0 5.562 4.509 10.071 10.071 10.071h45.173c5.562 0 10.071-4.509 10.071-10.071v-45.127c0-5.562-4.509-10.071-10.071-10.071zm-10.071 45.127h-25.031v-24.985h25.031zM296.415 258.27h-62.059c-5.562 0-10.071 4.509-10.071 10.071s4.509 10.071 10.071 10.071h62.059c5.562 0 10.071-4.509 10.071-10.071s-4.51-10.071-10.071-10.071zM186.889 332.409h-45.173c-5.562 0-10.071 4.509-10.071 10.071v45.127c0 5.562 4.509 10.071 10.071 10.071h45.173c5.562 0 10.071-4.509 10.071-10.071V342.48c0-5.562-4.509-10.071-10.071-10.071zm-10.071 45.127h-25.031v-24.985h25.031z" />
</svg>
