<?xml version="1.0" encoding="utf-8"?>
<!-- Generator: Adobe Illustrator 25.2.3, SVG Export Plug-In . SVG Version: 6.00 Build 0)  -->
<svg version="1.1" id="Capa_1" xmlns="http://www.w3.org/2000/svg" xmlns:xlink="http://www.w3.org/1999/xlink" x="0px" y="0px"
	 viewBox="0 0 512 512" style="enable-background:new 0 0 512 512;" xml:space="preserve">
<g>
	<g>
		<path d="M106,482c-8,0-15-7.5-15-16v-17.6c17.5-6.2,30-22.9,30-42.4s-12.5-36.2-30-42.4v-65.2c17.5-6.2,30-22.9,30-42.4
			s-12.5-36.2-30-42.4v-65.2c17.5-6.2,30-22.9,30-42.4s-12.5-36.2-30-42.4V45c0-8.3,6.7-15,15-15h331c8.3,0,15,6.7,15,15v433.6
			l29-17.1L482,45c0-24.8-20.2-45-45-45H106C81.2,0,61,20.2,61,45v16H45C20.2,61,0,81.2,0,106s20.2,45,45,45h16v60H45
			c-24.8,0-45,20.2-45,45s20.2,45,45,45h16v60H45c-24.8,0-45,20.2-45,45s20.2,45,45,45h16v15c0,12,4.6,23.3,12.9,32.1
			c8.6,9,20,13.9,32.1,13.9h315.8l-1.8-30H106z M45,121c-8.3,0-15-6.7-15-15s6.7-15,15-15h31c8.3,0,15,6.7,15,15s-6.7,15-15,15H45z
			 M45,271c-8.3,0-15-6.7-15-15s6.7-15,15-15h31c8.3,0,15,6.7,15,15s-6.7,15-15,15H45z M76,421H45c-8.3,0-15-6.7-15-15s6.7-15,15-15
			h31c8.3,0,15,6.7,15,15S84.3,421,76,421z"/>
	</g>
</g>
<g>
	<g>
		<path d="M407,174.4h-90c-8.3,0-15,6.7-15,15s6.7,15,15,15h90c8.3,0,15-6.7,15-15S415.3,174.4,407,174.4z"/>
	</g>
</g>
<g>
	<g>
		<path d="M407,294.4h-90c-8.3,0-15,6.7-15,15s6.7,15,15,15h90c8.3,0,15-6.7,15-15S415.3,294.4,407,294.4z"/>
	</g>
</g>
<g>
	<g>
		<path d="M266.6,95.4c-5.9-5.9-15.4-5.9-21.2,0L196,144.8l-23.6-23.6c-5.9-5.9-15.4-5.9-21.2,0s-5.9,15.4,0,21.2l34.2,34.2
			c2.9,2.9,6.8,4.4,10.6,4.4s7.7-1.5,10.6-4.4l60-60C272.5,110.7,272.5,101.3,266.6,95.4z"/>
	</g>
</g>
<g>
	<g>
		<path d="M266.6,215.4c-5.9-5.9-15.4-5.9-21.2,0L196,264.8l-23.6-23.6c-5.9-5.9-15.4-5.9-21.2,0s-5.9,15.4,0,21.2l34.2,34.2
			c2.9,2.9,6.8,4.4,10.6,4.4s7.7-1.5,10.6-4.4l60-60C272.5,230.7,272.5,221.3,266.6,215.4z"/>
	</g>
</g>
<g>
	<g>
		<path d="M266.6,335.4c-5.9-5.9-15.4-5.9-21.2,0L196,384.8l-23.6-23.6c-5.9-5.9-15.4-5.9-21.2,0s-5.9,15.4,0,21.2l34.2,34.2
			c2.9,2.9,6.8,4.4,10.6,4.4s7.7-1.5,10.6-4.4l60-60C272.5,350.7,272.5,341.3,266.6,335.4z"/>
	</g>
</g>
<g>
	<g>
		<path d="M419.8,512.1h15c12,0,23.3-4.6,32.1-12.9c9-8.6,13.9-20,13.9-32.1V281.2l-29,2.8l-1,183c0,8-7.5,15-16,15h-15.6"/>
	</g>
</g>
</svg>
