<?xml version="1.0" standalone="no"?>
<!DOCTYPE svg PUBLIC "-//W3C//DTD SVG 20010904//EN"
 "http://www.w3.org/TR/2001/REC-SVG-20010904/DTD/svg10.dtd">
<svg version="1.0" xmlns="http://www.w3.org/2000/svg"
 width="108.000000pt" height="104.000000pt" viewBox="0 0 108.000000 104.000000"
 preserveAspectRatio="xMidYMid meet">

<g transform="translate(0.000000,104.000000) scale(0.100000,-0.100000)"
fill="#0055CC" stroke="none">
<path d="M395 1007 c-161 -41 -290 -167 -331 -321 -30 -110 -10 -248 49 -349
35 -59 120 -136 188 -168 91 -44 144 -51 324 -40 88 6 210 13 270 15 61 3 115
6 120 6 6 0 -30 16 -80 35 -152 59 -140 48 -99 92 19 21 48 65 64 98 114 238
0 521 -250 616 -68 26 -187 33 -255 16z m-55 -298 c0 -95 10 -119 48 -119 45
0 52 16 52 113 l0 88 38 -3 37 -3 3 -98 3 -98 -35 -35 c-30 -30 -40 -34 -85
-34 -108 0 -141 42 -141 180 l0 90 40 0 40 0 0 -81z m388 44 c3 -32 2 -33 -32
-33 l-36 0 0 -100 0 -100 -40 0 -40 0 0 113 c0 140 13 158 110 154 32 -2 35
-5 38 -34z m-351 -284 c33 -28 2 -99 -44 -99 -16 0 -23 -6 -23 -20 0 -13 -7
-20 -20 -20 -18 0 -20 7 -20 73 0 41 2 76 6 79 8 9 86 -1 101 -13z m73 -59 c0
-73 -2 -80 -20 -80 -18 0 -20 7 -20 80 0 73 2 80 20 80 18 0 20 -7 20 -80z
m128 13 c6 -9 12 -34 12 -55 0 -34 -3 -38 -24 -38 -13 0 -31 -2 -39 -5 -23 -9
-59 28 -59 60 0 57 75 83 110 38z m130 11 c17 -12 22 -25 22 -60 0 -37 -3 -44
-20 -44 -17 0 -20 7 -20 40 0 33 -3 40 -20 40 -17 0 -20 -7 -20 -40 0 -33 -3
-40 -20 -40 -17 0 -20 7 -20 40 0 67 49 99 98 64z"/>
<path d="M310 424 c0 -33 33 -30 38 4 3 17 -2 22 -17 22 -16 0 -21 -6 -21 -26z"/>
<path d="M503 394 c-3 -8 -1 -20 5 -26 16 -16 42 -2 42 22 0 24 -38 28 -47 4z"/>
</g>
</svg>
