<?xml version="1.0" encoding="utf-8"?>
<!-- Generator: Adobe Illustrator 25.2.3, SVG Export Plug-In . SVG Version: 6.00 Build 0)  -->
<svg version="1.1" id="Layer_1" xmlns="http://www.w3.org/2000/svg" xmlns:xlink="http://www.w3.org/1999/xlink" x="0px" y="0px"
	 viewBox="0 0 512 512" style="enable-background:new 0 0 512 512;" xml:space="preserve">
<g>
	<polyline style="fill:none;stroke:#0055CC;stroke-width:12;stroke-miterlimit:10;" points="235.7,463.3 492,455.4 378.6,406.5 	"/>
</g>
<g>
	<circle style="fill:none;stroke:#0055CC;stroke-width:12;stroke-miterlimit:10;" cx="235.7" cy="255.2" r="208.2"/>
</g>
<g>
	<g>
		<path style="fill:#0055CC;" d="M186.6,278.6c-12.4,0-23.2-2.4-32.2-7.2s-16-11.3-20.9-19.6c-4.9-8.3-7.3-17.4-7.3-27.5v-69.7h36.6v68.7
			c0,4.3,1,8.1,3.1,11.7c2,3.5,4.8,6.4,8.4,8.5c3.5,2.1,7.6,3.2,12.2,3.2c4.4,0,8.4-1.1,11.9-3.2c3.5-2.1,6.3-5,8.4-8.5
			c2-3.5,3.1-7.4,3.1-11.7v-68.7h36.6v69.7c0,10.1-2.4,19.3-7.1,27.5c-4.7,8.3-11.5,14.8-20.4,19.6
			C209.9,276.2,199.2,278.6,186.6,278.6z"/>
		<path style="fill:#0055CC;" d="M272.8,275.7v-85.5c0-11,3.1-19.7,9.4-26c6.3-6.3,15-9.4,26.2-9.4h35.2v29.8h-26.2c-2.2,0-4.1,0.7-5.7,2.2
			c-1.6,1.5-2.4,3.4-2.4,5.8v83.2H272.8z"/>
	</g>
	<g>
		<path style="fill:#0055CC;" d="M125.3,373v-75.5h31.6c5,0,9.5,1.1,13.5,3.4c4.1,2.3,7.3,5.4,9.7,9.4c2.4,4,3.6,8.7,3.6,14
			c0,5.2-1.2,9.9-3.6,14c-2.4,4.1-5.6,7.2-9.7,9.5c-4.1,2.3-8.6,3.4-13.5,3.4h-16.2V373H125.3z M140.8,337.6h14.3
			c2.4,0,4.7-0.5,6.7-1.6c2-1,3.6-2.6,4.8-4.5c1.2-2,1.8-4.4,1.8-7.2c0-2.8-0.6-5.2-1.8-7.2c-1.2-2-2.8-3.5-4.8-4.5
			c-2-1-4.2-1.6-6.7-1.6h-14.3V337.6z"/>
		<path style="fill:#0055CC;" d="M193.5,373v-78.7h14.8V373H193.5z"/>
		<path style="fill:#0055CC;" d="M244,374.3c-5,0-9.4-1.3-13.2-3.9c-3.7-2.6-6.6-6.1-8.7-10.4c-2-4.3-3.1-9.1-3.1-14.4
			c0-5.4,1.2-10.3,3.5-14.7c2.3-4.4,5.7-7.9,10.1-10.4c4.4-2.6,9.6-3.8,15.7-3.8c6.2,0,11.4,1.3,15.6,3.9c4.2,2.6,7.5,6.1,9.7,10.5
			c2.2,4.4,3.3,9.2,3.3,14.6V373h-14.8v-9.2h-0.2c-1.1,1.9-2.4,3.7-4,5.3c-1.6,1.6-3.6,2.8-5.9,3.8
			C249.9,373.8,247.1,374.3,244,374.3z M248.2,361.7c2.9,0,5.4-0.7,7.4-2.2c2.1-1.4,3.7-3.4,4.8-5.9c1.1-2.5,1.7-5.2,1.7-8.3
			c0-3-0.6-5.7-1.7-8.1c-1.1-2.4-2.7-4.3-4.8-5.8c-2.1-1.4-4.6-2.2-7.4-2.2c-2.9,0-5.5,0.7-7.6,2.2c-2.1,1.4-3.7,3.4-4.9,5.8
			c-1.1,2.4-1.7,5.1-1.7,8.1c0,3,0.6,5.8,1.7,8.3c1.1,2.5,2.7,4.4,4.9,5.9C242.7,361,245.2,361.7,248.2,361.7z"/>
		<path style="fill:#0055CC;" d="M291.1,373v-31.6c0-4.5,1.1-8.7,3.2-12.4c2.1-3.7,5.2-6.7,9.2-9c4-2.2,8.8-3.3,14.5-3.3
			c5.7,0,10.5,1.1,14.5,3.3c4,2.2,7,5.2,9.2,9c2.1,3.7,3.2,7.9,3.2,12.4V373H330v-31.6c0-2.2-0.5-4.3-1.6-6.1
			c-1.1-1.8-2.5-3.3-4.4-4.4c-1.8-1.1-3.9-1.6-6.1-1.6c-2.2,0-4.3,0.5-6.1,1.6c-1.8,1.1-3.3,2.5-4.4,4.4c-1.1,1.8-1.6,3.9-1.6,6.1
			V373H291.1z"/>
	</g>
</g>
</svg>
