<?xml version="1.0"?>
<svg xmlns="http://www.w3.org/2000/svg" viewBox="0 0 48 48" width="512" height="512"><g id="Line"><path d="M42.67,20.39l-3.45-2.13A6,6,0,0,0,41,14a1,1,0,0,0,1-1V11a7,7,0,0,0-14,0v.26a7,7,0,0,0-8,0V11A7,7,0,0,0,6,11v2a1,1,0,0,0,1,1,6,6,0,0,0,1.78,4.26L5.33,20.39a7.06,7.06,0,0,0-3.33,6V37a1,1,0,0,0,1,1H13v5a1,1,0,0,0,1,1H34a1,1,0,0,0,1-1V38H45a1,1,0,0,0,1-1V26.35A7.06,7.06,0,0,0,42.67,20.39Zm-26.34,6A7,7,0,0,0,14.53,28l2.36-9.45.11-.1V19a1,1,0,0,0,1,1,6,6,0,0,0,1.78,4.26ZM13,25.88,11.48,19.8a5.88,5.88,0,0,0,3,0Zm15-6V20a4,4,0,0,1-8,0v-.28a4.22,4.22,0,0,0,2.26-1.54C23.23,19,25,19.69,28,19.92Zm-4,13L23.28,30h1.44ZM25.21,28A1.55,1.55,0,0,0,25,28H23a1.55,1.55,0,0,0-.21,0l-.58-2.31a6.07,6.07,0,0,0,3.58,0Zm3-3.78A6,6,0,0,0,30,20a1,1,0,0,0,1-1v-.54l.11.1L33.47,28a7,7,0,0,0-1.8-1.62ZM35,25.88,33.48,19.8a5.88,5.88,0,0,0,3,0ZM39,14a4,4,0,0,1-8,0v-.22a12.25,12.25,0,0,0,4.54-2.1A4.92,4.92,0,0,0,39,13.81Zm-9-3a5,5,0,0,1,10,0V12c-2.81-.28-3-1.77-3-2a1,1,0,0,0-.62-.9,1,1,0,0,0-1.09.21A10.49,10.49,0,0,1,30,11.93Zm-6,1a5,5,0,0,1,5,5v1c-4.65-.16-5.91-1.49-6-2A1,1,0,0,0,21,16c0,.07,0,1.54-2,1.91V17A5,5,0,0,1,24,12ZM8,11a5,5,0,0,1,10,0V12c-2.81-.28-3-1.77-3-2a1,1,0,0,0-.62-.9,1,1,0,0,0-1.09.21A10.49,10.49,0,0,1,8,11.93Zm5.54.68A4.92,4.92,0,0,0,17,13.81V14a4,4,0,0,1-8,0v-.22A12.25,12.25,0,0,0,13.54,11.68ZM4,26.35a5,5,0,0,1,2.38-4.26l3.13-1.93,2.49,10V36H4Zm11,6a5,5,0,0,1,2.38-4.26l.62-.38v5.57a2,2,0,1,0,2,0v-6.8l.29-.18L23,37.12V42H15ZM33,42H25V37.12L27.71,26.3l.29.18v5.7A3,3,0,0,0,26,35v3a1,1,0,0,0,2,0V35a1,1,0,0,1,2,0v3a1,1,0,0,0,2,0V35a3,3,0,0,0-2-2.82V27.71l.62.38A5,5,0,0,1,33,32.35Zm11-6H36V30.12l2.49-10,3.13,1.93A5,5,0,0,1,44,26.35Z"/></g></svg>
