<?xml version="1.0" encoding="utf-8"?>
<!-- Generator: Adobe Illustrator 25.2.3, SVG Export Plug-In . SVG Version: 6.00 Build 0)  -->
<svg version="1.1" id="Capa_1" xmlns="http://www.w3.org/2000/svg" xmlns:xlink="http://www.w3.org/1999/xlink" x="0px" y="0px"
	 viewBox="0 0 512 512" style="enable-background:new 0 0 512 512;" xml:space="preserve">
<g>
	<g>
		<g>
			<path style="fill:#FFCAA6;" d="M256,246c-25.6,0-46.4-20.8-46.4-46.4v-40.1h92.7v40.1C302.4,225.3,281.6,246,256,246L256,246z"/>
		</g>
		<g>
			<g>
				<path style="fill:#33D399;" d="M302.4,115.6h-48.7c-24.3,0-44,19.7-44,44h92.7V115.6z"/>
			</g>
		</g>
		<g>
			<g>
				<path style="fill:#6CD4E5;" d="M66.6,177.1c0,20.6,16.7,37.3,37.3,37.3s37.3-16.7,37.3-37.3v-25.3H66.6V177.1z"/>
			</g>
			<g>
				<path style="fill:#6CD4E5;" d="M117.2,107H90.5c-13.2,0-23.9,10.7-23.9,23.9v21h74.6v-21C141.2,117.7,130.4,107,117.2,107z"/>
			</g>
		</g>
		<g>
			<path style="fill:#FFDDD6;" d="M408.1,214.4c20.6,0,37.3-16.7,37.3-37.3v-32.3h-74.6v32.3C370.8,197.7,387.5,214.4,408.1,214.4z"/>
		</g>
		<g>
			<path style="fill:#D6C7F9;" d="M432.9,100h-49.6c-8,0-13.5,7.9-10.9,15.4l10.3,29.5h50.9l10.3-29.5C446.5,107.8,440.9,100,432.9,100z"/>
		</g>
		<g>
			<g>
				<path style="fill:#D6C7F9;" d="M392.9,211.2c-2.4,10.5-10.6,18.8-21.2,21.1l-33.1,7.4c-14.3,3.2-24.4,15.9-24.4,30.5v69.1h93.9H502v-69.1
					c0-14.6-10.2-27.3-24.4-30.5l-33.1-7.4c-10.6-2.4-18.8-10.6-21.2-21.1L392.9,211.2z"/>
			</g>
		</g>
		<g>
			<path style="fill:#FFDDD6;" d="M423.3,211.2h-30.4c-1.9,8.4-7.5,15.3-15,19c14,15.1,29.6,31.9,29.6,31.9l30-32.3
				C430.4,226,425.1,219.3,423.3,211.2L423.3,211.2z"/>
		</g>
		<g>
			<path style="fill:#6CD4E5;" d="M119.1,211.2c2.4,10.5,10.6,18.8,21.2,21.1l33.1,7.4c14.3,3.2,24.4,15.9,24.4,30.5v69.1h-93.9H10v-69.1
				c0-14.6,10.2-27.3,24.4-30.5l33.1-7.4c10.6-2.4,18.8-10.6,21.2-21.1L119.1,211.2z"/>
		</g>
		<g>
			<path style="fill:#FFDDD6;" d="M88.9,211.2h30.4c1.9,8.4,7.5,15.3,15,19c-14,15.1-29.6,31.9-29.6,31.9l-30-32.3
				C81.8,226,87.1,219.3,88.9,211.2L88.9,211.2z"/>
		</g>
		<g>
			<path style="fill:#FFFFFF;" d="M274.9,242c3,13.1,13.2,23.3,26.3,26.3l41.1,9.2c17.8,4,30.4,19.7,30.4,37.9V412H256H139.3v-96.6
				c0-18.2,12.6-34,30.4-37.9l41.1-9.2c13.1-2.9,23.4-13.2,26.3-26.3L274.9,242L274.9,242z"/>
		</g>
		<g>
			<path style="fill:#FFCAA6;" d="M274.3,243.6h-37c-2.3,10.2-9.1,18.6-18.3,23.1c17,18.3,36.1,38.9,36.1,38.9l36.5-39.4
				C283,261.6,276.6,253.4,274.3,243.6L274.3,243.6z"/>
		</g>
		<g>
			<path style="fill:#CCF5FD;" d="M245.8,199.6h-25.9c-5.7,0-10.2-4.6-10.2-10.2v-19.5c0-5.7,4.6-10.2,10.2-10.2h25.9
				c5.7,0,10.2,4.6,10.2,10.2v19.5C256,195,251.4,199.6,245.8,199.6z"/>
		</g>
		<g>
			<path style="fill:#CCF5FD;" d="M266.2,199.6h25.9c5.7,0,10.2-4.6,10.2-10.2v-19.5c0-5.7-4.6-10.2-10.2-10.2h-25.9
				c-5.7,0-10.2,4.6-10.2,10.2v19.5C256,195,260.6,199.6,266.2,199.6z"/>
		</g>
	</g>
	<g>
		<path d="M479.7,229.9l-33.1-7.4c-4.4-1-8.2-3.6-10.8-7.2c11.8-8.6,19.5-22.5,19.5-38.2v-5.7c9.6-12.6,10.4-30,1.5-43.5l-4.5-6.9
			l0.8-2.4c2.3-6.6,1.2-13.9-2.8-19.6s-10.6-9.1-17.6-9.1h-49.6c-7,0-13.5,3.4-17.6,9.1c-4,5.7-5.1,13-2.8,19.6l0.8,2.4l-4.5,6.9
			c-8.9,13.6-8.1,30.9,1.5,43.5v5.7c0,15.7,7.7,29.6,19.5,38.2c-2.5,3.6-6.3,6.2-10.8,7.2l-33.1,7.4c-15.2,3.4-26.8,14.7-30.8,29.1
			l-2.4-0.5c-6.9-1.5-12.7-6-16.1-12c15.1-10.1,25.1-27.3,25.1-46.9v-84.1c0-5.5-4.5-10-10-10h-48.7c-29.8,0-54,24.2-54,54v40.1
			c0,19.5,10,36.7,25.1,46.9c-3.4,6-9.2,10.4-16.1,12l-2.4,0.5c-4-14.4-15.5-25.7-30.8-29.1l-33.1-7.4c-4.4-1-8.2-3.6-10.8-7.2
			c11.8-8.6,19.5-22.5,19.5-38.2v-46.2c0-18.7-15.2-33.9-33.9-33.9H90.5c-18.7,0-33.9,15.2-33.9,33.9v46.2
			c0,15.7,7.7,29.6,19.5,38.2c-2.5,3.6-6.3,6.2-10.8,7.2l-33.1,7.4C13.3,234.2,0,250.7,0,270.2v69.1c0,5.5,4.5,10,10,10h119.3V412
			c0,5.5,4.5,10,10,10h72c5.5,0,10-4.5,10-10s-4.5-10-10-10h-62v-86.6c0-13.6,9.3-25.2,22.6-28.2l24.7-5.5v38.4
			c-13.5,4.3-23.3,16.9-23.3,31.8v12.6c0,8.7,7.1,15.8,15.8,15.8c5.5,0,10-4.5,10-10c0-4-2.4-7.5-5.8-9.1v-9.4
			c0-7.3,6-13.3,13.3-13.3s13.3,6,13.3,13.3v9.4c-3.4,1.6-5.8,5.1-5.8,9.1c0,5.5,4.5,10,10,10c8.7,0,15.8-7.1,15.8-15.8v-12.6
			c0-14.9-9.8-27.5-23.3-31.8v-41.9l31.7,34.1c1.9,2,4.5,3.2,7.3,3.2c2.8,0,5.4-1.2,7.3-3.2l32.7-35.2c1.1,0.4,3.7,1,3.7,1v52
			c-7,3.6-11.8,11-11.8,19.4c0,12,9.8,21.8,21.8,21.8s21.8-9.8,21.8-21.8c0-8.4-4.8-15.8-11.8-19.4v-47.5l20.8,4.7
			c13.3,3,22.6,14.5,22.6,28.2V402h-61.5c-5.5,0-10,4.5-10,10s4.5,10,10,10h71.5c5.5,0,10-4.5,10-10v-62.7H502c5.5,0,10-4.5,10-10
			v-69.1C512,250.7,498.7,234.2,479.7,229.9L479.7,229.9z M380.8,177.1v-22.3h1.8h50.9h1.8v22.3c0,15-12.2,27.3-27.3,27.3
			S380.8,192.2,380.8,177.1L380.8,177.1z M382.1,110.6c0.3-0.4,0.7-0.7,1.3-0.7H433c0.5,0,1,0.2,1.3,0.7s0.4,0.9,0.2,1.4l-7.9,22.8
			h-36.7L382,112C381.7,111.6,381.7,111.1,382.1,110.6L382.1,110.6z M408.1,224.4c3.2,0,6.3-0.3,9.3-0.9c1.5,2.7,3.3,5.1,5.4,7.4
			l-15.3,16.5l-14.7-15.9c2.3-2.4,4.4-5.1,6-8C401.8,224.1,404.9,224.4,408.1,224.4z M221,209.6h24.7c3.7,0,7.2-1,10.2-2.8
			c3,1.8,6.5,2.8,10.2,2.8H291c-4.3,15.3-18.4,26.5-35,26.5C239.4,236,225.3,224.8,221,209.6L221,209.6z M292.4,169.8v19.5
			c0,0.1-0.1,0.2-0.2,0.2h-25.9c-0.1,0-0.2-0.1-0.2-0.2v-19.5c0-0.1,0.1-0.2,0.2-0.2h25.9C292.2,169.6,292.4,169.7,292.4,169.8z
			 M246,169.8v19.5c0,0.1-0.1,0.2-0.2,0.2h-25.9c-0.1,0-0.2-0.1-0.2-0.2v-19.5c0-0.1,0.1-0.2,0.2-0.2h25.9
			C245.9,169.6,246,169.7,246,169.8z M253.6,125.6h38.7v24h-0.2h-71C225.4,135.7,238.4,125.6,253.6,125.6z M76.6,177.1v-15.3h54.6
			v15.3c0,15-12.2,27.3-27.3,27.3S76.6,192.2,76.6,177.1z M90.5,117h26.7c7.7,0,13.9,6.2,13.9,13.9v11H76.6v-11
			C76.6,123.2,82.8,117,90.5,117z M103.9,224.4c3.2,0,6.3-0.3,9.3-0.9c1.6,2.9,3.7,5.6,6,8l-14.7,15.9l-15.3-16.5
			c2.1-2.2,3.9-4.7,5.4-7.4C97.6,224.1,100.7,224.4,103.9,224.4z M167.5,267.7c-22.5,5-38.2,24.6-38.2,47.7v13.9H20v-59.1
			c0-10,6.8-18.6,16.6-20.7c0,0,34.5-7.7,35.2-7.9l25.4,27.3c1.9,2,4.5,3.2,7.3,3.2s5.4-1.2,7.3-3.2l25.1-27.1
			c0.4,0.1,34.2,7.7,34.2,7.7c7.5,1.7,13.2,7,15.5,14L167.5,267.7z M255.6,290.8l-22-23.7c3.9-3.6,7.1-7.9,9.5-12.6
			c4.1,1,8.4,1.5,12.9,1.5c4.4,0,8.7-0.5,12.9-1.5c2.3,4.6,5.4,8.7,9.1,12.2L255.6,290.8z M492,329.3H382.7v-13.9
			c0-23-15.7-42.7-38.2-47.7l-19.2-4.3c2.3-6.9,8-12.3,15.5-14c0,0,33.8-7.6,34.2-7.7l25.1,27.1c1.9,2,4.5,3.2,7.3,3.2
			s5.4-1.2,7.3-3.2l25.4-27.3c0.7,0.2,35.2,7.9,35.2,7.9c9.8,2.2,16.6,10.7,16.6,20.7L492,329.3L492,329.3z"/>
		<path d="M73.9,279.9c-0.7-4.9-4.8-8.7-9.9-8.7s-9.3,3.8-9.9,8.7c-4.9,0.7-8.7,4.8-8.7,9.9s3.8,9.3,8.7,9.9
			c0.7,4.9,4.8,8.7,9.9,8.7s9.3-3.8,9.9-8.7c4.9-0.7,8.7-4.8,8.7-9.9S78.8,280.5,73.9,279.9z"/>
		<path d="M463,279.9c-0.7-4.9-4.8-8.7-9.9-8.7s-9.3,3.8-9.9,8.7c-4.9,0.7-8.7,4.8-8.7,9.9s3.8,9.3,8.7,9.9c0.7,4.9,4.8,8.7,9.9,8.7
			s9.3-3.8,9.9-8.7c4.9-0.6,8.7-4.8,8.7-9.9S467.9,280.5,463,279.9z"/>
		<circle cx="256.2" cy="412" r="10"/>
	</g>
</g>
</svg>
