<?xml version="1.0" encoding="utf-8"?>
<!-- Generator: Adobe Illustrator 26.0.3, SVG Export Plug-In . SVG Version: 6.00 Build 0)  -->
<svg version="1.1" xmlns="http://www.w3.org/2000/svg" xmlns:xlink="http://www.w3.org/1999/xlink" x="0px" y="0px"
	 viewBox="0 0 879.09 768.71" style="enable-background:new 0 0 879.09 768.71;" xml:space="preserve">
<style type="text/css">
	.st0{fill:#686868;}
	.st1{fill:none;stroke:#686868;stroke-width:13;stroke-miterlimit:10;}
</style>
<g id="Q">
	<g>
		<polygon class="st0" points="819.24,712.01 497.28,682.08 499.5,658.18 714.73,678.19 612.5,617.85 624.7,597.18 		"/>
	</g>
</g>
<g id="O">
	<g>
		<path class="st0" d="M421.8,691.57c-85.69,0-166.25-33.37-226.85-93.96c-60.59-60.59-93.96-141.15-93.96-226.85
			c0-85.69,33.37-166.25,93.96-226.85c60.59-60.59,141.16-93.96,226.85-93.96s166.25,33.37,226.85,93.96
			c60.59,60.59,93.96,141.16,93.96,226.85c0,85.69-33.37,166.25-93.96,226.85C588.05,658.2,507.49,691.57,421.8,691.57z
			 M421.8,73.96c-79.28,0-153.82,30.87-209.88,86.93c-56.06,56.06-86.93,130.6-86.93,209.88s30.87,153.82,86.93,209.88
			c56.06,56.06,130.59,86.93,209.88,86.93s153.82-30.87,209.88-86.93c56.06-56.06,86.93-130.6,86.93-209.88
			s-30.87-153.82-86.93-209.88C575.62,104.83,501.08,73.96,421.8,73.96z"/>
	</g>
</g>
<g id="health">
	<g>
		<path class="st1" d="M277.96,548.81V435.63h23.12v45.44h49.48v-45.44h23.12v113.18h-23.12v-47.38h-49.48v47.38H277.96z"/>
		<path class="st1" d="M435.77,550.75c-8.41,0-15.63-1.67-21.67-5.01c-6.04-3.34-10.65-7.81-13.82-13.42
			c-3.18-5.6-4.77-11.8-4.77-18.59v-47.38h22.15v47.38c0,3.34,0.81,6.39,2.43,9.14c1.62,2.75,3.8,4.93,6.55,6.55
			c2.75,1.62,5.79,2.43,9.14,2.43c3.34,0,6.39-0.81,9.14-2.43c2.75-1.62,4.93-3.8,6.55-6.55c1.62-2.75,2.42-5.79,2.42-9.14v-47.38
			h22.15v47.38c0,6.79-1.59,12.99-4.77,18.59c-3.18,5.61-7.76,10.08-13.74,13.42S444.28,550.75,435.77,550.75z"/>
		<path class="st1" d="M539.73,550.75c-8.84,0-16.52-1.83-23.04-5.5c-6.52-3.66-11.56-8.87-15.12-15.6
			c-3.56-6.74-5.34-14.63-5.34-23.69v-75.19h22.15v45.76h0.16c1.72-2.48,3.85-4.63,6.39-6.47c2.53-1.83,5.39-3.23,8.57-4.2
			c3.18-0.97,6.49-1.46,9.94-1.46c8.08,0,15.09,1.78,21.02,5.34c5.93,3.56,10.54,8.44,13.82,14.63c3.29,6.2,4.93,13.4,4.93,21.59
			c0,6.47-0.97,12.42-2.91,17.87c-1.94,5.44-4.74,10.19-8.41,14.23c-3.67,4.04-8.19,7.17-13.58,9.38
			C552.94,549.64,546.74,550.75,539.73,550.75z M539.73,531.83c4.42,0,8.19-1.08,11.32-3.23c3.13-2.16,5.52-5.07,7.2-8.73
			c1.67-3.66,2.51-7.76,2.51-12.29c0-4.53-0.84-8.62-2.51-12.29c-1.67-3.66-4.07-6.57-7.2-8.73c-3.13-2.16-6.9-3.23-11.32-3.23
			c-4.31,0-8.06,1.08-11.24,3.23c-3.18,2.16-5.61,5.07-7.28,8.73c-1.67,3.67-2.51,7.76-2.51,12.29c0,4.53,0.83,8.63,2.51,12.29
			c1.67,3.67,4.1,6.58,7.28,8.73C531.67,530.75,535.42,531.83,539.73,531.83z"/>
	</g>
</g>
<g id="ur">
	<g>
		<g>
			<path class="st0" d="M358.65,417.03c-17.36,0-33.01-3.52-46.49-10.45c-13.71-7.05-24.59-17.24-32.36-30.28
				c-7.73-12.97-11.65-28.37-11.65-45.75V209.23h67.65v123.73c0,4.94,0.97,9.25,2.96,13.16c1.9,3.74,4.46,6.6,7.83,8.74
				c3.29,2.09,7.23,3.1,12.06,3.1c4.65,0,8.51-1.01,11.79-3.1c3.32-2.11,5.83-4.93,7.64-8.63c1.94-3.94,2.88-8.28,2.88-13.27V209.23
				h67.65v121.32c0,17.38-3.92,32.77-11.65,45.75c-7.75,13.03-18.59,23.21-32.2,30.26C391.36,413.51,375.84,417.03,358.65,417.03z
				 M285.15,226.23v104.32c0,14.28,3.11,26.74,9.25,37.05c6.19,10.41,14.54,18.21,25.52,23.86c11.06,5.69,24.08,8.57,38.72,8.57
				c14.45,0,27.33-2.88,38.29-8.56c10.9-5.65,19.22-13.46,25.41-23.87c6.14-10.31,9.25-22.78,9.25-37.05V226.23h-33.65v106.73
				c0,7.53-1.56,14.52-4.62,20.76c-3.19,6.49-7.83,11.7-13.79,15.49c-6.01,3.81-13.04,5.75-20.9,5.75c-8.04,0-15.16-1.93-21.17-5.74
				c-5.93-3.76-10.6-8.94-13.88-15.38c-3.19-6.27-4.81-13.29-4.81-20.87V226.23H285.15z"/>
		</g>
		<g>
			<path class="st0" d="M535.77,413.81h-68.3V268.64c0-19.23,5.69-34.67,16.91-45.89c11.22-11.22,26.66-16.91,45.89-16.91h61.3
				v60.81h-52.31c-1.07,0-1.79,0.29-2.58,1.04c-0.46,0.44-0.91,0.98-0.91,2.45V413.81z M484.47,396.81h34.3V270.14
				c0-5.83,2.15-10.94,6.22-14.79c3.92-3.72,8.86-5.7,14.27-5.7h35.31v-26.81h-44.3c-14.76,0-25.84,3.9-33.87,11.93
				c-8.03,8.02-11.93,19.1-11.93,33.87V396.81z"/>
		</g>
	</g>
</g>
</svg>
