<svg xmlns="http://www.w3.org/2000/svg" viewBox="0 0 512 512">
  <g xmlns="http://www.w3.org/2000/svg">
    <path fill="#fff" d="M256 504.5c-93.889 0-170-76.112-170-170v-267c0-33.137 26.863-60 60-60h220c33.137 0 60 26.863 60 60v267c0 93.888-76.112 170-170 170z" data-original="#e1e1e3"/>
    <path fill="#d6c7f9" d="M366 37.5h-30l-80 437c77.32 0 140-62.68 140-140v-267c0-16.569-13.431-30-30-30z" data-original="#928bff"/>
    <path fill="#d6c7f9" d="M366 334.5L291 201l75-133.5c0-16.569-13.431-30-30-30H146c-16.569 0-30 13.431-30 30v267c0 77.32 62.68 140 140 140 60.751 0 110-62.68 110-140z" data-original="#83b3f1"/>
    <path fill="#fff" d="M256 364.5v80c22.091 0 40-17.909 40-40s-17.909-40-40-40z" data-original="#d6f9fa"/>
    <path fill="#fff" d="M266 404.5c0-22.091-4.477-40-10-40-22.091 0-40 17.909-40 40s17.909 40 40 40c5.523 0 10-17.909 10-40z" data-original="#ffffff"/>
    <path fill="#fff" d="M336 67.5L246 201l90 133.5h30v-267z" data-original="#20335a"/>
    <path fill="#fff" d="M146 67.5v267h190v-30l-30-45 30-45v-147z" data-original="#2b4478"/>
    <path fill="#fff" d="M282.667 214.5l-30 45 30 45H336v-90z" data-original="#3ac7cf"/>
    <path fill="#fff" d="M229.333 214.5l-30 45 30 45h53.334v-90z" data-original="#74dce2"/>
    <path fill="#fff" d="M176 214.5h53.333v90H176z" data-original="#fffbbe"/>
    <path fill="#6cd4e5" d="M276 97.5c-2.98 0-5.855.44-8.572 1.249L256 184.5s50-21.239 50-57c0-16.569-13.431-30-30-30z" data-original="#ff3a33"/>
    <path fill="#6cd4e5" d="M267.428 98.749A29.958 29.958 0 00256 105.145a29.884 29.884 0 00-20-7.645c-16.569 0-30 13.431-30 30 0 35.761 50 57 50 57s20-21.239 20-57c0-13.589-3.615-25.062-8.572-28.751z" data-original="#fe5e49"/>
    <path d="M366 0H146c-37.22 0-67.5 30.28-67.5 67.5v267C78.5 432.374 158.126 512 256 512s177.5-79.626 177.5-177.5v-267C433.5 30.28 403.22 0 366 0zm52.5 334.5c0 89.603-72.897 162.5-162.5 162.5S93.5 424.103 93.5 334.5v-267C93.5 38.551 117.052 15 146 15h220c28.948 0 52.5 23.551 52.5 52.5z" data-original="#000000"/>
    <path d="M208.5 404.5c0 26.191 21.309 47.5 47.5 47.5s47.5-21.309 47.5-47.5S282.191 357 256 357s-47.5 21.309-47.5 47.5zm80 0c0 17.92-14.579 32.5-32.5 32.5s-32.5-14.58-32.5-32.5S238.079 372 256 372s32.5 14.58 32.5 32.5zM373.5 334.5v-267A7.5 7.5 0 00366 60H146a7.5 7.5 0 00-7.5 7.5v267a7.5 7.5 0 007.5 7.5h220a7.5 7.5 0 007.5-7.5zm-15-7.5h-205V75h205z" data-original="#000000"/>
    <path d="M176 312h160a7.5 7.5 0 007.5-7.5v-90a7.5 7.5 0 00-7.5-7.5H176a7.5 7.5 0 00-7.5 7.5v90a7.5 7.5 0 007.5 7.5zm60.833-15v-75h38.334v75zm91.667 0h-38.333v-75H328.5zm-145-75h38.333v75H183.5zM253.067 191.403a7.504 7.504 0 005.866 0c2.228-.946 54.567-23.642 54.567-63.903 0-20.678-16.822-37.5-37.5-37.5a37.43 37.43 0 00-20 5.779A37.43 37.43 0 00236 90c-20.678 0-37.5 16.822-37.5 37.5 0 40.261 52.34 62.957 54.567 63.903zM236 105a22.452 22.452 0 0114.997 5.733 7.5 7.5 0 0010.006 0A22.452 22.452 0 01276 105c12.406 0 22.5 10.093 22.5 22.5 0 25.764-32.459 43.768-42.507 48.722-10.064-4.94-42.493-22.87-42.493-48.722 0-12.407 10.094-22.5 22.5-22.5z" data-original="#000000"/>
  </g>
</svg>
