<?xml version="1.0" encoding="utf-8"?>
<!-- Generator: Adobe Illustrator 25.2.3, SVG Export Plug-In . SVG Version: 6.00 Build 0)  -->
<svg version="1.1" id="Capa_1" xmlns="http://www.w3.org/2000/svg" xmlns:xlink="http://www.w3.org/1999/xlink" x="0px" y="0px"
	 viewBox="0 0 512 512" style="enable-background:new 0 0 512 512;" xml:space="preserve">
<path d="M250.1,460.7c-77-48.4-136.2-96.9-171.3-140.4c-9.9-12.1-18.6-24.4-25.7-36.6H3V228h27.5c-2.5-11-3.7-22-3.7-32.8
	C26.8,114.6,91,49,169.8,49c31.5,0,62.2,10.7,87.1,30.3C281.9,59.7,312.6,49,344.1,49c78.9,0,143,65.6,143,146.2
	c0,10.8-1.2,21.8-3.7,32.8H510v55.7h-49.2c-7.2,12.2-15.8,24.6-25.8,36.7c-34.6,43-95.5,92.8-171.2,140.3L257,465L250.1,460.7z
	 M120.6,284.6c29.2,35.6,75.1,74.2,136.3,114.6c61.3-40.4,107.1-79,136.3-114.6c0.3-0.3,0.5-0.6,0.8-1h-58.6l-4.4-5.8l-52.2,99.6
	L229.5,261l-40.3,74.7l-38.5-52h-30.8C120.1,284,120.4,284.3,120.6,284.6z M284.1,249.8l38.7-73.9l39.4,52.1h64.7
	c3.9-11.2,5.7-22,5.7-32.8c0-49.9-39.7-90.5-88.6-90.5c-25.5,0-49.8,11.3-66.6,30.9L257,159.5l-20.5-23.9
	c-16.8-19.7-41.1-30.9-66.6-30.9c-48.8,0-88.6,40.6-88.6,90.5c0,10.8,1.9,21.6,5.7,32.8h90.7l4.3,5.8l53.4-98.8L284.1,249.8z"/>
<path style="fill:#6CD4E5;" d="M253.5,455c-76.4-48-135.1-96-169.6-138.9c-10.6-13-19.7-26.1-27-39.1H9.6v-42.2H39c-3.7-13.3-5.6-26.6-5.6-39.5
	c0-76.9,61.2-139.5,136.5-139.5c31.9,0,62.6,11.4,87.1,32.2c24.5-20.8,55.2-32.2,87.1-32.2c75.2,0,136.5,62.6,136.5,139.5
	c0,13-1.9,26.2-5.6,39.5h28.5v42.2h-46.4c-7.3,13-16.4,26.1-27.1,39.1c-34.2,42.5-94.5,91.8-169.6,138.9l-3.4,2.2L253.5,455z
	 M106.3,276.9c2.9,4,6,8,9.3,12c30.2,36.9,77.8,76.6,141.4,118.3c63.6-41.7,111.2-81.5,141.4-118.3c3.3-4,6.4-8,9.3-12h-68.9
	l-8.6-11.4l-50.6,96.5l-49.3-116.3l-41.9,77.6l-34.4-46.4H106.3z M283.5,265.2l40.4-77l35.2,46.5h72.5c5.2-13.5,7.7-26.5,7.7-39.5
	c0-53.6-42.7-97.2-95.1-97.2c-27.4,0-53.5,12.1-71.6,33.2L257,149.3l-15.5-18.1c-18.1-21.1-44.2-33.2-71.6-33.2
	c-52.5,0-95.1,43.6-95.1,97.2c0,13,2.5,26,7.7,39.5h92l8.4,11.4l51.8-95.9L283.5,265.2z"/>
<path style="fill:#6CD4E5;" d="M496.9,241.4H466c5.3-15.6,8-31.1,8-46.2c0-73.2-58.3-132.8-129.9-132.8c-32.3,0-63.4,12.4-87.1,34.3
	c-23.8-22-54.8-34.3-87.1-34.3C98.2,62.4,40,122,40,195.2c0,15.2,2.7,30.6,8,46.2H16.1v28.8h44.5c7.4,13.8,16.9,27.6,28.3,41.5
	c34.9,43.3,95.1,91.7,168,137.5c72.7-45.6,133.4-94.6,168-137.5c11.4-13.9,20.8-27.8,28.3-41.5h43.6V241.4z M68.1,195.2
	c0-57.3,45.6-104,101.7-104c29.3,0,57.2,12.9,76.5,35.5l10.6,12.4l10.6-12.4c19.3-22.6,47.2-35.5,76.5-35.5
	c56.1,0,101.7,46.6,101.7,104c0,15.1-3.3,30.5-9.9,46.2h-80.1l-30.9-40.9l-42,80.1L234,165.4l-50.3,93l-12.6-17H78
	C71.4,225.7,68.1,210.3,68.1,195.2L68.1,195.2z M403.4,293.3c-31.2,38.1-80.4,79.1-146.4,122c-66-42.9-115.2-83.9-146.4-122
	c-6.4-7.8-12.1-15.5-17-23h63.6l30.3,40.9l43.5-80.5l49.2,116.1l49-93.4l12.8,16.9h78.4C415.4,277.8,409.8,285.5,403.4,293.3
	L403.4,293.3z"/>
</svg>
