<?xml version="1.0" encoding="utf-8"?>
<!-- Generator: Adobe Illustrator 25.2.3, SVG Export Plug-In . SVG Version: 6.00 Build 0)  -->
<svg version="1.1" id="Layer_1" xmlns="http://www.w3.org/2000/svg" xmlns:xlink="http://www.w3.org/1999/xlink" x="0px" y="0px"
	 viewBox="0 0 512 512" style="enable-background:new 0 0 512 512;" xml:space="preserve">
<style type="text/css">
	.st0{fill-rule:evenodd;clip-rule:evenodd;}
</style>
<g id="heartbeat">
	<path class="st0" d="M245.3,452c-2.5,0-4.9-0.6-7.1-1.8C230.1,445.6,38.7,338,38.7,181.3C38.7,122.9,70,60,138.7,60
		c50,0,87.4,25.5,106.7,42.3C264.6,85.5,302,60,352,60c31.6,0,57.9,13.5,76,39.2c15.5,21.9,24,51.1,24,82.2
		c0,35.9-10.2,72.1-30.2,107.7c-16.1,28.5-38.5,56.7-66.7,83.9c-49.6,47.7-100.5,76.1-102.6,77.3C250.3,451.3,247.8,452,245.3,452z
		 M138.7,89.3c-55.9,0-70.7,60.2-70.7,92c0,53,26.3,106.9,78.2,160.1c39.8,40.8,83.7,69.4,99.1,78.8c15.4-9.5,59.3-38,99.1-78.8
		c51.9-53.3,78.2-107.1,78.2-160.1c0-31.8-14.8-92-70.7-92c-56,0-95.4,42.7-95.7,43.1c-2.7,3-6.6,4.7-10.9,4.7s-8.3-1.7-10.9-4.7
		C234,132,194.7,89.3,138.7,89.3z M224,345.3c-0.3,0-0.6,0-0.9,0c-6.9-0.4-12.7-5.7-13.7-12.6l-12.7-88.6l-2,5.9
		c-2,6-7.6,10-13.9,10h-63.6c-8.1,0-14.7-6.6-14.7-14.7c0-8.1,6.6-14.7,14.7-14.7h53.1l18.3-54c2-5.9,7.8-10,14-10
		c0.4,0,0.8,0,1.3,0.1c6.8,0.6,12.2,5.8,13.2,12.5l10.7,75.2l24.5-98c1.6-6.5,7.7-11.1,14.7-11.1l0.3,0c7,0.4,12.8,5.7,13.7,12.6
		l12.5,87.8l1.7-5.1c2-6,7.6-10,13.9-10h64c8.1,0,14.7,6.6,14.7,14.7c0,8.1-6.6,14.7-14.7,14.7h-53.4l-18,53.9c-2,6-7.6,10-14,10
		c-0.4,0-0.8,0-1.2,0c-6.8-0.6-12.3-5.8-13.2-12.6l-10.7-75.2l-24.5,98C236.6,340.7,230.7,345.3,224,345.3z"/>
	<path id="Fill-33" class="st0" d="M223.4,341.3c-5.1-0.3-9.3-4.1-10-9.2l-15-105.1l-7.4,21.7c-1.5,4.3-5.5,7.3-10.1,7.3h-63.6
		c-5.9,0-10.7-4.8-10.7-10.7s4.8-10.7,10.7-10.7h56l19.3-56.7c1.6-4.7,6.3-7.6,11.1-7.2c4.9,0.5,8.9,4.2,9.6,9.1l13.6,95.4
		l29.5-117.8c1.2-4.9,5.9-8.1,10.9-8.1c5.1,0.3,9.3,4.1,10,9.2l14.9,104.6l7.1-21.1c1.5-4.4,5.5-7.3,10.1-7.3h64
		c5.9,0,10.7,4.8,10.7,10.7s-4.8,10.7-10.7,10.7H317l-18.9,56.7c-1.6,4.7-6.1,7.6-11.1,7.3c-4.9-0.4-8.9-4.2-9.6-9.1l-13.6-95.4
		l-29.5,117.8c-1.2,4.8-5.5,8.1-10.3,8.1C223.8,341.3,223.6,341.3,223.4,341.3L223.4,341.3z M64,181.3
		c0,127.8,151.2,225.4,181.3,243.6c30.2-18.2,181.3-115.8,181.3-243.6c0-33.2-15.6-96-74.7-96c-58.2,0-98.3,44-98.7,44.4
		c-4,4.5-11.9,4.5-15.9,0c-0.4-0.4-40.5-44.4-98.7-44.4C79.6,85.3,64,148.1,64,181.3z M240.1,446.6
		c-8.1-4.5-197.5-111.5-197.5-265.3c0-56.5,30-117.3,96-117.3c52.2,0,90.8,29.2,106.7,43.7C261.2,93.2,299.8,64,352,64
		c66,0,96,60.8,96,117.3c0,153.8-189.4,260.9-197.5,265.3c-1.6,0.9-3.4,1.3-5.2,1.3C243.6,448,241.8,447.5,240.1,446.6z"/>
</g>
</svg>
