<svg xmlns="http://www.w3.org/2000/svg" viewBox="0 0 512.467 530.467">
  <g xmlns="http://www.w3.org/2000/svg">
    <path style="fill:#6CD4E5;" d="M153.4 243.522l34.699-46.268c20.238-26.988 61.438-22.758 76.251 6.88l31.703 63.404 4.513-6.017c8.453-11.27 21.911-18 36-18h161.087C572.489 56.274 343.88-46.664 256.233 106.087c-87.619-152.73-316.256-49.85-241.42 137.434H153.4z"/>
    <path style="fill:#6CD4E5;"  d="M324.367 379.789c-20.096 26.793-61.324 22.986-76.251-6.88l-31.703-63.404-4.513 6.018c-8.453 11.271-21.911 18-36 18H69.335c15.91 19.144 34.687 38.381 56.468 57.62 60.869 53.768 120.849 86.002 123.372 87.348a14.998 14.998 0 0014.117 0c2.523-1.346 62.503-33.58 123.372-87.348 21.78-19.239 40.558-38.475 56.468-57.62h-84.065z" />
    <path style="fill:#D6C7F9;stroke:#000000;stroke-width:20;stroke-miterlimit:10;" d="M497.233 273.522H336.566a15 15 0 00-12 6l-33.637 44.85-53.414-106.825c-4.983-9.969-18.74-11.195-25.416-2.292L168.4 273.522H15.233c-19.902.793-19.887 29.215 0 30H175.9a15 15 0 0012-6l33.637-44.851 53.414 106.825c5.012 10.027 18.769 11.155 25.416 2.292l43.699-58.267h153.167c19.902-.791 19.887-29.213 0-29.999z" />
  </g>
</svg>
