<?xml version="1.0" encoding="utf-8"?>
<!-- Generator: Adobe Illustrator 28.1.0, SVG Export Plug-In . SVG Version: 6.00 Build 0)  -->
<svg version="1.1" id="Layer_1" xmlns="http://www.w3.org/2000/svg" xmlns:xlink="http://www.w3.org/1999/xlink" x="0px" y="0px"
	 viewBox="0 0 265 196" style="enable-background:new 0 0 265 196;" xml:space="preserve">
<g id="wdR9OF.tif">
	<g>
		<path d="M127.2,191c-16.83-4.85-31.95-13.8-48.22-19.98c-2.24-0.85-3.01-2.43-3.01-4.76c0.05-18.31,0.03-36.61,0.03-54.92
			c0-1.83,0.14-3.91,2.54-3.83c12.82,0.43,25.8-2,38.44,1.83c8.47,2.57,16.22,6.75,23.71,11.37c2.85,1.76,5.72,2.67,9.1,2.53
			c4.83-0.19,9.67-0.13,14.5-0.01c2.03,0.05,4.12,0.26,6.05,0.85c3.57,1.09,6.19,3.43,7,7.2c0.8,3.73-1.07,6.58-3.81,8.8
			c-7.09,5.76-15.52,6.31-24.15,5.95c-1.75-0.07-3.5-0.37-5.25-0.42c-2.54-0.08-4.34,1-4.51,3.71c-0.19,2.94,1.65,4.54,4.32,4.38
			c8.01-0.47,16.15,0.11,23.95-2.37c7.23-2.3,12.68-6.68,15.23-14.04c0.98-2.84,2.8-4.56,5.49-5.85c8.46-4.04,16.81-8.3,25.22-12.44
			c10.63-5.24,18.02-3.09,24.15,6.97c0,2.93,0,5.86,0,8.79c-2.35,4.56-6.05,7.74-10.26,10.55c-8.64,5.77-17.15,11.74-26.19,16.85
			c-19.19,10.85-38.13,22.26-59.4,28.85C137.17,191,132.19,191,127.2,191z"/>
		<path d="M27.53,138.68c0-9.95-0.04-19.9,0.02-29.85c0.03-5.47,1.91-7.45,7.38-7.52c9.07-0.11,18.15-0.11,27.23,0
			c5.64,0.06,7.9,2.17,7.93,7.66c0.09,19.9,0.09,39.8-0.01,59.69c-0.03,5.28-2.38,7.49-7.59,7.54c-9.08,0.09-18.15,0.08-27.23,0
			c-5.74-0.05-7.68-2.02-7.71-7.67C27.49,158.58,27.53,148.63,27.53,138.68z M55.94,152.49c-3.46,0.16-5.7,1.75-5.77,5.27
			c-0.07,3.51,2.19,5.29,5.48,5.59c3.05,0.28,5.47-2.32,5.4-5.54C60.97,154.49,59.12,152.81,55.94,152.49z"/>
		<path fill="#80D0E2" d="M124.53,91.68c0.25,5.35-2.63,8.35-8.56,8.9c-11.4,1.07-14.51-0.2-15.34-6.48c-0.3-2.22-0.26-4.31-2.96-5.26
			c-2.61-0.92-3.72,0.84-5.18,2.24c-3.65,3.52-7.27,3.7-11.39,0.59c-1.17-0.88-2.24-1.89-3.37-2.82c-6.71-5.52-7.03-7.54-2.3-14.56
			c2.2-3.26,0.85-5.97-3.12-6.26c-7.83-0.58-9.68-2.39-10.29-10.06c-0.12-1.46-0.18-2.92-0.33-4.38c-0.59-5.67,1.6-8.68,7.1-9.49
			c2.01-0.3,4.08-0.08,5.02-2.62c1-2.69-0.68-4.02-2.25-5.61c-3.4-3.45-3.58-6.62-0.69-10.57c1.12-1.53,2.37-2.98,3.58-4.45
			c4.89-5.92,7.53-6.33,13.7-1.93c1.52,1.08,2.74,1.86,4.72,0.76c2.02-1.13,2.38-2.58,2.34-4.68c-0.12-5.98,2.2-8.36,8.3-8.88
			c1.16-0.1,2.33-0.25,3.48-0.42c8.22-1.21,10.42,0.25,12.21,8.44c0.42,1.91,1.11,3.12,3.08,3.77c2.02,0.66,2.94-0.52,4.1-1.67
			c4.71-4.68,7.8-4.85,12.98-0.75c1.38,1.09,2.71,2.24,4.05,3.37c4.91,4.12,5.32,7.34,1.55,12.44c-1.11,1.5-2.61,2.7-1.42,5.01
			c1.17,2.27,2.93,2.43,5.11,2.44c5.77,0.04,8.21,2.41,8.71,8.16c0.11,1.31,0.2,2.63,0.39,3.93c1.14,7.89-0.57,10.44-8.32,11.86
			c-1.93,0.35-3.18,0.98-3.83,2.96c-0.66,2.01,0.52,2.94,1.68,4.1c4.5,4.47,4.66,7.63,0.7,12.56c-1.19,1.48-2.37,2.98-3.63,4.4
			c-4.4,4.95-7.51,5.28-12.81,1.18c-1.64-1.27-3.07-2.1-5.11-0.89C124.43,88.17,124.36,88.12,124.53,91.68z M108.28,11.79
			c-6.73,0.44-6.78,0.44-6.55,6.95c0.09,2.55-0.95,4.16-3.27,5.11c-1.62,0.67-3.32,1.28-4.75,2.26c-2.51,1.71-4.5,1.1-6.75-0.58
			c-5.43-4.06-5.32-3.83-9.94,1.53c-2.37,2.75-1.97,4.37,0.73,6.32c2.07,1.5,4.83,3.08,3.14,6.33c-2.07,3.99-1.06,10.67-8.62,10.13
			c-3.14-0.22-5.32,1.15-4.42,4.69c0.74,2.92-0.97,7.8,5.12,7.03c1.95-0.25,4.5-1.11,5.77,0.89c1.94,3.05,3.71,6.35,4.75,9.79
			c0.75,2.45-1.94,4.06-3.42,5.79c-1.8,2.1-2.02,3.77,0.5,5.37c0.74,0.47,1.43,1.04,2.02,1.69c2.79,3.08,5.26,3.23,7.65-0.51
			c0.93-1.46,2.09-2.89,4.07-3.06c5.3-0.47,11.64,4.46,12.03,9.72c0.29,3.96,2.75,4.04,5.52,3.62c2.78-0.42,6.67,0.56,6.33-4.49
			c-0.13-1.99-1.18-4.65,0.51-5.89c2.9-2.13,6.26-3.75,9.63-5.05c2.37-0.91,4.13,1.3,5.61,2.76c2.9,2.86,4.95,2.22,7-0.88
			c1.77-2.69,5.88-5.04,0.56-8.25c-3.19-1.93-4.4-4.55-2.28-8.11c0.58-0.98,0.83-2.19,1.07-3.33c0.64-2.95,2.34-4.32,5.41-4.79
			c6.47-0.99,6.35-1.14,5.86-7.82c-0.23-3.09-1.23-4.6-4.63-3.96c-1.97,0.37-4.13,0.66-5.91-0.8c-4.25-3.49-5.37-11.21-1.83-15.25
			c2.94-3.37,1.05-5.06-1.52-7c-2.58-1.96-4.93-4.73-7.92-0.51c-1.74,2.45-3.6,4.73-7.23,3.04c-4-1.85-9.87-1.51-9.48-8.28
			C113.26,12.38,111.82,10.65,108.28,11.79z"/>
		<path fill="#80D0E2" d="M216.93,81.96c0.31,3.23-1.08,4.51-3.53,5.24c-4.71,1.4-5.42,3.6-2.33,7.22c2.46,2.89,0.52,4.81-1.21,6.83
			c-1.76,2.06-3.44,4.04-6.61,1.92c-4.12-2.75-6.34-1.56-6.83,3.55c-0.34,3.49-2.87,3.51-5.38,3.85c-2.55,0.34-4.94,0.77-6.14-2.47
			c-2.26-6.09-2.47-6.07-8.16-2.6c-3.32,2.03-5.07-0.93-7.15-2.53c-1.94-1.5-2.7-3.23-1.11-5.67c2.8-4.27,1.75-6.47-3.41-7.03
			c-3.79-0.41-3.64-3.09-3.97-5.72c-0.34-2.67-0.29-4.86,2.95-5.88c5.27-1.65,5.79-3.18,2.65-7.44c-2.41-3.28,0.29-5.11,1.82-7.24
			c1.55-2.15,3.35-2.92,5.99-1.27c4.18,2.61,6.33,1.54,6.91-3.39c0.4-3.37,2.57-3.84,5.25-3.98c2.81-0.14,5.54-0.64,6.5,3.3
			c1.18,4.81,3.21,5.4,7.21,2.3c3.12-2.42,5.1-0.32,7.27,1.44c2.07,1.69,3.54,3.34,1.68,6.28c-2.62,4.14-1.54,6.33,3.32,6.89
			C217.21,76.09,216.29,79.75,216.93,81.96z M178.48,82.3c-0.29,5.68,4.05,10.6,9.63,10.91c6.19,0.34,10.78-3.76,11-9.83
			c0.2-5.72-4.12-10.45-9.8-10.73C183.5,72.36,178.77,76.57,178.48,82.3z"/>
		<path fill="#80D0E2" d="M89.07,53.36c-0.05-11.63,8.96-20.81,20.38-20.78c11.73,0.04,20.67,8.88,20.73,20.51
			c0.06,11.64-8.81,20.67-20.43,20.81C98.26,74.04,89.12,64.96,89.07,53.36z M109.45,67.79c8.32,0.05,14.67-5.97,14.83-14.06
			c0.17-8.35-6.65-15.22-14.97-15.08c-7.98,0.13-14.35,6.67-14.36,14.74C94.94,61.49,101.23,67.74,109.45,67.79z"/>
	</g>
</g>
</svg>
