<?xml version="1.0" encoding="utf-8"?>
<!-- Generator: Adobe Illustrator 26.0.3, SVG Export Plug-In . SVG Version: 6.00 Build 0)  -->
<svg version="1.1" id="Layer_1" xmlns="http://www.w3.org/2000/svg" xmlns:xlink="http://www.w3.org/1999/xlink" x="0px" y="0px"
	 viewBox="0 0 512 512" style="enable-background:new 0 0 512 512;" xml:space="preserve">

<path class="st0" style="fill:#51C2CE;" d="M351.78,481.38h-39.16v22.26h-37.04v-22.26h-39.16v22.26h-37.04v-22.26h-39.16v22.26h-41.56V54.71
	c25.72,0,46.58-20.76,46.58-46.37h181.69c0,25.56,20.76,46.27,46.4,46.37v448.93h-41.56L351.78,481.38L351.78,481.38z"/>
<polygon class="st1" style="fill:#6CD4E5;" points="351.78,481.38 312.62,481.38 312.62,503.65 275.58,503.65 275.58,481.38 236.42,481.38 236.42,503.65
	199.38,503.65 199.38,481.38 160.22,481.38 160.22,503.65 118.66,503.65 118.66,269.72 393.34,269.72 393.34,503.65 351.78,503.65 
	"/>
<rect x="165.04" y="137.25" class="st2" style="fill:#FFFFFF;" width="181.92" height="293.78"/>
<rect x="165.04" y="269.71" class="st3" style="fill:#F5F5F5;" width="181.92" height="161.3"/>
<g>
	<path class="st4" style="fill:#3C3A41;"  d="M156.69,431.02V137.25c0-4.61,3.74-8.35,8.35-8.35h181.92c4.61,0,8.35,3.74,8.35,8.35v183.9
		c0,4.61-3.74,8.35-8.35,8.35c-4.61,0-8.35-3.74-8.35-8.35V145.59H173.39v277.08h165.22v-51.96c0-4.61,3.74-8.35,8.35-8.35
		s8.35,3.74,8.35,8.35v60.31c0,4.61-3.74,8.35-8.35,8.35H165.04C160.43,439.37,156.69,435.63,156.69,431.02z"/>
	<path class="st4" style="fill:#3C3A41;" d="M110.31,503.65V258.8c0-4.61,3.74-8.35,8.35-8.35s8.35,3.74,8.35,8.35V495.3h24.87v-13.91
		c0-4.61,3.74-8.35,8.35-8.35h39.15c4.61,0,8.35,3.74,8.35,8.35v13.91h20.35v-13.91c0-4.61,3.74-8.35,8.35-8.35h39.15
		c4.61,0,8.35,3.74,8.35,8.35v13.91h20.35v-13.91c0-4.61,3.74-8.35,8.35-8.35h39.15c4.61,0,8.35,3.74,8.35,8.35v13.91H385V62.4
		c-23.51-3.67-42.14-22.28-45.77-45.7H172.95c-3.63,23.51-22.34,42.13-45.95,45.73v151.6c0,4.61-3.74,8.35-8.35,8.35
		s-8.35-3.74-8.35-8.35V54.71c0-4.61,3.74-8.35,8.35-8.35c21.08,0,38.24-17.05,38.24-38.02c0-4.61,3.74-8.35,8.35-8.35l181.69,0
		c4.61,0,8.35,3.74,8.35,8.35c0,20.88,17.09,37.94,38.09,38.01c4.6,0.02,8.32,3.75,8.32,8.35v448.94c0,4.61-3.74,8.35-8.35,8.35
		h-41.56c-4.61,0-8.35-3.74-8.35-8.35v-13.91h-22.46v13.91c0,4.61-3.74,8.35-8.35,8.35h-37.05c-4.61,0-8.35-3.74-8.35-8.35v-13.91
		h-22.46v13.91c0,4.61-3.74,8.35-8.35,8.35h-37.05c-4.61,0-8.35-3.74-8.35-8.35v-13.91h-22.46v13.91c0,4.61-3.74,8.35-8.35,8.35
		h-41.56C114.05,512,110.31,508.26,110.31,503.65z"/>
	<path class="st4" style="fill:#3C3A41;" d="M307.09,100.68V71.9c0-4.61,3.74-8.35,8.35-8.35s8.35,3.74,8.35,8.35v28.78c0,4.61-3.74,8.35-8.35,8.35
		S307.09,105.29,307.09,100.68z"/>
	<path class="st4" style="fill:#3C3A41;" d="M277.37,100.68V71.9c0-4.61,3.74-8.35,8.35-8.35c4.61,0,8.35,3.74,8.35,8.35v28.78c0,4.61-3.74,8.35-8.35,8.35
		C281.11,109.02,277.37,105.29,277.37,100.68z"/>
	<path class="st4" style="fill:#3C3A41;" d="M247.65,100.68V71.9c0-4.61,3.74-8.35,8.35-8.35c4.61,0,8.35,3.74,8.35,8.35v28.78c0,4.61-3.74,8.35-8.35,8.35
		S247.65,105.29,247.65,100.68z"/>
	<path class="st4" style="fill:#3C3A41;" d="M217.94,100.68V71.9c0-4.61,3.74-8.35,8.35-8.35s8.35,3.74,8.35,8.35v28.78c0,4.61-3.74,8.35-8.35,8.35
		S217.94,105.29,217.94,100.68z"/>
	<path class="st4" style="fill:#3C3A41;" d="M188.22,100.68V71.9c0-4.61,3.74-8.35,8.35-8.35s8.35,3.74,8.35,8.35v28.78c0,4.61-3.74,8.35-8.35,8.35
		S188.22,105.29,188.22,100.68z"/>
</g>
</svg>
