<?xml version="1.0" encoding="utf-8"?>
<!-- Generator: Adobe Illustrator 28.1.0, SVG Export Plug-In . SVG Version: 6.00 Build 0)  -->
<svg version="1.1" id="Layer_1" xmlns="http://www.w3.org/2000/svg" xmlns:xlink="http://www.w3.org/1999/xlink" x="0px" y="0px"
	 viewBox="0 0 250 250" style="enable-background:new 0 0 250 250;" xml:space="preserve">
<g id="b5q30R_00000176741856851550933360000001944995148146421152_">
	<g>
		<path d="M124.65,237.52c-36.62,0-73.23,0-109.85,0c-1.08,0-2.16,0.03-3.22-0.11c-2.2-0.29-3.39-1.78-3.39-4.01
			c0.03-29.72,0.06-59.44,0.08-89.17c0-2.2-0.01-4.39,0.01-6.59c0.06-5.24,4.14-9.51,9.38-9.56c8.74-0.1,17.49-0.04,26.23-0.04
			c2.28,0,4.57-0.02,6.85,0.1c1.21,0.06,0.96-0.71,0.96-1.35c0.01-6.89,0.01-13.78,0.01-20.68c0-15.08-0.12-30.15,0.05-45.23
			c0.1-8.35,4.14-14.68,11.23-19.03c3.65-2.24,7.69-3.18,11.96-3.18c6.63,0,13.27-0.02,19.9,0.02c1.09,0.01,1.54-0.28,1.74-1.45
			c1.94-11.02,8.05-18.92,18.5-22.87c10.81-4.09,20.87-2.06,29.66,5.46c5.38,4.6,8.44,10.58,9.46,17.57
			c0.16,1.09,0.74,1.28,1.68,1.28c6.16-0.02,12.32,0,18.48-0.02c12.85-0.03,23.2,10.27,23.21,23.13c0.01,21.49,0,42.99,0,64.48
			c0,1.83,0,1.78,1.75,1.78c10.68-0.02,21.37-0.07,32.05,0.01c5.57,0.05,9.61,4.4,9.59,10.23c-0.02,6.8-0.1,13.61-0.07,20.41
			c0.04,9.13,0.05,18.26,0.07,27.39c0.04,15.46,0.01,30.93,0.01,46.39c0,0.43-0.01,0.86-0.05,1.29c-0.26,2.41-1.54,3.65-3.98,3.71
			c-2.45,0.06-4.91,0.02-7.37,0.02C194.61,237.52,159.63,237.52,124.65,237.52z M59.31,144.34
			C59.31,144.34,59.31,144.34,59.31,144.34c-0.01,27.87-0.01,55.74-0.01,83.62c0,1.97,0,1.98,2.01,1.98c12.28,0,24.56,0,36.83,0
			c1.93,0,1.93,0,1.93-1.9c0-18.48,0-36.96,0.01-55.44c0-3.13,1.36-4.48,4.5-4.48c13.31-0.01,26.62-0.01,39.93-0.01
			c3.34,0,4.56,1.24,4.56,4.62c0,18.48,0,36.96,0,55.44c0,1.76,0,1.77,1.79,1.77c5.17,0,10.34,0,15.51,0
			c7.37,0,14.73-0.02,22.1,0.02c1.18,0.01,1.7-0.36,1.53-1.55c-0.03-0.21,0-0.43,0-0.65c0-52.64,0.01-105.29-0.01-157.93
			c0-3.31,0.15-6.63-0.18-9.94c-0.73-7.46-7.22-13.45-14.72-13.47c-6.46-0.02-12.92,0.02-19.39-0.02c-1.16-0.01-1.6,0.38-1.9,1.53
			c-3.01,11.67-10.33,19.12-22.07,22.02c-6.85,1.69-13.51,0.73-19.7-2.5c-7.9-4.13-12.92-10.7-15.03-19.39
			c-0.32-1.32-0.87-1.68-2.18-1.67c-6.81,0.06-13.62,0.2-20.42-0.02c-7.93-0.26-15.2,7.13-15.16,15.25
			C59.39,89.2,59.31,116.77,59.31,144.34z M233.43,183.46C233.43,183.46,233.42,183.46,233.43,183.46c0-14.95,0-29.89-0.01-44.84
			c0-2.05-0.79-2.97-2.72-2.97c-10.21-0.03-20.42-0.03-30.63-0.01c-1.6,0-2.44,0.91-2.48,2.51c-0.01,0.47,0,0.95,0,1.42
			c0,28.73,0,57.46,0,86.2c0,0.99,0.03,1.98-0.01,2.97c-0.03,0.89,0.35,1.25,1.23,1.22c0.99-0.04,1.98,0,2.97-0.01
			c1.7-0.01,1.72-0.02,1.72-1.74c0-9.13,0-18.26,0-27.4c0-5.43-0.01-10.86,0.02-16.28c0.01-2.58,1.43-4.21,3.66-4.31
			c5.55-0.24,11.1,0.11,16.65,0.01c0.29-0.01,0.6,0.07,0.88,0.16c1.81,0.59,2.64,1.85,2.64,4.1c0.01,12.58,0,25.16,0.01,37.73
			c0,2.15,0.03,4.31,0,6.46c-0.02,0.96,0.36,1.32,1.3,1.27c0.99-0.05,1.98-0.01,2.97-0.01c1.79,0,1.8-0.01,1.8-1.76
			C233.43,213.26,233.43,198.36,233.43,183.46z M15.86,183.24C15.85,183.24,15.85,183.24,15.86,183.24
			c-0.01,13.01-0.01,26.02-0.01,39.02c0,2.11,0.04,4.22,0,6.33c-0.02,1.01,0.37,1.41,1.37,1.35c0.86-0.05,1.72,0,2.58,0
			c2.02,0,2.03,0,2.03-1.97c0-14.34-0.01-28.69-0.01-43.03c0-3.47,1.37-4.87,4.87-4.84c4.78,0.03,9.55,0.16,14.33,0.01
			c3.23-0.1,4.62,1.41,4.62,4.67c0,8.79-0.01,17.57-0.01,26.36c0,5.77,0.02,11.54-0.02,17.31c-0.01,1.12,0.35,1.57,1.49,1.49
			c1.03-0.07,2.07-0.08,3.1,0c1.2,0.1,1.54-0.37,1.54-1.55c-0.03-29.81-0.02-59.61-0.02-89.42c0-2.66-0.72-3.36-3.38-3.36
			c-9.73,0-19.47,0-29.2-0.01c-2.6,0-3.27,0.66-3.27,3.3C15.86,153.69,15.86,168.46,15.86,183.24z M141.48,202.8
			c0-8.44,0-16.88,0-25.32c0-1.77-0.01-1.78-1.82-1.78c-10.08,0-20.16-0.01-30.23-0.01c-1.77,0-1.78,0.01-1.78,1.81
			c0,16.88,0,33.76,0,50.65c0,1.77,0.01,1.78,1.81,1.78c10.08,0,20.16,0,30.23,0c1.78,0,1.79-0.01,1.79-1.81
			C141.49,219.69,141.48,211.24,141.48,202.8z M103.95,41.7c-0.07,11.96,10,21.6,21.64,21.39c12.44-0.23,21.76-10.14,21.31-22.52
			c-0.42-11.54-10.46-21.16-22.9-20.52C113.06,20.62,103.62,30.57,103.95,41.7z M38.05,208.88c0-6.54-0.02-13.08,0.02-19.62
			c0.01-1.05-0.32-1.47-1.4-1.44c-1.98,0.06-3.96,0.05-5.94,0.01c-0.97-0.02-1.38,0.29-1.38,1.32c0.02,13.17,0.02,26.33,0,39.5
			c0,1.06,0.44,1.32,1.4,1.3c1.89-0.05,3.79-0.09,5.68,0.01c1.36,0.08,1.66-0.46,1.65-1.72C38.02,221.79,38.05,215.33,38.05,208.88z
			 M211.09,208.9c0,6.54,0.02,13.08-0.02,19.62c-0.01,1.05,0.32,1.47,1.4,1.43c1.98-0.06,3.96-0.05,5.94-0.01
			c0.97,0.02,1.39-0.27,1.39-1.32c-0.02-13.17-0.02-26.34,0-39.5c0-0.93-0.32-1.32-1.28-1.3c-1.89,0.04-3.79,0.01-5.68,0.01
			c-1.74,0-1.75,0.01-1.75,1.7C211.08,195.99,211.09,202.45,211.09,208.9z"/>
		<path d="M97.42,112.85c-5.3,0-10.59,0-15.89,0c-2.83,0-4.42-1.55-4.42-4.38c-0.01-8.22-0.01-16.45,0-24.67
			c0.01-3,1.56-4.53,4.56-4.53c10.64-0.01,21.27-0.01,31.91,0c2.98,0,4.43,1.46,4.43,4.47c0.01,8.22,0.01,16.45,0,24.67
			c0,3-1.45,4.44-4.44,4.45C108.19,112.86,102.8,112.85,97.42,112.85C97.42,112.85,97.42,112.85,97.42,112.85z M97.57,105.28
			c3.83,0,7.65-0.03,11.48,0.02c1.08,0.01,1.41-0.36,1.4-1.42c-0.04-5.12-0.04-10.25,0-15.37c0.01-1.09-0.31-1.53-1.46-1.52
			c-7.62,0.04-15.24,0.04-22.86,0c-1.15-0.01-1.5,0.42-1.46,1.52c0.1,3.05,0.17,6.11,0.18,9.16c0.01,2.06-0.08,4.13-0.17,6.19
			c-0.05,1.05,0.34,1.45,1.42,1.43C89.92,105.25,93.74,105.28,97.57,105.28z"/>
		<path d="M151.7,79.25c5.12,0,10.25,0,15.37,0c3.67,0,4.97,1.32,4.97,5c0,7.96,0,15.93,0,23.89c0,3.32-1.36,4.7-4.72,4.7
			c-10.33,0.01-20.67,0-31-0.01c-0.73,0-1.47-0.03-2.18-0.17c-1.54-0.3-2.55-1.22-2.85-2.79c-0.12-0.63-0.17-1.28-0.17-1.92
			c-0.01-7.92-0.01-15.84,0-23.77c0-3.52,1.42-4.92,4.95-4.93C141.29,79.25,146.5,79.26,151.7,79.25
			C151.7,79.26,151.7,79.25,151.7,79.25z M151.57,87.01c-3.83,0-7.66,0.02-11.49-0.01c-0.97-0.01-1.39,0.29-1.39,1.33
			c0.04,5.21,0.03,10.41,0,15.62c-0.01,1.01,0.37,1.36,1.36,1.35c4.08-0.05,8.16-0.04,12.24-0.05c3.48-0.01,6.96-0.06,10.44-0.02
			c1.65,0.02,1.71,0.04,1.71-1.56c0.01-5.03-0.02-10.07,0.04-15.1c0.01-1.18-0.38-1.58-1.56-1.57
			C159.14,87.04,155.35,87.01,151.57,87.01z"/>
		<path d="M97.54,125.98c5.38,0,10.76-0.01,16.14,0c3.03,0.01,4.34,1.34,4.34,4.33c0,8.09,0,16.19,0,24.28
			c0,3.52-1.33,4.85-4.82,4.86c-10.37,0-20.75,0.01-31.12,0c-3.64,0-4.98-1.35-4.98-5c0-8.01,0-16.01,0-24.02
			c0-2.99,1.45-4.44,4.43-4.44C86.87,125.99,92.2,125.99,97.54,125.98C97.54,125.99,97.54,125.99,97.54,125.98z M97.55,151.88
			c3.79,0,7.58-0.04,11.37,0.02c1.21,0.02,1.55-0.41,1.54-1.57c-0.05-5.04-0.07-10.08,0-15.12c0.02-1.34-0.43-1.67-1.71-1.66
			c-7.06,0.05-14.13,0.02-21.19,0.02c-0.65,0-1.29,0.01-1.94,0.02c-0.65,0.01-0.98,0.36-0.87,0.99c0.27,1.55-0.09,3.09-0.09,4.64
			c0.01,3.74,0.48,7.48,0.02,11.22c-0.14,1.17,0.41,1.47,1.5,1.46C89.97,151.85,93.76,151.88,97.55,151.88z"/>
		<path d="M151.57,125.98c5.34,0,10.68-0.01,16.01,0c3.15,0.01,4.46,1.34,4.46,4.51c0.01,8.22,0.01,16.44,0,24.67
			c0,2.81-1.48,4.29-4.32,4.29c-10.76,0.01-21.52,0.01-32.28,0c-2.77,0-4.27-1.42-4.29-4.21c-0.04-8.31-0.05-16.62,0-24.92
			c0.02-3.03,1.46-4.33,4.54-4.33C140.98,125.99,146.27,125.99,151.57,125.98C151.57,125.99,151.57,125.99,151.57,125.98z
			 M151.44,151.87c3.83,0,7.67-0.03,11.5,0.02c1.09,0.01,1.54-0.28,1.53-1.45c-0.04-5.17-0.03-10.34,0-15.51
			c0.01-0.98-0.31-1.38-1.33-1.38c-7.71,0.03-15.42,0.03-23.13,0c-1.03,0-1.33,0.4-1.32,1.38c0.03,5.17,0.05,10.34,0,15.51
			c-0.01,1.17,0.42,1.47,1.52,1.46C143.95,151.84,147.7,151.87,151.44,151.87z"/>
		<path d="M129.14,32.02c0,1.51,0.03,3.02-0.01,4.52c-0.03,0.96,0.37,1.29,1.3,1.27c2.97-0.03,5.94-0.01,8.92-0.01
			c1.61,0,2.72,0.84,3.37,2.2c0.67,1.39,0.46,2.77-0.55,3.99c-0.87,1.05-2.07,1.37-3.36,1.33c-2.84-0.1-5.68,0.25-8.51-0.04
			c-0.9-0.09-1.17,0.46-1.17,1.3c0.02,2.89,0.02,5.77,0.01,8.66c-0.01,2.36-1.48,3.9-3.7,3.93c-2.2,0.03-3.83-1.63-3.84-3.97
			c-0.02-2.8-0.04-5.6,0-8.4c0.02-1.07-0.39-1.44-1.44-1.43c-2.71,0.04-5.41-0.01-8.12-0.01c-3.02,0-4.93-2.46-3.99-5.14
			c0.52-1.49,1.74-2.37,3.48-2.39c2.89-0.04,5.77-0.05,8.66,0c1.07,0.02,1.44-0.34,1.42-1.41c-0.05-2.88-0.04-5.77,0-8.66
			c0.03-1.77,1.06-3.16,2.59-3.64c1.66-0.52,3.13-0.05,4.26,1.34c0.48,0.6,0.7,1.27,0.69,2.03c-0.01,0.78,0,1.55,0,2.33
			C129.15,30.56,129.14,31.29,129.14,32.02C129.14,32.02,129.14,32.02,129.14,32.02z"/>
	</g>
</g>
</svg>
