<?xml version="1.0" encoding="utf-8"?>
<!-- Generator: Adobe Illustrator 28.1.0, SVG Export Plug-In . SVG Version: 6.00 Build 0)  -->
<svg version="1.1" id="Layer_1" xmlns="http://www.w3.org/2000/svg" xmlns:xlink="http://www.w3.org/1999/xlink" x="0px" y="0px"
	 viewBox="0 0 250 250" style="enable-background:new 0 0 250 250;" xml:space="preserve">
<g id="_x30_1wB36.tif">
	<g>
		<path d="M227.96,119.46c-1.43,5.06-3.73,9.57-8.02,12.86c-2.26,1.73-4.7,3.07-7.46,3.77c-1.26,0.32-1.67,0.98-1.66,2.27
			c0.06,6.42,0,12.84,0.04,19.25c0.01,1.95-0.44,3.61-2.33,4.5c-1.93,0.92-3.61,0.35-5.16-0.99c-8.69-7.43-17.42-14.8-26.06-22.29
			c-1.62-1.41-3.22-2.23-5.39-2.01c-1.39,0.14-2.81,0.13-4.21,0c-1.79-0.17-2.27,0.54-2.26,2.28c0.06,14.37,0.06,28.75,0.02,43.12
			c-0.01,3.27,0.27,6.54-0.38,9.8c-1.94,9.71-10.64,17.03-20.55,17.05c-22.13,0.05-44.26,0.04-66.38-0.02
			c-1.96-0.01-3.39,0.61-4.84,1.86c-8.49,7.34-17.06,14.61-25.6,21.89c-0.76,0.65-1.59,1.22-2.38,1.83c-1.07,0-2.14,0-3.21,0
			c-1.94-1.13-2.61-2.82-2.58-5.04c0.09-6.22-0.01-12.44,0.06-18.66c0.02-1.5-0.39-2.23-1.91-2.7
			c-9.56-2.97-15.37-10.89-15.38-20.85c-0.02-21.47-0.02-42.94,0-64.41c0.01-12.41,9.29-21.7,21.68-21.72
			c12.78-0.03,25.55-0.01,38.33-0.01c2.6,0,2.6-0.01,2.6-2.68c0-15.99-0.02-31.97,0.01-47.96c0.02-10.7,7.09-19.25,17.61-21.32
			c0.72-0.14,1.46-0.25,2.19-0.25c11.17-0.02,22.34-0.03,33.51-0.02c2.2,0,3.8,1.15,4.22,3c0.43,1.86-0.06,3.44-1.67,4.59
			c-0.99,0.71-2.13,0.7-3.27,0.7c-10.1,0-20.2-0.04-30.3,0.01c-6.63,0.03-11.67,3.66-13.34,9.51c-0.46,1.61-0.65,3.27-0.65,4.95
			c0.01,20.74,0,41.47,0.01,62.21c0.01,9.02,5.51,14.54,14.51,14.55c22.27,0.02,44.55,0.04,66.82-0.04
			c2.59-0.01,4.59,0.73,6.52,2.41c6.6,5.76,13.3,11.41,19.96,17.1c0.34,0.29,0.61,0.73,1.2,0.67c0.49-0.56,0.26-1.26,0.26-1.89
			c0.02-4.55-0.01-9.1,0.03-13.65c0.02-2.91,1.29-4.27,4.17-4.6c8.6-1.01,13.08-6.04,13.08-14.76c0.01-20.6,0.01-41.2,0-61.81
			c-0.01-9.17-5.46-14.64-14.6-14.65c-9.5-0.02-19,0-28.49,0c-0.6,0-1.2,0.01-1.81-0.01c-2.73-0.07-4.42-1.65-4.44-4.11
			c-0.02-2.47,1.68-4.13,4.37-4.18c2.61-0.04,5.22-0.01,7.83-0.01c7.96,0,15.92-0.02,23.88,0.01c10.18,0.03,18.42,6.41,21.03,16.25
			c0.14,0.52,0.28,1.03,0.42,1.54C227.96,71.03,227.96,95.24,227.96,119.46z M47.89,220.91c1,0.07,1.32-0.52,1.75-0.89
			c6.62-5.64,13.26-11.26,19.82-16.96c1.81-1.58,3.69-2.32,6.15-2.31c22.21,0.08,44.42,0.04,66.63,0.06c1.82,0,3.61-0.15,5.36-0.64
			c5.97-1.68,9.56-6.79,9.57-13.7c0.02-14.05,0.01-28.1,0.01-42.14c0-1.94-0.04-3.88,0.01-5.82c0.03-1.2-0.43-1.74-1.65-1.65
			c-0.6,0.04-1.2,0-1.81,0c-16.32-0.01-32.64-0.03-48.97,0.01c-1.18,0-2.75-1.07-3.36-0.09c-0.59,0.94,0.56,2.34,1,3.51
			c4.4,11.71,8.83,23.39,13.22,35.1c1.1,2.93,0.16,5.33-2.23,6.18c-2.41,0.86-4.57-0.36-5.71-3.28c-0.8-2.05-1.6-4.12-2.32-6.2
			c-0.39-1.11-1.02-1.55-2.22-1.54c-6.15,0.05-12.31,0.05-18.46,0c-1.21-0.01-1.82,0.46-2.2,1.56c-0.73,2.08-1.53,4.14-2.34,6.19
			c-1.15,2.92-3.31,4.14-5.72,3.27c-2.4-0.86-3.32-3.29-2.22-6.19c5.71-15,11.45-29.98,17.19-44.96c0.25-0.65,0.5-1.23,0-1.86
			c-3.89-4.9-4.89-10.6-4.42-16.65c0.14-1.84-0.49-2.4-2.35-2.39c-12.44,0.08-24.88,0.03-37.33,0.04
			c-9.16,0.01-14.64,5.47-14.64,14.61c-0.01,20.67-0.01,41.34,0,62.01c0,8.54,4.54,13.59,13.05,14.59c2.9,0.34,4.17,1.69,4.2,4.58
			c0.04,3.34,0.01,6.69,0.01,10.03C47.89,217.24,47.89,219.08,47.89,220.91z M93.96,141.94c-2.57,6.8-4.95,13.06-7.29,19.35
			c-0.34,0.91,0.4,0.97,1.03,0.97c4.15,0.01,8.29,0,12.44,0c1,0,1.33-0.38,0.95-1.37C98.78,154.77,96.48,148.65,93.96,141.94z"/>
		<path d="M140.33,64c3.08,0,6.15,0,9.23,0c2.8,0,2.8-0.01,2.8-2.71c0-2.41-0.03-4.82,0.01-7.22c0.04-2.62,1.79-4.48,4.15-4.47
			c2.36,0,4.09,1.85,4.14,4.48c0.04,2.41,0.01,4.81,0.01,7.22c0,2.69,0.01,2.69,2.62,2.7c6.49,0.01,12.97-0.02,19.46,0.02
			c2.72,0.02,4.5,1.44,4.78,3.65c0.35,2.75-1.49,4.82-4.53,4.89c-3.54,0.09-7.09,0.07-10.63,0.01c-1.41-0.02-2.04,0.42-2.08,1.94
			c-0.22,7.96-2.76,15.21-7.08,21.84c-0.92,1.42-0.69,2.15,0.48,3.13c5.25,4.42,11.24,7.17,18.01,8.22
			c1.43,0.22,2.77,0.59,3.66,1.82c1.03,1.43,1.2,2.97,0.32,4.52c-0.96,1.69-2.5,2.45-4.38,2.18c-8.47-1.19-16.06-4.43-22.65-9.94
			c-2.13-1.78-2.1-1.78-4.26,0.02c-6.43,5.35-13.79,8.6-22.06,9.83c-2.81,0.42-4.97-0.91-5.44-3.42c-0.45-2.4,1.25-4.51,4.1-4.94
			c3.53-0.54,6.92-1.49,10.15-3c3.11-1.45,5.96-3.3,8.54-5.57c0.89-0.79,1.11-1.4,0.37-2.52c-4.46-6.79-7.09-14.2-7.3-22.38
			c-0.03-1.33-0.67-1.72-1.88-1.71c-3.54,0.03-7.09,0.04-10.63-0.01c-2.7-0.04-4.47-1.49-4.72-3.72c-0.31-2.76,1.53-4.76,4.59-4.83
			C133.5,63.95,136.92,64.01,140.33,64C140.33,64,140.33,64,140.33,64z M161.84,74.68c0.27-1.48-0.06-2.1-1.25-2.09
			c-2.74,0.02-5.48,0.02-8.22,0.01c-1.09,0-1.36,0.58-1.28,1.55c0.46,5.25,1.69,10.28,4.26,14.92c0.31,0.55,0.45,1.48,1.21,1.43
			c0.7-0.04,0.87-0.94,1.17-1.5C160.19,84.39,161.56,79.46,161.84,74.68z"/>
		<path d="M160.65,33.25c-0.04,2.38-1.88,4.11-4.28,4.05c-2.37-0.07-4.09-1.93-4-4.33c0.09-2.29,1.86-3.97,4.18-3.95
			C158.94,29.05,160.69,30.86,160.65,33.25z"/>
	</g>
</g>
</svg>
