<?xml version="1.0" encoding="utf-8"?>
<!-- Generator: Adobe Illustrator 28.1.0, SVG Export Plug-In . SVG Version: 6.00 Build 0)  -->
<svg version="1.1" id="Layer_1" xmlns="http://www.w3.org/2000/svg" xmlns:xlink="http://www.w3.org/1999/xlink" x="0px" y="0px"
	 viewBox="0 0 250 250" style="enable-background:new 0 0 250 250;" xml:space="preserve">
<g id="GJfwzr.tif">
	<g>
		<path d="M124.96,184.59c-18.96,0-37.93-0.08-56.89,0.07c-3.67,0.03-5-0.99-4.99-4.85c0.11-27.05,21.16-53.15,47.52-58.77
			c2.27-0.48,3.31,0.08,4.21,2.13c1.94,4.44,5.26,7.02,10.33,7.06c5.18,0.05,8.77-2.37,10.79-6.99c0.94-2.16,2.17-2.45,4.3-1.98
			c25.77,5.65,46.65,31.93,46.68,58.63c0,3.52-1,4.8-4.66,4.77C163.15,184.51,144.05,184.59,124.96,184.59z M124.94,178.54
			c17.01,0,34.02-0.08,51.03,0.07c3.59,0.03,4.71-1.23,4.18-4.61c-0.55-3.5-1.34-6.94-2.45-10.29c-3.02-9.14-8.1-16.96-15.25-23.41
			c-0.71-0.64-1.87-2.44-2.6-0.32c-1.5,4.38-1.36,9-1.43,13.59c-0.04,2.64,2.16,3.37,3.52,4.84c3.28,3.54,3.23,9.05-0.11,12.45
			c-3.23,3.3-8.63,3.55-12.14,0.56c-3.65-3.11-4.72-8.64-1.4-11.9c3.18-3.12,3.86-6.47,3.78-10.51c-0.05-2.2,0.4-4.42,0.72-6.62
			c1.42-9.59,1.4-9.5-7.83-13.08c-2.78-1.08-4.5-0.94-6.66,1.56c-6.77,7.83-18.85,7.97-25.66,0.2c-2.49-2.84-4.59-3.32-7.67-1.72
			c-1.27,0.66-2.65,1.11-3.95,1.73c-4.42,2.11-4.89,3.57-2.69,7.83c0.59,1.14,1.64,1.64,2.61,2.29c1.94,1.32,3.18,3.1,3.39,5.48
			c0.47,5.25,1.92,10.28,3.36,15.3c0.82,2.84,0.95,5.69,0.48,8.54c-0.67,4.06-3.76,6.64-7.61,6.56c-1.86-0.04-3.43-0.68-3.77-2.71
			c-0.32-1.85,0.73-3.17,2.46-3.42c3.16-0.45,3.5-2.64,2.96-4.9c-1.43-5.97-3.19-11.86-4.12-17.95c-0.2-1.3-1.11-2.04-2.53-1.93
			c-1.23,0.1-1.92,0.82-2.04,2c-0.6,5.89-2.44,11.5-3.82,17.21c-0.6,2.46-0.71,5.06,2.96,5.61c1.56,0.24,2.5,1.44,2.34,3.14
			c-0.18,1.89-1.5,2.63-3.21,2.86c-3.39,0.46-6.73-1.67-7.92-5.12c-1.06-3.08-0.76-6.15,0.02-9.27c1.24-4.94,2.5-9.9,3.41-14.91
			c0.46-2.56,1-4.87,3.22-6.42c1.13-0.79,1.78-1.81,0.77-2.92c-1.09-1.2-1.86,0.18-2.55,0.78c-10.47,9.14-16.75,20.62-18.82,34.35
			c-0.69,4.55-0.15,5.04,4.36,5.04C91.18,178.55,108.06,178.54,124.94,178.54z"/>
		<path d="M159.27,84.53c-0.03,18.66-15.69,34.13-34.47,34.04c-18.59-0.09-34.05-15.54-34.07-34.05
			C90.71,65.57,106.41,49.85,125.2,50C143.92,50.15,159.3,65.73,159.27,84.53z M124.86,112.06c16.06,0.04,28.25-12.45,27.99-28.41
			c-0.06-3.48-1.26-4.53-4.65-4.33c-8.57,0.53-16.94-0.6-24.91-3.94c-1.55-0.65-2.7-0.57-3.76,0.82
			c-4.83,6.34-11.62,9.56-19.06,11.54c-2.57,0.68-2.99,1.76-2.34,4.16C101.35,103.8,112.17,112.03,124.86,112.06z M125.6,56.43
			c-3.87,0.33-9.18-0.62-10.13,2.73c-1.07,3.76,3.33,6.61,6.77,8.62c7.57,4.41,15.93,5.41,24.49,5.59c3.18,0.07,3.7-1.08,2.04-3.68
			C143.28,61.11,135.39,56.84,125.6,56.43z M97.55,79.29c-0.38,1.92,0.19,2.73,2.27,2.11c5.05-1.51,9.72-3.67,13.52-7.44
			c1.87-1.86,2.27-3.47-0.02-5.47c-1.42-1.25-2.45-3.02-3.39-4.71c-1-1.79-1.97-1.73-3.34-0.51
			C101.75,67.59,98.82,72.97,97.55,79.29z"/>
	</g>
</g>
<path d="M126.05,241.03c-2.48,0-4.96-0.03-7.44-0.06c-10.5-0.15-16.76-5.74-18.11-16.15c-0.14-1.05-0.17-2.16-0.2-3.23
	c-0.34-12.58-1.64-14.25-13.85-17.82c-0.71-0.21-1.4-0.31-2.05-0.31c-2.25,0-3.78,1.21-4.97,2.4c-0.67,0.66-1.33,1.33-1.99,2
	c-1.59,1.6-3.23,3.26-4.9,4.81c-3.52,3.27-7.63,5-11.88,5c-4.05,0-7.97-1.59-11.33-4.59c-3.98-3.54-7.88-7.45-11.59-11.6
	c-6.77-7.58-6.63-16.59,0.38-24.1c0.24-0.25,0.48-0.5,0.73-0.74l0.44-0.45c9.16-9.32,9.34-10.57,3.17-22.23
	c-1.99-3.77-5.27-3.84-7.43-3.89c-0.84-0.02-1.67-0.02-2.51-0.02h-0.98c-3.13,0-5.94-0.05-8.67-0.68
	c-8.11-1.86-13.13-7.84-13.44-15.99c-0.19-5.01-0.13-9.93-0.04-15.38c0.17-10.01,5.47-16.13,15.35-17.68c1.53-0.24,3.1-0.3,4.3-0.33
	c11.79-0.28,14.76-2.67,17.66-14.21c0.79-3.13-0.66-5.1-2.01-6.46c-0.77-0.78-1.55-1.56-2.33-2.33c-1.49-1.48-3.03-3.02-4.49-4.56
	c-6.75-7.17-6.91-16.45-0.42-23.62c3.5-3.87,7.27-7.64,11.21-11.21c3.74-3.38,7.9-5.17,12.04-5.17c4.31,0,8.62,1.92,12.47,5.56
	c0.26,0.24,0.5,0.49,0.75,0.74l0.44,0.44c4.32,4.27,7.46,7.06,11.49,7.06c2.91,0,5.94-1.43,10.86-4.25
	c3.37-1.93,3.48-4.96,3.56-6.96c0.04-1.15,0.06-2.29,0.07-3.45c0.03-2.7,0.07-5.25,0.46-7.75c1.48-9.29,7.51-14.53,16.99-14.76
	c2.13-0.05,4.36-0.08,6.82-0.08c2.48,0,4.96,0.03,7.44,0.06c10.5,0.15,16.76,5.74,18.1,16.16c0.13,1.04,0.17,2.15,0.19,3.23
	c0.34,12.58,1.64,14.25,13.86,17.82c0.71,0.21,1.39,0.31,2.04,0.31c2.25,0,3.78-1.22,4.97-2.41c0.68-0.67,1.35-1.35,2.02-2.03
	c1.58-1.59,3.21-3.24,4.87-4.78c3.51-3.27,7.62-5,11.88-5c4.05,0,7.97,1.59,11.34,4.59c4,3.57,7.9,7.47,11.59,11.6
	c6.77,7.58,6.63,16.6-0.39,24.11c-0.24,0.26-0.49,0.5-0.74,0.75l-0.43,0.44c-9.18,9.34-9.35,10.59-3.16,22.24
	c1.73,3.26,4.42,3.78,6.83,3.87c1.11,0.04,2.22,0.06,3.33,0.07c2.93,0.04,5.7,0.09,8.41,0.53c8.94,1.47,14.22,7.54,14.48,16.65
	c0.15,5.29,0.09,10.46,0.02,14.82c-0.17,10.01-5.48,16.12-15.36,17.68c-1.52,0.24-3.1,0.3-4.3,0.33
	c-11.8,0.28-14.77,2.67-17.65,14.21c-0.78,3.12,0.67,5.09,2.02,6.46c0.79,0.8,1.59,1.59,2.39,2.38c1.61,1.59,3.27,3.24,4.81,4.92
	c5.74,6.23,6.47,14.15,1.9,20.65c-3.86,5.5-8.98,10.64-16.1,16.17c-2.51,1.95-5.81,2.47-9,2.82c-5.24-0.36-9.72-2.62-14.08-7.13
	c-4.29-4.43-7.93-6.4-11.82-6.4c-3.19,0-6.52,1.32-10.78,4.26c-2.71,1.88-2.82,4.61-2.9,6.6c-0.05,1.18-0.06,2.36-0.08,3.54
	c-0.04,2.67-0.07,5.19-0.46,7.65c-1.47,9.29-7.5,14.53-16.98,14.77C130.75,241.01,128.52,241.03,126.05,241.03z M82.9,195.09
	c0.82,0,1.7,0.27,2.69,0.82c5.6,3.1,11.44,5.52,17.35,7.18c3.02,0.85,4.23,2.46,4.15,5.57c-0.1,4.17-0.1,8.71,0.02,13.86
	c0.17,7.73,3.75,11.45,11.26,11.7c2.29,0.08,4.63,0.11,6.95,0.11c2.3,0,4.63-0.04,6.95-0.11c7.53-0.24,11.12-3.95,11.3-11.66
	c0.12-5.16,0.12-9.7,0.02-13.87c-0.08-3.11,1.12-4.73,4.12-5.6c6.43-1.85,11.94-4.12,16.85-6.96c1.19-0.69,2.24-1.02,3.21-1.02
	c1.37,0,2.67,0.69,4.07,2.18c3.71,3.94,6.85,7.05,9.89,9.8c2.92,2.64,5.52,3.87,8.2,3.87c2.68,0,5.25-1.23,8.08-3.88
	c3.17-2.96,6.34-6.13,9.42-9.42c5.14-5.48,5.17-10.81,0.09-16.3c-3.18-3.44-6.49-6.68-10.18-10.25c-2.13-2.07-2.45-3.91-1.1-6.35
	c3.1-5.6,5.52-11.44,7.18-17.35c0.82-2.91,2.4-4.15,5.31-4.15l0.26,0c1.99,0.05,4.08,0.08,6.24,0.08c2.4,0,4.89-0.03,7.63-0.09
	c7.73-0.17,11.45-3.75,11.7-11.26c0.15-4.59,0.15-9.27,0-13.9c-0.24-7.53-3.95-11.12-11.67-11.3c-2.73-0.06-5.22-0.09-7.61-0.09
	c-2.16,0-4.26,0.03-6.26,0.08l-0.27,0c-2.94,0-4.49-1.2-5.33-4.13c-1.85-6.44-4.13-11.95-6.96-16.85c-1.66-2.87-1.33-4.91,1.17-7.27
	c3.97-3.75,7.08-6.89,9.8-9.89c5.17-5.72,5.17-10.74-0.01-16.28c-2.96-3.17-6.13-6.33-9.42-9.42c-2.79-2.62-5.47-3.89-8.19-3.89
	c-2.69,0-5.35,1.25-8.11,3.81c-3.48,3.22-6.83,6.65-10.25,10.18c-1.25,1.29-2.45,1.92-3.66,1.92c-0.82,0-1.7-0.27-2.7-0.82
	c-5.56-3.09-11.4-5.5-17.35-7.18c-3.02-0.85-4.22-2.46-4.14-5.57c0.11-4.2,0.1-8.74-0.02-13.86c-0.18-7.91-3.84-11.53-11.85-11.72
	c-1.89-0.05-3.83-0.07-5.93-0.07c-2.07,0-4.14,0.02-6.21,0.06c-9,0.16-12.39,3.65-12.5,12.87c-0.02,1.74-0.02,3.47,0,5.21
	c0.1,10.68,0.1,10.68-4.55,12.74c-1.64,0.73-3.67,1.63-6.29,3.11c-4.47,2.53-8.3,3.76-11.71,3.76c-5.26,0-9.73-2.91-14.49-9.44
	c-2.26-3.1-5.67-4.82-9.85-4.95l-0.34-0.01l-0.32,0.1c-0.17,0.05-0.36,0.09-0.58,0.14c-0.77,0.17-1.81,0.41-2.76,1.01
	c-3.94,2.5-7.05,5.83-10.06,9.06c-0.93,1-1.86,1.99-2.81,2.96c-5.28,5.38-5.33,10.72-0.13,16.32c3.24,3.49,6.66,6.84,10.18,10.25
	c2.13,2.07,2.45,3.91,1.1,6.35c-3.1,5.6-5.52,11.44-7.18,17.35c-0.82,2.91-2.4,4.15-5.31,4.15l-0.26,0
	c-1.98-0.05-4.08-0.08-6.23-0.08c-2.39,0-4.89,0.03-7.63,0.09c-7.73,0.17-11.45,3.75-11.7,11.26c-0.15,4.58-0.15,9.26,0,13.9
	c0.24,7.53,3.95,11.12,11.67,11.29c2.71,0.06,5.2,0.09,7.6,0.09c2.16,0,4.27-0.03,6.27-0.08l0.27,0c2.95,0,4.49,1.19,5.33,4.12
	c1.83,6.41,4.11,11.92,6.95,16.85c1.66,2.88,1.34,4.92-1.16,7.27c-3.94,3.71-7.05,6.85-9.8,9.89c-5.18,5.72-5.18,10.74,0.01,16.28
	c2.97,3.17,6.14,6.34,9.42,9.42c2.79,2.62,5.48,3.89,8.2,3.89c2.69,0,5.34-1.25,8.11-3.81c3.48-3.23,6.84-6.66,10.25-10.18
	C80.49,195.71,81.69,195.09,82.9,195.09z"/>
</svg>
