<?xml version="1.0" encoding="utf-8"?>
<!-- Generator: Adobe Illustrator 28.1.0, SVG Export Plug-In . SVG Version: 6.00 Build 0)  -->
<svg version="1.1" id="Layer_1" xmlns="http://www.w3.org/2000/svg" xmlns:xlink="http://www.w3.org/1999/xlink" x="0px" y="0px"
	 viewBox="0 0 265 196" style="enable-background:new 0 0 265 196;" xml:space="preserve">
<g id="T2zGEW_00000041295978973980500240000011217651388064760247_">
	<g>
		<path d="M130.8,188.8c-14,0-28.1,0-42.1,0c-4,0-7.9-0.4-11.7-1.7c-10.3-3.4-13.6-11.3-8.1-20.7c6-10.4,12.6-20.6,18.7-31
			c7.6-12.9,14.9-25.9,22.5-38.8c1.9-3.2,2.7-6.5,2.7-10.3c0-7.4-0.4-14.8,0.7-22.1c0.5-3.1-0.7-4.9-3.6-6.3
			c-4.3-2.2-6.4-9.9-4.3-14.2c1.1-2.3,3.2-2.9,5.4-2.9c13.5-0.1,27-0.1,40.5,0c2.9,0,5.5,1.1,5.7,4.5c0.2,4.5,1.1,9.7-3.9,12
			c-4.3,1.9-4.8,4.8-4.4,8.6c0.2,1.6,0.7,3.3,0.5,4.8c-3.1,19.1,6.9,33.9,16,48.9c9,14.9,18.1,29.9,27.1,44.8
			c7.2,11.9,3.4,20.4-10.2,23.4c-3.6,0.8-7.1,0.9-10.7,0.9C157.8,188.8,144.3,188.8,130.8,188.8
			C130.8,188.8,130.8,188.8,130.8,188.8z M114.1,49.6c7.3,2.5,7.4,8.5,7.3,14.7c-0.1,2.5-0.1,5,0,7.6c0.5,14.7-2.3,28.3-11,40.7
			c-5.1,7.2-9,15.1-13.4,22.8c-0.6,1.1-1.8,2.2-1.2,3.4c0.7,1.5,2.2,0.5,3.4,0.3c4-0.5,7.9-0.2,11.8,0.5c8.3,1.4,15.3,6.1,22.9,9.3
			c4.3,1.8,7.8,1.8,11.3-1.7c5.8-5.9,12.5-9.7,21.4-7.5c0.1-2.6-1.3-4.1-2.2-5.8c-6.8-12-13.6-24.1-20.5-36.1
			c-1.3-2.4-2.2-4.9-2.2-7.7c0-8.4-0.1-16.9-0.7-25.3c-0.4-5.9-0.7-12.2,6.8-15.1C136.5,49.6,125.3,49.6,114.1,49.6z M75.4,172.8
			c-0.7,4,1.5,5.5,4.1,6.5c3.2,1.2,6.6,1.6,10.1,1.6c27.7,0,55.4,0,83.1,0c3.8,0,7.6-0.4,11.1-2c2.9-1.3,3.1-1.8,2.8-5.6
			c-2.8,5.6-8,6.7-13.3,6.7c-28,0.2-56.1,0.2-84.1,0C83.7,180,78.4,178.7,75.4,172.8z"/>
		<path d="M123,18c5,0.1,9.5,5,9.2,10c-0.2,4.9-4.7,9.1-9.6,9c-5-0.1-9.1-4.4-9.1-9.4C113.5,22.4,117.9,17.9,123,18z"/>
		<path d="M144.2,26.8c3.7,0.5,6,2.6,6.1,6.4c0.1,3.5-3.3,6.6-6.7,6.2c-3.7-0.5-5.9-2.8-5.7-6.6C138.1,29,140.6,27.1,144.2,26.8z"/>
		<path d="M129.5,13c0.6-3.9,3-6.1,6.7-5.8c4,0.3,6.2,3,5.8,7c-0.4,3.8-3,5.8-6.8,5.4C131.5,19.1,129.5,16.7,129.5,13z"/>
		<path d="M120.3,121.4c3.8,0.4,6.1,2.6,6,6.2c0,3.8-2.7,5.9-6.3,5.9c-3.8,0-6-2.6-6-6.2C114,123.6,116.6,121.7,120.3,121.4z"/>
	</g>
</g>
</svg>
