<?xml version="1.0" encoding="utf-8"?>
<!-- Generator: Adobe Illustrator 28.1.0, SVG Export Plug-In . SVG Version: 6.00 Build 0)  -->
<svg version="1.1" id="Layer_1" xmlns="http://www.w3.org/2000/svg" xmlns:xlink="http://www.w3.org/1999/xlink" x="0px" y="0px"
	 viewBox="0 0 250 250" style="enable-background:new 0 0 250 250;" xml:space="preserve">
<g id="T2zGEW_00000041295978973980500240000011217651388064760247_">
	<g>
		<path d="M122.13,243.46c-18.32,0-36.63-0.01-54.95,0.01c-5.2,0.01-10.28-0.54-15.26-2.2c-13.44-4.48-17.71-14.76-10.6-27.03
			c7.89-13.61,16.39-26.85,24.38-40.4c9.89-16.79,19.5-33.74,29.3-50.58c2.43-4.18,3.55-8.54,3.55-13.4
			c0-9.62-0.53-19.26,0.89-28.84c0.59-4.01-0.91-6.38-4.71-8.28c-5.67-2.83-8.38-12.92-5.67-18.55c1.45-3.02,4.22-3.73,7.06-3.75
			c17.61-0.1,35.22-0.1,52.83,0.01c3.77,0.03,7.2,1.42,7.44,5.89c0.31,5.82,1.39,12.7-5.1,15.6c-5.64,2.52-6.26,6.24-5.76,11.2
			c0.21,2.1,0.93,4.28,0.6,6.29c-4.09,24.93,9,44.19,20.87,63.86c11.77,19.5,23.58,38.97,35.3,58.5
			c9.34,15.55,4.45,26.58-13.32,30.52c-4.64,1.03-9.3,1.18-14,1.18c-17.61,0.01-35.22,0-52.84,0
			C122.13,243.48,122.13,243.47,122.13,243.46z M100.27,61.87c9.54,3.24,9.72,11.08,9.53,19.14c-0.08,3.28-0.13,6.57-0.02,9.86
			c0.62,19.16-2.97,36.98-14.33,53.1c-6.6,9.36-11.72,19.76-17.46,29.73c-0.79,1.38-2.36,2.82-1.58,4.44
			c0.97,2.02,2.91,0.62,4.39,0.44c5.18-0.63,10.27-0.22,15.4,0.67c10.86,1.89,20,7.97,29.9,12.15c5.61,2.37,10.22,2.32,14.68-2.27
			c7.53-7.74,16.28-12.62,27.95-9.83c0.09-3.45-1.71-5.4-2.93-7.56c-8.9-15.72-17.81-31.43-26.72-47.15c-1.76-3.1-2.89-6.33-2.88-10
			c0.03-11.02-0.1-22.03-0.87-33.05c-0.54-7.71-0.96-15.91,8.85-19.65C129.54,61.87,114.9,61.87,100.27,61.87z M49.82,222.55
			c-0.94,5.28,1.95,7.21,5.36,8.49c4.2,1.59,8.63,2.08,13.13,2.08c36.13-0.03,72.25-0.02,108.38,0c4.98,0,9.86-0.58,14.43-2.6
			c3.8-1.68,4.01-2.33,3.62-7.36c-3.63,7.34-10.46,8.76-17.29,8.8c-36.59,0.23-73.19,0.21-109.78,0.02
			C60.62,231.94,53.79,230.32,49.82,222.55z"/>
		<path d="M111.95,20.65c6.49,0.12,12.37,6.48,12.06,13.04c-0.3,6.43-6.13,11.93-12.51,11.78c-6.49-0.15-11.89-5.71-11.92-12.25
			C99.56,26.3,105.23,20.53,111.95,20.65z"/>
		<path d="M139.65,32.1c4.89,0.71,7.78,3.37,7.94,8.31c0.15,4.56-4.29,8.65-8.75,8.05c-4.83-0.66-7.74-3.71-7.48-8.58
			C131.6,34.99,134.86,32.5,139.65,32.1z"/>
		<path d="M120.38,14.08c0.82-5.13,3.86-7.9,8.71-7.54c5.24,0.39,8.1,3.92,7.55,9.14c-0.52,4.92-3.93,7.62-8.83,7
			C123.05,22.08,120.47,18.88,120.38,14.08z"/>
		<path d="M108.41,155.52c4.93,0.55,7.92,3.34,7.87,8.15c-0.05,4.94-3.47,7.68-8.21,7.68c-4.97,0-7.82-3.37-7.82-8.06
			C100.24,158.37,103.64,155.97,108.41,155.52z"/>
	</g>
</g>
</svg>
