<?xml version="1.0" encoding="utf-8"?>
<!-- Generator: Adobe Illustrator 28.1.0, SVG Export Plug-In . SVG Version: 6.00 Build 0)  -->
<svg version="1.1" id="Layer_1" xmlns="http://www.w3.org/2000/svg" xmlns:xlink="http://www.w3.org/1999/xlink" x="0px" y="0px"
	 viewBox="0 0 265 196" style="enable-background:new 0 0 265 196;" xml:space="preserve">
<g id="_x35_WmBu4_00000126319528154709145780000006368204575837270420_">
	<g>
		<path d="M146.49,126.19c2.72,0.88,3.43,3.05,4.76,4.55c4.22,4.78,6.41,4.81,10.4-0.05c5.73-6.99,11.56-13.9,17.14-21.01
			c2.44-3.11,3.95-2.49,5.65,0.49c1.53,2.69,2.67,5.5,3.55,8.46c1.27,4.26,1.15,7.49-3.6,10.02c-5.68,3.03-10.82,18.54-8.99,24.77
			c1.09,3.69,5.5,6.65,9.37,6.32c1.59-0.14,2.92-0.74,3.29-2.35c0.42-1.81-0.79-2.74-2.38-2.98c-5.62-0.82-5.61-4.29-4.2-8.56
			c0.91-2.76,1.54-5.61,2.53-8.34c1.27-3.53,3.87-5.6,7.69-5.53c3.59,0.06,6.07,2.05,7.32,5.38c0.9,2.41,1.62,4.9,2.32,7.39
			c1.9,6.76,1.88,6.79-4.55,9.78c-1.34,0.62-2.23,1.44-1.77,2.95c0.48,1.59,1.8,2.13,3.37,2.27c5.55,0.51,11.11-5.02,9.74-10.6
			c-2.07-8.42-2.48-17.99-12.17-22.39c-0.91-0.41-3.03-10.92-2.65-11.91c0.4-1.03,1.16-0.96,1.96-0.74c1.09,0.3,2.16,0.66,3.24,1
			c23.1,7.32,30.67,19.06,28,43.33c-0.46,4.19-3.1,6.58-6.5,8.42c-8.39,4.53-17.61,6.3-26.88,7.62c-23.12,3.3-46.29,3.47-69.47,0.43
			c-0.89-0.12-2,0.16-2.73-1.54C140.6,163.99,148.74,147.93,146.49,126.19z"/>
		<path d="M197.75,64.86c0.1,5.15-1.15,9.63-5.66,12.7c-1.69,1.15-2.33,3.04-3.24,4.74c-3.48,6.47-7.8,12.21-13.74,16.67
			c-13.35,10.03-26.51,9.57-39.11-1.5c-3.29-2.89-6.23-6.1-8.63-9.77c-2.97-4.54-5.45-9.27-9.36-13.33c-4-4.16-4.37-10.49-1.66-15.5
			c2.91-5.37,3.31-10.98,4.09-16.65c1.3-9.47,4.72-17.48,14.29-21.34c1.95-0.79,1.85-2.32,2.05-3.94
			c1.08-8.77,6.62-14.78,14.47-15.78c8.1-1.03,14.84,3.04,18.3,11.17c0.72,1.69,1.42,3.2,3.32,3.86
			c12.85,4.49,18.36,14.53,20.19,27.16c0.79,5.41,1.04,10.85,3.84,15.82C197.8,60.74,197.51,62.95,197.75,64.86z M156.47,98.15
			c3.73,0.09,7.04-1.07,10.13-2.96c6.95-4.25,11.99-10.21,15.55-17.47c1.22-2.48,2.46-4.8,4.79-6.55c3.11-2.34,3.37-8.02,1.27-11.31
			c-4.79-7.52-11.58-11.18-20.37-11.97c-7.65-0.68-14.93-2.94-21-7.91c-2.58-2.11-3.44-1.74-4.41,1.37
			c-2.56,8.22-7.23,14.61-15.77,17.74c-3.73,1.36-5.14,8.07-1.86,10.71c4.44,3.57,5.99,8.67,8.94,13.01
			C139.26,90.93,145.96,97.41,156.47,98.15z"/>
		<path d="M105.27,97.85c15.34,0.02,28.89,9.29,34.15,23.37c5.58,14.94,1.47,30.85-10.67,41.26c-11.32,9.71-27.87,11.28-41.23,3.9
			c-0.99-0.55-1.91-1.21-2.9-1.75c-2.31-1.27-3.88-0.99-3.52,2.07c0.28,2.36-0.68,4.1-2.2,5.63c-6.6,6.64-13.2,13.28-19.88,19.83
			c-3.02,2.96-6.59,4.1-10.59,1.98c-4.63-2.44-5.84-8.29-2.03-12.36c7.06-7.53,14.52-14.69,21.83-21.99
			c0.93-0.93,2.08-1.73,3.43-1.53c6.15,0.88,3.82-2.11,2.26-4.81c-7.05-12.13-7.62-24.55-0.9-36.9
			C79.68,104.34,91.33,97.84,105.27,97.85z M80.15,134.57c0.06,14.17,11.25,25.22,25.3,25c13.81-0.22,24.86-11.41,24.84-25.16
			c-0.02-14.07-11.36-25.43-25.22-25.3C90.95,109.23,80.09,120.34,80.15,134.57z"/>
		<path d="M142.53,68.3c-3.38-0.46-5.63-2.18-5.74-5.88c-0.1-3.38,2.78-6.12,6.18-6.07c3.32,0.06,6.28,3.13,5.82,6.38
			C148.31,66.18,146.28,68.21,142.53,68.3z"/>
		<path d="M176.21,62.22c-0.34,3.52-2.1,5.71-5.69,6.01c-3.39,0.28-6.22-2.46-6.26-5.84c-0.04-3.39,2.75-6.23,6.11-6.01
			C173.95,56.61,175.77,58.77,176.21,62.22z"/>
		<path d="M156.26,90.38c-3.45-0.37-6.32-2.01-8.67-4.63c-0.54-0.6-1.04-1.3-0.62-2.17c0.43-0.88,1.28-0.9,2.08-0.74
			c4.81,0.95,9.61,0.93,14.43,0.03c0.96-0.18,2-0.26,2.47,0.89c0.34,0.85-0.15,1.6-0.7,2.17C162.82,88.46,159.91,90.07,156.26,90.38
			z"/>
	</g>
</g>
</svg>
