<?xml version="1.0" standalone="no"?>
<!DOCTYPE svg PUBLIC "-//W3C//DTD SVG 20010904//EN"
 "http://www.w3.org/TR/2001/REC-SVG-20010904/DTD/svg10.dtd">
<svg version="1.0" xmlns="http://www.w3.org/2000/svg"
 width="90.000000pt" height="113.000000pt" viewBox="0 0 90.000000 113.000000"
 preserveAspectRatio="xMidYMid meet">

<g transform="translate(0.000000,113.000000) scale(0.100000,-0.100000)"
fill="#000000" stroke="none">
<path d="M147 972 l-147 -147 2 -365 3 -365 394 -3 c309 -2 396 1 403 10 9 15
11 978 2 1002 -5 14 -38 16 -258 16 l-251 0 -148 -148z m603 -367 l0 -465
-345 0 -345 0 0 325 0 325 134 0 c113 0 135 2 140 16 3 9 6 72 6 140 l0 124
205 0 205 0 0 -465z m-473 248 c-3 -2 -42 -3 -87 -1 l-83 3 84 85 84 85 3 -84
c2 -46 1 -85 -1 -88z"/>
<path d="M517 984 c-4 -4 -7 -22 -7 -41 0 -32 -1 -33 -41 -33 l-40 0 3 -37 c3
-36 5 -38 41 -41 35 -3 37 -5 37 -38 0 -33 1 -34 40 -34 39 0 40 1 40 35 0 33
2 35 35 35 34 0 35 1 35 40 0 39 -1 40 -34 40 -33 0 -35 2 -38 38 -3 33 -6 37
-33 40 -17 2 -34 0 -38 -4z"/>
<path d="M180 605 l0 -25 240 0 240 0 0 25 0 25 -240 0 -240 0 0 -25z"/>
<path d="M182 503 l3 -28 238 -3 237 -2 0 30 0 30 -241 0 -240 0 3 -27z"/>
<path d="M180 395 l0 -25 240 0 240 0 0 25 0 25 -240 0 -240 0 0 -25z"/>
<path d="M180 290 l0 -30 240 0 240 0 0 30 0 30 -240 0 -240 0 0 -30z"/>
<path d="M840 561 l0 -480 -22 -15 c-19 -14 -72 -16 -376 -16 l-353 0 3 -22 3
-23 368 -3 368 -2 30 29 29 30 -2 488 -3 488 -22 3 -23 3 0 -480z"/>
</g>
</svg>
