<?xml version="1.0" encoding="utf-8"?>
<!-- Generator: Adobe Illustrator 28.1.0, SVG Export Plug-In . SVG Version: 6.00 Build 0)  -->
<svg version="1.1" id="Layer_1" xmlns="http://www.w3.org/2000/svg" xmlns:xlink="http://www.w3.org/1999/xlink" x="0px" y="0px"
	 viewBox="0 0 265 196" style="enable-background:new 0 0 265 196;" xml:space="preserve">
<g id="ssZL9X.tif">
	<g>
		<path d="M45.52,39c2.94-5.48,6.22-10.57,12.68-12.55c5.99-1.83,7.51-0.83,7.56,5.28c0.02,2.98-0.13,5.97,0.08,8.94
			c0.49,7.2,5.69,12.51,12.25,12.7c6.27,0.19,11.72-4.68,12.58-11.73c0.46-3.76,0.32-7.61,0.23-11.41
			c-0.08-3.05,0.88-4.56,4.22-4.54c12.47,0.08,10.18-0.74,10.43,9.73c0.07,2.97-0.21,5.94,0.75,8.86c1.77,5.37,6.47,9.06,11.79,9.08
			c5.49,0.02,10.31-3.86,11.9-9.52c1.24-4.4,0.67-8.9,0.66-13.34c0-3.22,0.85-4.87,4.47-4.82c12.18,0.14,9.99-0.77,10.19,9.96
			c0.06,3.31-0.15,6.63,1.14,9.8c1.92,4.72,6.75,8.03,11.63,7.93c5.18-0.11,9.85-3.7,11.49-8.77c1.46-4.53,0.75-9.2,0.9-13.82
			c0.17-4.84,1.32-5.77,6.09-4.74c7.44,1.6,14.24,9.43,14.36,17.7c0.28,18.88,0.12,37.76,0.13,56.64c0,2.29-0.19,4.82-3.34,4.04
			c-2.71-0.68-7.33,1.39-7.3-4.24c0.03-6.96-0.17-13.92,0.05-20.87c0.12-3.78-0.95-5.25-5.02-5.24
			c-38.26,0.13-76.53,0.12-114.79,0.02c-3.65-0.01-4.92,1.13-4.89,4.84c0.13,23.19,0.02,46.37,0.09,69.56
			c0.03,9.46,4.99,14.39,14.5,14.42c21.2,0.07,42.4,0.02,63.61,0.03c4.69,0,9.11,4.28,9.23,8.72c0.05,1.76-1.08,1.86-2.25,1.86
			c-26.5-0.05-53.01,0.22-79.49-0.4c-7.62-0.18-12.57-6.08-15.91-12.83C45.52,119.87,45.52,79.43,45.52,39z"/>
		<path d="M173.81,191.13c-14.42-4.38-25.33-12.75-30.78-27.25c-5.98-15.91-1.88-33.57,11.11-45.47
			c13.45-12.32,29.24-14.83,45.67-7.58c16.03,7.08,24.79,20.03,25.02,37.93c0.24,19.18-10.85,34.57-28.97,40.76
			c-1.4,0.48-2.77,1.07-4.15,1.61C185.74,191.13,179.78,191.13,173.81,191.13z M147.34,149.48c0.12,19.1,16.11,35.08,35.28,35.26
			c19.13,0.18,35.68-16.37,35.52-35.5c-0.17-19.15-16.15-35.15-35.26-35.28C163.75,113.83,147.22,130.35,147.34,149.48z"/>
		<path d="M87.59,33.23c0,2.81,0.16,5.63-0.03,8.42c-0.35,5.18-3.97,8.52-9.05,8.59c-5.32,0.08-9.16-3.32-9.38-8.75
			c-0.22-5.61-0.21-11.24-0.01-16.85c0.2-5.45,3.98-8.87,9.3-8.83c5.28,0.04,8.88,3.49,9.17,8.99c0.15,2.8,0.03,5.61,0.03,8.42
			C87.6,33.23,87.6,33.23,87.59,33.23z"/>
		<path d="M127.37,33.66c0.01,2.64,0.15,5.3-0.03,7.93c-0.36,5.38-4.18,8.77-9.49,8.65c-5.07-0.11-8.74-3.47-8.94-8.69
			c-0.22-5.77-0.24-11.57,0.02-17.34c0.23-5.13,4.08-8.41,9.2-8.4c5.11,0.01,8.83,3.3,9.19,8.43
			C127.54,27.37,127.36,30.52,127.37,33.66z"/>
		<path d="M167.15,33.19c0,2.81,0.15,5.63-0.03,8.42c-0.34,5.19-3.94,8.54-9.01,8.63c-5.32,0.09-9.21-3.3-9.42-8.71
			c-0.22-5.77-0.24-11.57,0.02-17.34c0.24-5.12,4.1-8.4,9.22-8.38c5.1,0.02,8.81,3.32,9.17,8.46
			C167.32,27.23,167.14,30.22,167.15,33.19z"/>
		<path d="M85.47,101.99c-0.66,0-1.33-0.05-1.98,0.01c-11.26,0.92-11.15-4.73-10.11-14.06c0.3-2.67,2.54-4.31,5.3-4.41
			c4.46-0.15,8.93-0.22,13.38,0.04c3.19,0.19,5.09,2.29,5.4,5.49c0.21,2.13,0.16,4.3,0.07,6.44c-0.17,4.17-2.46,6.32-6.6,6.46
			c-1.82,0.06-3.64,0.01-5.45,0.01C85.47,101.97,85.47,101.98,85.47,101.99z"/>
		<path d="M118.98,101.99c-0.66,0-1.32,0-1.98,0c-9.19-0.02-13.29-6.33-9.62-14.82c0.13-0.3,0.29-0.59,0.47-0.87
			c1.9-3,16.74-4.36,20.64-1.9c2.9,1.83,4.21,10.4,2.14,14.24c-1.1,2.06-2.86,3.18-5.2,3.26c-2.15,0.07-4.3,0.02-6.44,0.02
			C118.98,101.95,118.98,101.97,118.98,101.99z"/>
		<path d="M152.82,101.99c-0.66,0-1.32,0-1.98,0c-9.23-0.02-13.32-6.26-9.66-14.78c0.92-2.13,2.57-3.59,4.9-3.66
			c4.62-0.14,9.25-0.1,13.87,0.02c1.72,0.05,3.28,0.99,4.05,2.53c2.02,4.06,1.84,8.42,0.35,12.48c-1.3,3.55-4.84,3.49-8.06,3.41
			C155.14,101.97,153.98,101.99,152.82,101.99z"/>
		<path d="M84.97,127.81c-1.82,0-3.64,0.07-5.45-0.01c-4.17-0.19-6.33-2.45-6.46-6.6c-0.06-1.82-0.07-3.64,0.01-5.45
			c0.19-4.18,2.46-6.36,6.6-6.45c3.8-0.08,7.61-0.1,11.4,0.01c4.18,0.12,6.32,2.44,6.47,6.58c0.06,1.49,0.07,2.98,0.02,4.46
			c-0.18,5.4-2.14,7.31-7.63,7.48c-1.65,0.05-3.31,0.01-4.96,0.01C84.97,127.83,84.97,127.82,84.97,127.81z"/>
		<path d="M119.19,109.25c0.66-0.01,1.33,0.05,1.98-0.01c11.02-0.99,11,5.13,9.78,14.3c-0.32,2.44-2.46,4.04-4.99,4.14
			c-4.62,0.17-9.26,0.25-13.87-0.04c-2.94-0.19-4.76-2.25-5.12-5.21c-0.24-1.96-0.19-3.96-0.12-5.94c0.18-5.1,2.17-7.03,7.37-7.21
			C115.88,109.21,117.54,109.26,119.19,109.25z"/>
		<path d="M85.34,135.1c0.66,0,1.33,0.05,1.98-0.01c11.07-0.98,11.04,5.1,9.82,14.26c-0.35,2.65-2.69,4.16-5.45,4.24
			c-4.29,0.11-8.6,0.19-12.89-0.03c-3.43-0.18-5.4-2.31-5.69-5.74c-0.17-1.97-0.11-3.96-0.06-5.95c0.11-4.42,2.44-6.66,6.83-6.74
			c1.82-0.04,3.64-0.01,5.45-0.01C85.34,135.12,85.34,135.11,85.34,135.1z"/>
		<path d="M118.74,153.66c-1.82,0-3.64,0.06-5.45-0.02c-3.9-0.18-6.14-2.22-6.39-6.15c-0.14-2.14-0.13-4.3,0.02-6.44
			c0.25-3.43,2.18-5.63,5.62-5.81c4.45-0.23,8.93-0.25,13.38,0.03c3.19,0.2,5.06,2.33,5.36,5.52c0.2,2.13,0.16,4.3,0.07,6.44
			c-0.19,4.18-2.51,6.29-6.64,6.42C122.71,153.72,120.73,153.67,118.74,153.66z"/>
		<path d="M176.49,139.17c0-3.8-0.07-7.61,0.02-11.41c0.07-2.68,1.42-4.44,4.26-4.43c2.84,0.01,4.19,1.78,4.24,4.45
			c0.1,4.96,0.19,9.92,0.04,14.88c-0.09,3.15,0.99,4.57,4.28,4.41c3.46-0.17,6.94-0.04,10.42-0.01c2.8,0.02,4.98,1.01,5.06,4.17
			c0.08,3.13-1.94,4.39-4.81,4.41c-6.28,0.05-12.57,0.03-18.85,0c-3.33-0.01-4.71-1.9-4.7-5.07c0.01-3.8,0-7.61,0-11.41
			C176.47,139.17,176.48,139.17,176.49,139.17z"/>
	</g>
</g>
</svg>
