<?xml version="1.0" encoding="utf-8"?>
<!-- Generator: Adobe Illustrator 28.1.0, SVG Export Plug-In . SVG Version: 6.00 Build 0)  -->
<svg version="1.1" id="Layer_1" xmlns="http://www.w3.org/2000/svg" xmlns:xlink="http://www.w3.org/1999/xlink" x="0px" y="0px"
	 viewBox="0 0 250 250" style="enable-background:new 0 0 250 250;" xml:space="preserve">
<g id="jlCj66.tif">
	<g>
		<path d="M80.48,9c19.91,4.13,34.47,15.08,42.87,33.76c5.13,11.41,5.61,23.53,4.33,35.66c-0.94,8.89-7.74,14.32-16.73,14.15
			c-3.49-0.07-6,0.94-8.28,3.51c-1.61,1.82-3.58,3.4-5.62,4.73c-2.62,1.71-4.44,3.04-0.65,5.53c1.68,1.1,2.37,3.05,1.66,5.15
			c-0.76,2.25-2.43,3.63-4.74,3.47c-2.71-0.19-3.55,1.43-4.62,3.39c-8.83,16.17-23.82,16.94-34.39,1.66
			c-1.76-2.55-2.79-2.47-4.71-0.49c-5.47,5.64-8.92,12.23-9.09,20.15c-0.25,11.76-0.1,23.53-0.32,35.29
			c-0.06,2.93,1.81,3.93,3.72,5.16c10.76,6.96,21.52,13.92,32.27,20.9c1.32,0.86,2.67,1.73,3.8,2.81c1.82,1.76,2.42,3.92,0.91,6.17
			c-1.42,2.13-3.67,3.26-5.92,1.91c-14.75-8.85-29.14-18.25-43.26-28.07c-1.35-0.94-1.84-2.62-1.84-4.22
			c-0.04-14.04-0.95-28.12,0.39-42.1c1.2-12.51,7.51-22.57,17.71-29.89c3.51-2.52,3.19-3.83-0.27-5.67c-1.69-0.9-3.46-1.96-4.66-3.4
			c-3.74-4.49-8.17-6.2-14.15-6.19c-6.67,0.01-12.59-6.02-13.42-13.48c-2.73-24.49,2.95-48.09,28.84-63.41
			C49.66,12.31,55.7,10.95,61.5,9C67.83,9,74.15,9,80.48,9z M25.71,67.12c0,3.16-0.17,6.33,0.04,9.48c0.25,3.65,2.25,5.94,6.09,5.82
			c3.75-0.12,5.81-2.4,6.03-6.03c0.23-3.68,0.14-7.38,0.11-11.06c-0.04-4.46,1.01-8.67,2.47-12.86c1.72-4.93,4.68-7.54,10.22-7.01
			c3.66,0.35,7.42-0.3,11.05,0.15c5.72,0.72,8.31-1.36,8.89-7.18c0.6-5.99,3.16-7.4,8.98-6.03c13.85,3.26,24.71,16.38,25.37,30.81
			c0.18,4.03,0.05,8.08,0.11,12.12c0.06,4.04,1.76,6.94,6.1,7.09c4.48,0.15,6.14-2.82,6.22-6.83c0.08-4.39,0.13-8.79-0.06-13.17
			c-1.01-23.89-19.89-42.47-43.76-43.65C47.74,17.48,23.69,38.72,25.71,67.12z M71.42,98.57c9.27,0.29,17.17-2.94,23.81-9.32
			c1.23-1.18,2.93-2.38,1.84-4.44c-3.2-6.11-1.97-12.7-2.17-19.13c-0.26-8.02-3.2-14.64-9.71-19.51c-4.38-3.28-5.16-3.15-6.38,2.16
			c-1.22,5.32-4.05,7.78-9.62,7.39c-4.36-0.3-8.8,0.29-13.14-0.15c-5.34-0.54-7.36,2.08-7.72,6.8c-0.17,2.27-0.14,4.55-0.19,6.83
			c-0.12,5.22,0.68,10.56-2.11,15.44c-1.16,2.03,0.39,3.27,1.64,4.48C54.3,95.52,62.15,98.87,71.42,98.57z M65.48,108.54
			c-3.29,0.04-4.09,1.07-3.42,3.95c1.02,4.42,5.91,8.33,9.91,7.95c3.59-0.35,8.22-5.62,8.67-9.58c0.24-2.13-0.89-2.53-2.45-2.3
			C73.82,109.2,69.47,109.59,65.48,108.54z"/>
		<path d="M196.45,9c18.04,4.28,30.85,14.58,37.17,32.33c1.63,4.57,2.71,9.04-1.09,13.33c-1.04,1.17-1.12,3.26-1.46,4.96
			c-2.43,12.48-8.63,22.55-19.26,29.64c-2.88,1.92-3.23,2.82-0.12,4.99c12.72,8.87,19.01,21.15,18.9,36.75
			c-0.11,15.63-0.11,31.26,0.04,46.88c0.03,3.77-1.36,6.24-4.48,8.24c-13.01,8.33-25.94,16.8-38.91,25.19
			c-1.17,0.76-2.4,1.49-3.7,2.01c-2.45,0.98-4.56,0.21-5.98-1.91c-1.49-2.21-1.12-4.55,0.9-6.13c3.03-2.38,6.29-4.47,9.52-6.58
			c9.56-6.24,19.11-12.48,28.75-18.58c2.66-1.68,3.82-3.71,3.8-6.89c-0.12-14.75,0.06-29.5-0.13-44.25
			c-0.13-9.86-4.46-17.89-11.77-24.39c-1.91-1.69-3.1-1.99-4.78,0.74c-9.06,14.67-24.27,15.16-33.98,1.15
			c-1.78-2.56-2.91-3.05-5.09-0.68c-2.45,2.66-5.52,4.56-8.6,1.34c-3.35-3.5-0.68-6.3,1.87-8.98c2.29-2.41,7.25-3.61,7.07-6.3
			c-0.16-2.29-4.62-4.23-7.1-6.41c-4.82-4.23-8.59-9.24-11.1-15.17c-0.41-0.97-0.63-2.33-1.38-2.79c-8.36-5.09-5.9-13.07-4.48-19.85
			c4.4-20.99,17.89-33.52,38.53-38.63C185.2,9,190.83,9,196.45,9z M176.31,53.6c-4.79-1.26-8.58,0.45-10.69,6.09
			c-0.97,2.6-3.47,4.43-6.06,5.62c-2.65,1.22-2.51,2.7-1.29,4.97c5.51,10.23,20.05,17.66,32.1,16.25
			c13.64-1.6,25.77-11.17,29.04-22.69c0.78-2.76,0.24-3.69-2.69-4c-5.38-0.57-9.65-3.45-12.18-8.16c-1.71-3.18-3.53-3.03-6.36-1.94
			C191.41,52.33,184.34,53.52,176.31,53.6z M188.32,18.77c-18.81-0.05-35.21,13.98-37.7,32.43c-0.27,1.97-1.63,5.08,1.75,5.66
			c2.69,0.46,4.54-1.65,5.46-4.1c0.48-1.28,0.51-2.75,0.63-4.14c0.4-4.74,2.76-7.14,7.66-6.25c13.32,2.45,25.77,0.11,37.62-6.34
			c4.1-2.23,7.12-0.55,8.15,4.04c0.34,1.54,0.33,3.16,0.75,4.67c1.13,4.02,5.45,6.25,9.16,4.72c4.39-1.81,2.2-4.85,1.15-7.48
			C217.35,28,203.58,18.81,188.32,18.77z M186.56,105.93c4.38,0.26,6.95-2.32,8.71-6.09c1.13-2.41,0.78-3.53-2.27-3.3
			c-3.48,0.26-6.99-0.02-10.48,0.11c-1.75,0.07-4.12-2.07-5.11,0.43c-0.75,1.92,0.79,4,2.12,5.66
			C181.29,104.93,183.63,105.96,186.56,105.93z"/>
		<path d="M90.79,208.36c-0.82-15.35,4.02-28.75,17.7-38.12c3.78-2.59,0.2-3.69-1.17-4.94c-11.74-10.71-15.67-24.92-10.74-39.18
			c4.86-14.03,17.93-23.49,32.81-23.75c15.34-0.27,28.92,8.64,34.28,22.49c5.41,13.99,1.68,30.37-9.78,39.78
			c-4,3.29-3.55,4.33,0.31,7.18c10.78,7.95,15.03,19.27,15.84,32.41c1.08,17.62,1.3,17.59-13.65,26.91
			c-6.55,4.09-13.21,8.04-19.54,12.45c-4.51,3.15-8.28,3.26-12.9,0.07c-8.23-5.68-16.65-11.13-25.35-16.05
			c-5.93-3.35-8.9-7.57-7.84-14.4C90.97,211.83,90.79,210.4,90.79,208.36z M159.23,207.49c0.96-10.52-1.78-19.05-9.11-25.94
			c-1.92-1.81-3.15-2.52-5.42,0.06c-9.2,10.45-19.75,10.4-29.11-0.07c-2.06-2.31-3.35-1.84-5.12-0.15c-4.3,4.1-7.19,9-8.6,14.8
			c-1.31,5.37-0.77,10.82-1.01,16.24c-0.14,3.2,1.1,5.23,3.79,6.87c7.47,4.6,14.91,9.27,22.21,14.14c2.64,1.76,4.65,1.51,7.14-0.15
			c5.55-3.7,11.04-7.59,16.95-10.6C157.77,219.22,161.38,214.65,159.23,207.49z M104.92,138.28c0.08,13.98,11.79,25.54,25.59,25.29
			c14.06-0.26,25.79-12.3,25.48-26.18c-0.14-6.23-1.2-7.16-7.02-5.85c-11.97,2.69-23.93,2.83-35.95,0.23
			C105.44,130.14,104.87,130.71,104.92,138.28z M130.52,123.83c5.1-0.72,10.11-1.38,15.11-2.14c3.32-0.5,2.67-1.89,0.79-3.65
			c-8-7.48-24.28-7.39-32.47,0.25c-0.61,0.57-1.49,1.36-1.45,2c0.08,1.32,1.49,1.23,2.46,1.37
			C120.15,122.42,125.34,123.11,130.52,123.83z"/>
	</g>
</g>
</svg>
