<?xml version="1.0" encoding="utf-8"?>
<!-- Generator: Adobe Illustrator 24.0.0, SVG Export Plug-In . SVG Version: 6.00 Build 0)  -->
<svg version="1.1" id="Capa_1" xmlns="http://www.w3.org/2000/svg" xmlns:xlink="http://www.w3.org/1999/xlink" x="0px" y="0px"
	 viewBox="0 0 512 512" style="enable-background:new 0 0 512 512;" xml:space="preserve">
<style type="text/css">
	.st0{fill:#998EEB;}
</style>
<circle class="st0" cx="359.77" cy="150.73" r="132.23"/>
<g>
	<g>
		<path d="M346,319c-5.52,0-10,4.48-10,10v69c0,27.57-22.43,50-50,50H178.03c-5.52,0-10,4.47-10,9.99l-0.01,19.88l-23.87-23.87
			c-1.54-3.55-5.08-6.01-9.17-6.01H70c-27.57,0-50-22.43-50-50V244c0-27.57,22.43-50,50-50h101c5.52,0,10-4.48,10-10s-4.48-10-10-10
			H70c-38.6,0-70,31.4-70,70v154c0,38.6,31.4,70,70,70h59.86l41.07,41.07c1.91,1.91,4.47,2.93,7.07,2.93c1.29,0,2.59-0.25,3.82-0.76
			c3.74-1.55,6.17-5.19,6.18-9.23l0.02-34.01H286c38.6,0,70-31.4,70-70v-69C356,323.48,351.52,319,346,319z"/>
	</g>
</g>
<g>
	<g>
		<path d="M366.65,0h-25.31C261.2,0,196,65.2,196,145.35s65.2,145.34,145.35,145.34h25.31c12.51,0,24.89-1.59,36.89-4.73
			l37.39,37.37c1.91,1.91,4.47,2.93,7.07,2.93c1.29,0,2.59-0.25,3.83-0.76c3.74-1.55,6.17-5.19,6.17-9.24V258.4
			c15.83-12.82,28.98-29.01,38.21-47.1c10.48-20.55,15.79-42.73,15.79-65.95C512,65.2,446.8,0,366.65,0z M441.98,245.54
			c-2.51,1.89-3.98,4.85-3.98,7.99v38.6l-24.47-24.46c-1.9-1.9-4.46-2.93-7.07-2.93c-0.98,0-1.97,0.14-2.94,0.44
			c-11.9,3.66-24.31,5.51-36.87,5.51h-25.31c-69.12,0-125.35-56.23-125.35-125.35S272.23,20,341.35,20h25.31
			C435.77,20,492,76.23,492,145.35C492,185.08,473.77,221.6,441.98,245.54z"/>
	</g>
</g>
<g>
	<g>
		<path d="M399.03,109.42c-1.44-20.93-18.32-37.81-39.26-39.25c-11.87-0.82-23.19,3.19-31.86,11.28
			c-8.55,7.98-13.45,19.26-13.45,30.95c0,5.52,4.48,10,10,10s10-4.48,10-10c0-6.26,2.52-12.06,7.1-16.33
			c4.57-4.27,10.55-6.38,16.84-5.95c11.03,0.76,19.92,9.65,20.68,20.68c0.77,11.14-6.54,20.98-17.37,23.4
			c-8.78,1.96-14.91,9.59-14.91,18.55v24.02c0,5.52,4.48,10,10,10c5.52,0,10-4.48,10-10v-23.23
			C386.95,148.68,400.47,130.24,399.03,109.42z"/>
	</g>
</g>
<g>
	<g>
		<path d="M363.87,209.26c-1.86-1.86-4.44-2.93-7.07-2.93s-5.21,1.07-7.07,2.93c-1.86,1.86-2.93,4.44-2.93,7.07
			c0,2.64,1.07,5.22,2.93,7.08c1.86,1.86,4.44,2.92,7.07,2.92s5.21-1.06,7.07-2.92c1.86-1.87,2.93-4.44,2.93-7.08
			C366.8,213.7,365.73,211.12,363.87,209.26z"/>
	</g>
</g>
<g>
	<g>
		<path d="M275,310H64c-5.52,0-10,4.48-10,10s4.48,10,10,10h211c5.52,0,10-4.48,10-10S280.52,310,275,310z"/>
	</g>
</g>
<g>
	<g>
		<path d="M282.07,368.93c-1.86-1.86-4.44-2.93-7.07-2.93s-5.21,1.07-7.07,2.93c-1.86,1.86-2.93,4.44-2.93,7.07s1.07,5.21,2.93,7.07
			c1.86,1.86,4.44,2.93,7.07,2.93s5.21-1.07,7.07-2.93c1.86-1.86,2.93-4.43,2.93-7.07C285,373.37,283.93,370.79,282.07,368.93z"/>
	</g>
</g>
<g>
	<g>
		<path d="M235.67,366H64c-5.52,0-10,4.48-10,10s4.48,10,10,10h171.67c5.52,0,10-4.48,10-10S241.19,366,235.67,366z"/>
	</g>
</g>
<g>
	<g>
		<path d="M210,254H64c-5.52,0-10,4.48-10,10s4.48,10,10,10h146c5.52,0,10-4.48,10-10S215.52,254,210,254z"/>
	</g>
</g>
</svg>
