<?xml version="1.0" encoding="utf-8"?>
<!-- Generator: Adobe Illustrator 24.0.0, SVG Export Plug-In . SVG Version: 6.00 Build 0)  -->
<svg version="1.1" id="Capa_1" xmlns="http://www.w3.org/2000/svg" xmlns:xlink="http://www.w3.org/1999/xlink" x="0px" y="0px"
	 viewBox="0 0 512 512" style="enable-background:new 0 0 512 512;" xml:space="preserve">
<style type="text/css">
	.st0{fill:#998EEB;}
</style>
<rect x="39" y="88" class="st0" width="332" height="198"/>
<g>
	<g>
		<path d="M480,117.33h-53.33v21.33H480c5.89,0,10.67,4.78,10.67,10.67v256c0,5.89-4.78,10.67-10.67,10.67H330.67
			c-2.83,0-5.54,1.13-7.54,3.13l-24.46,24.46v-16.92c0-5.89-4.78-10.67-10.67-10.67H138.67c-5.89,0-10.67-4.78-10.67-10.67v-32
			h-21.33v32c0,17.67,14.33,32,32,32h138.67v32c0,5.89,4.78,10.67,10.67,10.67c2.83,0,5.54-1.13,7.54-3.13l39.54-39.54H480
			c17.67,0,32-14.33,32-32v-256C512,131.66,497.67,117.33,480,117.33z"/>
	</g>
</g>
<g>
	<g>
		<path d="M373.33,32H32C14.33,32,0,46.33,0,64v256c0,17.67,14.33,32,32,32h149.33v32c0,5.89,4.78,10.67,10.67,10.67
			c2.83,0,5.54-1.13,7.54-3.13L239.08,352h134.25c17.67,0,32-14.33,32-32V64C405.33,46.33,391.01,32,373.33,32z M384,320
			c0,5.89-4.78,10.67-10.67,10.67H234.67c-2.83,0-5.54,1.13-7.54,3.13l-24.46,24.46v-16.92c0-5.89-4.78-10.67-10.67-10.67H32
			c-5.89,0-10.67-4.78-10.67-10.67V64c0-5.89,4.78-10.67,10.67-10.67h341.33c5.89,0,10.67,4.78,10.67,10.67V320z"/>
	</g>
</g>
<g>
	<g>
		<rect x="53.33" y="117.33" width="117.33" height="21.33"/>
	</g>
</g>
<g>
	<g>
		<rect x="53.33" y="181.33" width="298.67" height="21.33"/>
	</g>
</g>
<g>
	<g>
		<rect x="53.33" y="245.33" width="298.67" height="21.33"/>
	</g>
</g>
<g>
	<g>
		<rect x="330.67" y="117.33" width="21.33" height="21.33"/>
	</g>
</g>
<g>
	<g>
		<rect x="288" y="117.33" width="21.33" height="21.33"/>
	</g>
</g>
</svg>
