<?xml version="1.0" encoding="utf-8"?>
<!-- Generator: Adobe Illustrator 24.0.0, SVG Export Plug-In . SVG Version: 6.00 Build 0)  -->
<svg version="1.1" id="Layer_1" xmlns="http://www.w3.org/2000/svg" xmlns:xlink="http://www.w3.org/1999/xlink" x="0px" y="0px"
	 viewBox="0 0 512 512" style="enable-background:new 0 0 512 512;" xml:space="preserve">
<style type="text/css">
	.st0{fill:#998EEB;}
</style>
<path class="st0" d="M247.89,232.54c0,0-63.64-63.72-50.14-83.01s31.82-22.78,38.57-19.59c6.75,3.19,19.68,12.22,19.68,12.22
	s24.68-21.2,35.28-12.22c10.61,8.98,21.21,30.19,21.21,30.19L247.89,232.54z"/>
<g>
	<g>
		<path d="M506.55,208.06l-242.7-177.7c-4.68-3.43-11.04-3.43-15.72,0L5.45,208.06c-5.93,4.34-7.22,12.66-2.88,18.59
			s12.67,7.21,18.59,2.88L256,57.59l234.84,171.94c2.37,1.74,5.12,2.57,7.85,2.57c4.1,0,8.14-1.88,10.74-5.45
			C513.77,220.73,512.48,212.4,506.55,208.06z"/>
	</g>
</g>
<g>
	<g>
		<path d="M442.25,232.54c-7.35,0-13.3,5.96-13.3,13.3v211.75H322.52V342.01c0-36.68-29.84-66.52-66.52-66.52
			s-66.52,29.84-66.52,66.52V457.6H83.06V245.85c0-7.35-5.96-13.3-13.3-13.3s-13.3,5.96-13.3,13.3V470.9c0,7.35,5.96,13.3,13.3,13.3
			h133.03c7,0,12.72-5.4,13.25-12.27c0.03-0.31,0.05-0.65,0.05-1.04V342.01c0-22.01,17.9-39.91,39.91-39.91s39.91,17.91,39.91,39.91
			V470.9c0,0.38,0.02,0.72,0.05,1.02c0.52,6.87,6.25,12.28,13.25,12.28h133.03c7.35,0,13.3-5.96,13.3-13.3V245.85
			C455.55,238.5,449.59,232.54,442.25,232.54z"/>
	</g>
</g>
<g>
	<g>
		<path d="M280.86,118.9c-11.24,0-21.13,4.57-28.87,13.28c-7.74-8.71-17.63-13.28-28.87-13.28c-23.15,0-41.28,18.87-41.28,42.97
			c0,24.96,19.39,41.21,46.22,63.7c5.2,4.36,10.58,8.87,16.3,13.82c2.19,1.9,4.9,2.84,7.62,2.84c2.72,0,5.43-0.95,7.62-2.84
			c5.21-4.51,10.12-8.66,14.86-12.66c27.25-23,47.66-40.16,47.66-64.86C322.14,137.78,304.01,118.9,280.86,118.9z M259.47,208.95
			c-2.44,2.06-4.93,4.16-7.48,6.33c-3.07-2.6-6.04-5.09-8.96-7.54c-24.91-20.88-37.9-32.4-37.9-45.87c0-11.05,7.91-19.7,18.01-19.7
			c12.49,0,17.33,15.4,17.66,16.52c1.35,5.1,5.93,8.65,11.2,8.65c5.28,0,9.85-3.55,11.2-8.65c0.33-1.12,5.17-16.52,17.66-16.52
			c10.1,0,18.01,8.65,18.01,19.7C298.87,175.4,283.96,188.28,259.47,208.95z"/>
	</g>
</g>
</svg>
