<?xml version="1.0" encoding="utf-8"?>
<!-- Generator: Adobe Illustrator 28.1.0, SVG Export Plug-In . SVG Version: 6.00 Build 0)  -->
<svg version="1.1" id="Layer_1" xmlns="http://www.w3.org/2000/svg" xmlns:xlink="http://www.w3.org/1999/xlink" x="0px" y="0px"
	 viewBox="0 0 250 250" style="enable-background:new 0 0 250 250;" xml:space="preserve">
<g id="zUMCdy.tif">
	<g>
		<path d="M110.97,245.03c-3.17-0.7-6.4-0.41-9.6-0.63c-9.43-0.64-18.86-1.35-28.16-3.07c-5.99-1.11-12-2.34-17.34-5.54
			c-0.91-0.55-1.79-1.2-2.55-1.94c-2.65-2.59-2.71-5.91-0.13-8.56c2.77-2.84,6.41-4.07,10.07-5.22c6.62-2.07,13.45-3.15,20.32-3.87
			c8.46-0.89,16.94-1.7,25.46-1.86c1.97-0.04,3.42,0.63,4.2,2.45c1.05,2.46-0.38,5.07-3.09,5.37c-3.53,0.39-7.08,0.55-10.62,0.75
			c-9.44,0.55-18.85,1.45-28.12,3.36c-3.57,0.74-7.24,1.36-10.79,3.31c1.82,0.93,3.5,1.54,5.22,1.99c8.2,2.13,16.59,3.25,24.99,4.02
			c15.71,1.44,31.47,1.78,47.22,1.25c14.81-0.5,29.6-1.43,44.11-4.77c1.3-0.3,2.6-0.64,3.88-1.04c1.08-0.34,2.12-0.79,3.5-1.32
			c-1.31-0.94-2.52-1.4-3.76-1.73c-9.68-2.63-19.56-3.96-29.55-4.66c-5.15-0.36-10.3-0.64-15.44-1.09
			c-2.68-0.23-4.17-1.88-4.05-4.07c0.14-2.38,1.8-3.86,4.54-3.77c11.86,0.4,23.68,1.26,35.39,3.33c5.03,0.89,9.98,2.03,14.71,4.02
			c3.04,1.28,5.67,3.03,7.33,5.98c0,1.21,0,2.42,0,3.62c-1.59,2.92-4.22,4.65-7.15,5.91c-4.7,2.02-9.66,3.22-14.68,4.11
			c-9.31,1.64-18.72,2.41-28.15,3.04c-3.2,0.22-6.43-0.07-9.6,0.63C129.75,245.03,120.36,245.03,110.97,245.03z"/>
		<path d="M195.59,74.36c0.22,8.87-1.98,16.62-4.36,24.31c-4.3,13.87-10.16,27.11-16.3,40.24c-7.45,15.92-15.65,31.46-24.27,46.77
			c-7.44,13.2-14.92,26.39-23.57,38.85c-1.81,2.6-2.16,2.6-3.93,0.04c-6.91-10-12.97-20.51-19.05-31.02
			c-9.61-16.61-18.65-33.52-26.98-50.81c-7.84-16.26-15.19-32.73-20.05-50.19c-5.79-20.79-1.7-39.88,10.33-57.39
			c9.72-14.15,23.17-23.33,39.73-27.74c16.29-4.35,32.24-2.94,47.49,4.23c19.5,9.16,32.18,24.36,38.34,44.94
			C194.76,62.57,195.82,68.74,195.59,74.36z M157.6,70.18c0.03-18.1-14.44-32.7-32.48-32.76c-17.84-0.06-32.53,14.59-32.59,32.48
			c-0.05,18.06,14.48,32.82,32.41,32.92C142.81,102.93,157.57,88.17,157.6,70.18z"/>
		<path d="M125.07,233.37c-6.39,0.18-12.72-0.32-18.99-1.57c-1.52-0.3-3.02-0.64-4.37-1.43c-1.83-1.08-1.86-2.21,0.03-3.21
			c2.96-1.58,6.32-1.67,9.53-2.28c0.07-0.01,0.14,0,0.2-0.02c5.04-1.3,9.16-0.26,11.95,4.52c0.9,1.54,2.12,1.66,3.31,0.12
			c0.57-0.74,1.42-1.29,1.89-2.08c1.59-2.66,3.88-3.36,6.83-2.95c3.85,0.53,7.73,0.89,11.46,2.03c1.18,0.36,2.74,0.75,2.78,2.24
			c0.04,1.54-1.57,1.93-2.72,2.28c-5.16,1.57-10.51,2.04-15.86,2.34C129.09,233.46,127.08,233.37,125.07,233.37z"/>
	</g>
</g>
</svg>
