<?xml version="1.0" encoding="utf-8"?>
<!-- Generator: Adobe Illustrator 28.1.0, SVG Export Plug-In . SVG Version: 6.00 Build 0)  -->
<svg version="1.1" id="Layer_1" xmlns="http://www.w3.org/2000/svg" xmlns:xlink="http://www.w3.org/1999/xlink" x="0px" y="0px"
	 viewBox="0 0 265 196" style="enable-background:new 0 0 265 196;" xml:space="preserve">
<g>
	<path d="M50.09,89.73c-0.01-19.78-0.12-39.56,0.02-59.34c0.12-18.12,7.28-25.17,25.34-25.23c20.08-0.06,40.16,0.28,60.23-0.15
		c8.23-0.18,11.27,2.9,10.6,10.87c-0.42,4.98,0.31,10.07-0.16,15.04c-0.75,7.99,2.84,10.49,10.35,10
		c6.76-0.44,13.57,0.02,20.36-0.05c5.48-0.05,8.12,2.42,8.11,8.01c-0.07,21.55-0.12,43.1,0.03,64.65c0.05,7.26-4.27,7.78-9.88,7.76
		c-30.41-0.12-60.82-0.06-91.23-0.03c-2.64,0-5.34,0.02-7.92,0.51c-1.9,0.36-2.71,2.17-2.71,4.09c0,2.14,1.29,3.23,3.31,3.36
		c2.35,0.16,4.72,0.2,7.08,0.2c23.03,0.02,46.06,0,69.09,0.04c4.49,0.01,9.05-0.18,9.45,6.4c0.42,6.99-3.24,8.4-9.25,8.36
		c-22.44-0.17-44.88-0.06-67.31-0.06c-2.07,0-4.14-0.07-6.2,0.03c-2.84,0.15-6.64-0.6-6.74,3.7c-0.12,4.92,4.06,4.22,7.15,4.23
		c15.65,0.09,31.29,0.03,46.94,0.06c11.11,0.02,16.93,10.18,11.72,20.27c-1.49,2.89-4.12,3.15-6.78,3.15
		c-20.37,0.02-40.75,0.43-61.11-0.21c-13.55-0.42-20.22-8.27-20.41-22.8C49.9,131.66,50.1,110.69,50.09,89.73z M117.07,53.83
		c-12.95,0-25.9-0.01-38.86,0.01c-2.77,0-5.67,0.27-5.62,3.96c0.04,3.66,2.97,3.91,5.72,3.92c25.61,0.02,51.22,0.03,76.83-0.01
		c2.63,0,5.81,0.07,6.06-3.56c0.3-4.36-3.22-4.27-6.16-4.29C142.38,53.78,129.72,53.82,117.07,53.83z M116.87,76.67
		c-12.37,0-24.73-0.06-37.1,0.04c-3.08,0.02-7.25-0.69-7.12,4.23c0.11,4.28,3.9,3.67,6.73,3.68c25.03,0.05,50.05,0.05,75.08-0.01
		c2.84-0.01,6.68,0.47,6.74-3.72c0.06-4.81-4.15-4.14-7.23-4.17C141.6,76.61,129.23,76.67,116.87,76.67z M116.52,107.58
		c12.37,0,24.75,0.07,37.12-0.05c3.02-0.03,7.4,1.03,7.54-3.76c0.14-4.66-4.11-4.27-7.24-4.28c-24.75-0.07-49.5-0.07-74.24-0.01
		c-3.15,0.01-7.31-0.38-7.03,4.41c0.29,4.85,4.62,3.6,7.61,3.63C92.36,107.66,104.44,107.58,116.52,107.58z"/>
	<path d="M211.63,162.69c0.88,6.4-2.84,8.35-9.44,8.19c-12.64-0.29-14.04-2.03-13.49,13.33c0.26,7.21-2.46,9.82-9.77,9.79
		c-7.33-0.02-8.97-3.32-8.82-9.73c0.34-14.3,0.75-13.73-13.31-13.4c-6.37,0.15-9.77-1.36-9.82-8.73c-0.05-7.37,2.72-10.01,9.86-9.75
		c15.7,0.58,13.62-1.7,13.24-13.67c-0.22-6.91,2.47-9.43,9.27-9.38c6.82,0.05,9.55,2.83,9.32,9.58
		c-0.4,11.95-1.45,13.87,13.62,13.65C210.26,152.46,211.63,154.25,211.63,162.69z"/>
	<path d="M167.59,35.83c-16.93,0.04-18.83-2.73-16.37-22.74c0.73-5.99,3.03-6.51,7.18-2.78c7.02,6.31,14,12.67,20.97,19.04
		c1.28,1.17,3,2.47,2.38,4.38c-0.81,2.51-3.34,1.98-5.31,2.07C173.5,35.93,170.54,35.83,167.59,35.83z"/>
</g>
</svg>
