<?xml version="1.0" encoding="utf-8"?>
<!-- Generator: Adobe Illustrator 26.0.3, SVG Export Plug-In . SVG Version: 6.00 Build 0)  -->
<svg version="1.1" xmlns="http://www.w3.org/2000/svg" xmlns:xlink="http://www.w3.org/1999/xlink" x="0px" y="0px"
	 viewBox="0 0 879.09 768.71" style="enable-background:new 0 0 879.09 768.71;" xml:space="preserve">
<g id="Q">
</g>
<g id="O">
</g>
<g id="health">
	<g id="yfQuxF_00000009547944658471091910000012430964005534681514_">
		<g>
			<path d="M461.63,723.19c-58.03,0.02-116.05,0.15-174.08-0.02c-63.25-0.19-97.19-34.11-97.22-96.87
				c-0.03-73.33-0.08-146.66,0.03-219.99c0.07-46.26,21.73-76.02,66.33-88.4c12.3-3.41,14.11-9.61,14.34-20.3
				c0.7-31.81-2.75-63.72,2.98-95.42C290.88,108.67,380.47,37.9,472.15,45.96c101.58,8.93,178.25,89.11,179.23,187.57
				c0.22,22.32,0.34,44.64-0.03,66.95c-0.16,9.84,3.41,14.2,13.35,17.1c46.13,13.48,67.16,42.06,67.23,89.68
				c0.11,74.61,0.13,149.21-0.01,223.82c-0.1,55.5-34.84,91.29-90.48,91.93C581.52,723.71,521.57,723.17,461.63,723.19z
				 M459.97,664.83c59.95,0,119.89,0.15,179.84-0.07c25.1-0.09,33.62-8.18,33.73-33.17c0.34-75.25,0.33-150.5,0-225.75
				c-0.1-23.88-9.94-33.34-34.25-33.37c-118.62-0.19-237.24-0.19-355.85-0.01c-25.22,0.04-34.64,9.44-34.73,34.86
				c-0.27,73.98-0.26,147.95-0.02,221.93c0.09,27.72,7.95,35.46,35.27,35.55C342.63,664.96,401.3,664.83,459.97,664.83z
				 M592.96,260.15c-0.22,0-0.44,0-0.66,0c0-13.37,0.87-26.81-0.15-40.1c-4.78-62.44-63.46-115.17-128.49-116.02
				c-66.65-0.86-127.55,49.93-133.08,112.93c-2.44,27.83-0.91,56.01-1.32,84.03c-0.15,10.16,3.96,15.16,14.71,15.13
				c78.35-0.18,156.71-0.16,235.06-0.05c9.71,0.01,13.97-4.5,13.94-13.88C592.93,288.18,592.96,274.17,592.96,260.15z"/>
		</g>
	</g>
</g>
<g id="ur">
</g>
</svg>
