<?xml version="1.0" encoding="utf-8"?>
<!-- Generator: Adobe Illustrator 25.2.3, SVG Export Plug-In . SVG Version: 6.00 Build 0)  -->
<svg version="1.1" id="Layer_1" xmlns="http://www.w3.org/2000/svg" xmlns:xlink="http://www.w3.org/1999/xlink" x="0px" y="0px"
	 viewBox="0 0 125 125" style="enable-background:new 0 0 125 125;" xml:space="preserve">
<g id="ZdnXuQ.tif">
	<g>
		<path style="fill:#FF0000" d="M60.6,1.6c1.4,0,2.8,0,4.3,0c5.2,1.3,8.8,5.7,8.7,11.7c-0.2,9.6-0.1,19.1-0.1,28.7c0,1.6,0,1.6,1.4,0.8
			c8.4-4.9,16.9-9.8,25.3-14.6c2.1-1.2,4.3-1.9,6.7-1.7c4.9,0.5,8.7,3.8,9.7,8.3c1.1,4.8-0.9,9.3-5.2,11.9c-1.9,1.1-3.8,2.2-5.6,3.3
			c-6.6,3.8-13.3,7.7-19.9,11.5c-1.4,0.8-1.4,0.9,0,1.7c2,1.1,4,2.3,6,3.4c6.5,3.8,13.1,7.5,19.6,11.3c4,2.4,6.1,6.9,5.3,11
			c-1.5,7.9-9.5,11.5-16.5,7.5c-8.5-4.9-17-9.8-25.4-14.7c-1.3-0.7-1.3-0.7-1.3,0.8c0,9.9,0,19.8,0,29.6c0,0.6,0,1.3-0.1,1.9
			c-0.9,5.7-5.9,9.4-11.9,9c-5.3-0.4-9.5-5.2-9.5-10.8c0-9.8,0-19.6,0-29.4c0-0.3,0-0.6,0-0.9c0-0.6-0.3-0.8-0.8-0.5
			c-0.2,0.1-0.5,0.3-0.7,0.4c-8.4,4.9-16.9,9.8-25.3,14.6c-2.6,1.5-5.4,2.1-8.4,1.2c-4.4-1.3-7-4.3-8-8.7c0-1.2,0-2.4,0-3.6
			c0.8-3.8,3.1-6.4,6.5-8.3c8.2-4.7,16.4-9.4,24.6-14.2c1.3-0.7,1.3-0.8,0-1.5c-8.2-4.7-16.4-9.5-24.6-14.2
			c-3.4-1.9-5.6-4.5-6.5-8.3c0-1.2,0-2.4,0-3.6c1.5-7.7,9.9-11.5,17.2-7.1c8.1,5,16.4,9.6,24.7,14.3C52,43.6,52,43.6,52,42
			c0-9.9,0-19.7,0-29.6c0-0.7,0-1.4,0.1-2.1C53.2,5.6,56.1,2.9,60.6,1.6z"/>
	</g>
</g>
</svg>
