<?xml version="1.0" encoding="utf-8"?>
<!-- Generator: Adobe Illustrator 28.1.0, SVG Export Plug-In . SVG Version: 6.00 Build 0)  -->
<svg version="1.1" id="Layer_1" xmlns="http://www.w3.org/2000/svg" xmlns:xlink="http://www.w3.org/1999/xlink" x="0px" y="0px"
	 viewBox="0 0 265 196" style="enable-background:new 0 0 265 196;" xml:space="preserve">
<g id="aeNecD_00000054233606994253359740000013273873049364043696_">
	<g>
		<path d="M23.17,162.67c0-6.91,0.05-13.82-0.03-20.73c-0.03-2.27,0.76-3.17,3.09-2.98c12.64,1.01,24.52-1.81,35.95-7.1
			c3.68-1.7,7.59-2.93,11.42-4.29c11.2-3.97,22.04-2.84,32.56,2.42c2.75,1.37,5.5,2.73,8.22,4.16c5.47,2.89,11.29,3.69,17.41,3.26
			c8.88-0.63,17.76-1.15,26.65-1.58c2.28-0.11,4.6,0.15,6.88,0.46c3.46,0.47,6.1,2.25,7.16,5.67c0.61,1.98,1.42,1.83,2.95,1.04
			c12.15-6.3,24.58-11.95,37.78-15.72c4.28-1.22,8.62-2.27,13.13-2.17c1.14,0.02,2.31,0.16,3.4,0.47c2.56,0.72,3.57,2.42,3.19,5.07
			c-0.41,2.86-2.1,4.87-4.3,6.56c-7.14,5.49-14.98,9.88-22.75,14.38c-17.14,9.92-34.67,19.15-51.48,29.64
			c-4.55,2.84-9.05,5.81-13.32,9.06c-5.72,4.35-11.66,4.35-18.05,1.92c-6.9-2.62-13.55-5.8-20.19-8.97
			c-10.47-4.99-21.44-7.35-33.02-6.84c-6.87,0.3-13.5,2-20.14,3.58c-7.76,1.85-15.52,3.72-23.29,5.58
			c-3.09,0.74-3.23,0.64-3.23-2.63c-0.01-6.76,0-13.51,0-20.27C23.16,162.67,23.17,162.67,23.17,162.67z M173.42,145.6
			c0.91,5.94-2.15,9.43-7.09,11.87c-12.05,5.95-24.58,8.88-38.08,6.66c-4.03-0.66-8.14-0.83-12.21-1.22c3.25,0.7,6.51,1.13,9.77,1.6
			c5.46,0.79,10.93,1.53,16.47,1.33c8.71-0.32,16.6-3.41,24.22-7.35C171.71,155.79,174.77,151.91,173.42,145.6z"/>
		<path d="M115.49,96.86c-0.6,2.52-1.27,5.03-1.79,7.57c-0.33,1.59-0.99,1.87-2.38,1.08c-4.07-2.31-8.16-4.58-12.26-6.84
			c-1.02-0.56-1.35-1.32-1.21-2.46c0.85-6.64,2.05-13.18,4.39-19.49c1.82-4.92,5.11-8.26,9.95-10.21c5.63-2.27,11.54-3.08,17.54-3.4
			c0.81-0.04,1.64,0.3,2.46,0.51c2.89,0.73,5.74,0.36,8.66,0.06c8.6-0.89,16.85,0.57,24.27,5.17c4.96,3.07,6.26,8.54,7.81,13.67
			c1.31,4.34,1.92,8.84,2.64,13.31c0.23,1.4-0.18,2.33-1.42,3.06c-3.7,2.18-7.39,4.39-11.03,6.66c-1.46,0.91-2.2,0.7-2.47-1.06
			c-0.38-2.47-0.85-4.92-1.36-7.77c-0.87,2.87-0.52,5.43-0.88,7.93c-0.22,1.53-0.85,2.12-2.36,2.12
			c-12.36-0.02-24.71-0.03-37.07,0.01c-1.63,0-2.35-0.59-2.41-2.27c-0.09-2.52-0.37-5.03-0.57-7.55
			C115.82,96.92,115.65,96.89,115.49,96.86z"/>
		<path d="M71.68,64.57c0.65-19.27,9.19-36.86,26.51-49.94c1.89-1.43,2.55-2.59,1.19-4.66c-1.08-1.64-0.4-2.36,1.46-2.3
			c4.3,0.15,8.59,0.28,12.89,0.38c1.54,0.04,2.07,0.47,0.97,1.86c-2.76,3.49-5.51,7-8.25,10.51c-0.99,1.27-1.81,1.04-2.28-0.36
			c-0.76-2.26-1.77-1.84-3.31-0.65c-13.68,10.65-21.52,24.55-23.34,41.8c-3.18,30.16,17.79,59.49,50.26,64.59
			c9.02,1.42,17.91,0.69,26.63-2.02c0.66-0.2,1.32-0.42,1.98-0.6c1.54-0.42,2.81,0,3.42,1.51c0.66,1.65-0.09,2.97-1.62,3.55
			c-2.22,0.83-4.51,1.56-6.83,2.04c-24.39,5.05-45.4-1.41-62.49-19.4C77.29,98.69,71.85,83.74,71.68,64.57z"/>
		<path d="M136.21,1.98c33.89,0.03,62.05,25.2,65.18,58.17c2.05,21.54-5.08,39.87-20.81,54.73c-1.88,1.78-2.65,3.11-0.76,5.24
			c0.81,0.91,0.9,1.82-0.78,1.95c-4.59,0.36-9.17,0.78-13.76,1.15c-1.42,0.12-1.66-0.52-0.96-1.64c2.5-3.96,5.01-7.91,7.5-11.88
			c0.76-1.2,1.24-0.63,1.84,0.18c1.73,2.36,1.78,2.38,3.92,0.33c10.61-10.17,16.7-22.55,18.32-37.19
			c2.76-24.93-11.09-49.88-34.9-60.41c-12.25-5.42-24.95-6.7-38.03-3.6c-3.37,0.8-4.96,0.31-5.35-1.65
			c-0.37-1.81,0.79-2.86,4.08-3.67C126.64,2.49,131.65,1.85,136.21,1.98z"/>
		<path d="M136.5,62.66c-9.97,0.01-18.05-8-17.93-17.76c0.12-9.75,8.09-17.68,17.84-17.75c9.63-0.07,17.95,8.13,17.92,17.66
			C154.3,54.81,146.47,62.65,136.5,62.66z"/>
	</g>
</g>
</svg>
