<?xml version="1.0" encoding="utf-8"?>
<!-- Generator: Adobe Illustrator 25.2.3, SVG Export Plug-In . SVG Version: 6.00 Build 0)  -->
<svg version="1.1" id="Layer_1" xmlns="http://www.w3.org/2000/svg" xmlns:xlink="http://www.w3.org/1999/xlink" x="0px" y="0px"
	 viewBox="0 0 125 125" style="enable-background:new 0 0 125 125;" xml:space="preserve">
<g id="iCfUSa.tif">
	<g>
		<path style="fill:#008000" d="M61.6,124.4c-4.4-3-8.8-6.1-13.2-9.1c-0.3-0.2-0.7-0.4-1-0.7c-1.2-0.9-1.2-1.8,0-2.6c1.5-1.1,3-2.1,4.5-3.1
			c3-2.1,6-4.1,9-6.1c0.7-0.4,1.3-0.8,2.1-0.4c0.8,0.4,0.7,1.2,0.7,1.9c0,1.2,0,2.5,0,3.7c0,1,0.3,1.3,1.3,1.3
			c4.3-0.1,8.6-1,12.7-2.3c7.8-2.6,14.5-6.9,20.1-13c7-7.7,11.1-16.7,12.1-27.1c0.8-8.6-0.6-16.8-4.3-24.6c-3.4-7.3-8.5-13.2-15-18
			c-2.4-1.8-2.7-4.6-0.6-6.5c1.4-1.2,3.2-1.4,4.9-0.2c3.1,2.1,5.9,4.6,8.5,7.3c5.5,5.9,9.5,12.7,12.1,20.3c1.4,4.1,2.3,8.4,2.6,12.8
			c0,0.3,0.1,0.6,0.2,0.9c0,2.3,0,4.5,0,6.8c-0.4,1.1-0.3,2.2-0.4,3.3c-2.1,15.4-9.4,27.8-21.7,37.1c-9.1,6.9-19.5,10.6-31,11.1
			c-0.9,0-1.2,0.3-1.2,1.2c0,1.4,0,2.8,0,4.2c0,0.7-0.2,1.3-0.8,1.8C62.4,124.4,62,124.4,61.6,124.4z"/>
		<path style="fill:#008000" d="M15.1,62.7c0,11.8,4,22.1,11.7,30.9c2.3,2.6,4.8,4.8,7.6,6.9c0.4,0.3,0.9,0.7,1.3,1.1c1.4,1.5,1.4,3.7,0.1,5.2
			c-1.4,1.6-3.6,1.9-5.3,0.7c-3.5-2.4-6.7-5.2-9.5-8.4C15.1,92.5,11,85,8.9,76.4C5.7,64,6.7,51.9,12,40.3
			c5.4-11.8,14-20.6,25.5-26.5c6.1-3.2,12.7-5.1,19.6-5.7c1.1-0.1,2.2-0.2,3.2-0.2c0.8,0,1.1-0.4,1.1-1.1c0-1.4,0-2.7,0-4.1
			c0-0.7,0.1-1.5,0.8-1.9c0.7-0.4,1.3,0,1.9,0.4c4.5,3,8.9,6.1,13.4,9.1c1.5,1,1.5,2,0,3c-4.4,3-8.8,6-13.2,9
			c-0.6,0.4-1.3,0.9-2.1,0.5c-0.8-0.4-0.8-1.2-0.8-2c0-1.1,0-2.2,0-3.3c0-1.6-0.1-1.7-1.6-1.6c-3.3,0.1-6.5,0.6-9.6,1.6
			c-17,5.1-28.3,16.1-33.4,33.2C15.5,54.5,15,58.6,15.1,62.7z"/>
		<path style="fill:#008000" d="M52.9,82.6c-3,0-5.1-1-6.7-3.1c-2.9-3.9-5.8-7.8-8.7-11.6c-2.7-3.4-1.8-7.5,1.1-9.6c2.5-1.7,5.9-1.5,8,0.9
			c1.9,2.2,3.6,4.6,5.4,7c1.3,1.7,1.3,1.7,3,0.3c7.8-6.5,15.6-13,23.4-19.4c3.3-2.8,7.3-2.4,9.7,0.8c1.8,2.5,1.5,6.3-0.9,8.3
			c-4.7,3.9-9.4,7.8-14.1,11.8c-5,4.1-9.9,8.2-14.9,12.3C56.5,81.7,54.8,82.7,52.9,82.6z"/>
	</g>
</g>
</svg>
