<?xml version="1.0" encoding="utf-8"?>
<!-- Generator: Adobe Illustrator 24.0.0, SVG Export Plug-In . SVG Version: 6.00 Build 0)  -->
<svg version="1.1" id="Capa_1" xmlns="http://www.w3.org/2000/svg" xmlns:xlink="http://www.w3.org/1999/xlink" x="0px" y="0px"
	 viewBox="0 0 512 512" style="enable-background:new 0 0 512 512;" xml:space="preserve">
<style type="text/css">
	.st0{fill:#998EEB;}
</style>
<path class="st0" d="M250.45,137c0,0-76.4-72.96-60.19-95.04s38.2-26.08,46.3-22.42s23.62,13.99,23.62,13.99
	s29.62-24.27,42.36-13.99S328,54.11,328,54.11L250.45,137z"/>
<g>
	<g>
		<path d="M293.21,0.01c-14.49,0-27.23,5.89-37.21,17.12c-9.98-11.23-22.72-17.12-37.21-17.12c-29.84,0-53.21,24.33-53.21,55.39
			c0,32.17,24.99,53.12,59.59,82.12c6.71,5.62,13.64,11.43,21.01,17.82C249,157.78,252.5,159,256,159c3.5,0,7.01-1.22,9.82-3.66
			c6.71-5.82,13.04-11.16,19.16-16.32c35.13-29.65,61.43-51.77,61.43-83.61C346.42,24.34,323.05,0.01,293.21,0.01z M265.64,116.09
			c-3.15,2.66-6.35,5.36-9.65,8.16c-3.96-3.35-7.79-6.57-11.55-9.72c-32.11-26.91-48.86-41.76-48.86-59.13
			c0-14.24,10.2-25.39,23.21-25.39c16.11,0,22.33,19.85,22.77,21.3c1.74,6.57,7.64,11.15,14.44,11.15c6.8,0,12.7-4.58,14.44-11.15
			c0.43-1.44,6.66-21.3,22.77-21.3c13.01,0,23.21,11.15,23.21,25.39C316.42,72.84,297.2,89.45,265.64,116.09z"/>
	</g>
</g>
<g>
	<g>
		<path d="M507.45,151.59c14.18-38.95-5.87-81.95-44.82-96.13c-38.86-14.14-81.98,5.96-96.12,44.82c-7.3,20.06-5.8,41.83,4.21,60.78
			c-56.15,3.83-100.63,44.43-112.23,93.02l-0.47,1.97c-2.05-0.07-1.97-0.07-4.04,0c-12.8-53.68-59.05-91.33-112.7-94.99
			c10.01-18.94,11.51-40.72,4.21-60.78c-14.14-38.86-57.26-58.97-96.12-44.82c-38.95,14.18-59,57.17-44.82,96.12
			c7.56,20.78,23.41,36.19,42.46,43.87c-39.09,37.9-48.47,96.17-25.69,143.48l78.73,164.52c2.49,5.21,7.75,8.52,13.53,8.52
			c27.41,0,256.04,0,284.84,0c5.77,0,11.04-3.32,13.53-8.52l78.72-164.49c22.94-47.64,13.17-105.85-25.68-143.52
			C484.04,187.77,499.89,172.36,507.45,151.59z M256,286c16.54,0,30,13.46,30,30s-13.46,30-30,30s-30-13.46-30-30
			S239.46,286,256,286z M32.74,141.32c-8.51-23.37,3.52-49.17,26.9-57.67c23.46-8.54,49.2,3.61,57.67,26.9
			c8.51,23.37-3.52,49.17-26.9,57.67C67.05,176.73,41.25,164.7,32.74,141.32z M123.03,481.99L48.36,325.96
			c-24.08-50.01,0.47-110.68,52.32-129.55c52.09-18.96,110,11.31,123.68,64.74l0.81,3.4c-14.66,8.82-25.26,23.74-28.27,41.21
			l-34.93-25.79c-19.82-14.84-48.05-10.81-62.95,9.02c-14.76,19.67-11.1,47.95,8.97,62.98l81.68,61.5l17.13,68.52L123.03,481.99
			L123.03,481.99z M294.52,401.04l-20.24,80.95h-36.57l-20.24-80.95c-0.83-3.33-2.79-6.28-5.53-8.35L126,327.99
			c-6.64-4.97-7.95-14.37-3-20.98c4.98-6.62,14.4-7.97,21-3.01c0.03,0.02,0.06,0.05,0.1,0.07l62.85,46.41
			c10.87,15.42,28.8,25.52,49.05,25.52s38.18-10.1,49.05-25.52l62.92-46.46c6.63-4.96,16.05-3.62,21.01,2.98
			c4.96,6.62,3.67,16.01-3.02,21.01l-85.92,64.69C297.31,394.76,295.36,397.71,294.52,401.04z M463.63,325.99l-74.65,156h-83.76
			l17.13-68.52l81.65-61.48c19.9-14.91,23.93-43.1,8.99-63c-14.87-19.82-43.13-23.85-62.9-9.05l-34.98,25.83
			c-3.02-17.48-13.61-32.39-28.27-41.21l0.81-3.4c13.69-53.5,71.65-83.68,123.68-64.74C463.24,215.3,487.7,276,463.63,325.99z
			 M479.26,141.32c-8.51,23.37-34.3,35.4-57.67,26.9c-23.37-8.51-35.4-34.3-26.89-57.67c8.51-23.37,34.3-35.4,57.67-26.9
			C475.74,92.16,487.77,117.95,479.26,141.32z"/>
	</g>
</g>
</svg>
