<?xml version="1.0" encoding="utf-8"?>
<!-- Generator: Adobe Illustrator 24.2.0, SVG Export Plug-In . SVG Version: 6.00 Build 0)  -->
<svg version="1.1" id="Layer_1" xmlns="http://www.w3.org/2000/svg" xmlns:xlink="http://www.w3.org/1999/xlink" x="0px" y="0px"
	 viewBox="0 0 512 512" style="enable-background:new 0 0 512 512;" xml:space="preserve">
<g>
	<path d="M461.81,57.09h-6.86V42.95c0-8.28-6.72-15-15-15s-15,6.72-15,15v14.14h-43.98V42.95c0-8.28-6.72-15-15-15s-15,6.72-15,15
		v14.14H307V42.95c0-8.28-6.72-15-15-15s-15,6.72-15,15v14.14h-42V42.95c0-8.28-6.72-15-15-15s-15,6.72-15,15v14.14h-43.98V42.95
		c0-8.28-6.72-15-15-15s-15,6.72-15,15v14.14H87.04V42.95c0-8.28-6.72-15-15-15s-15,6.72-15,15v14.14h-6.86
		C22.51,57.09,0,79.6,0,107.28v326.59c0,27.67,22.51,50.19,50.19,50.19h411.63c27.67,0,50.19-22.51,50.19-50.19V107.27
		C512,79.6,489.49,57.09,461.81,57.09z M50.19,87.09h6.86v14.14c0,8.28,6.72,15,15,15s15-6.72,15-15V87.09h43.98v14.14
		c0,8.28,6.72,15,15,15s15-6.72,15-15V87.09H205v14.14c0,8.28,6.72,15,15,15s15-6.72,15-15V87.09h42v14.14c0,8.28,6.72,15,15,15
		s15-6.72,15-15V87.09h43.98v14.14c0,8.28,6.72,15,15,15s15-6.72,15-15V87.09h43.98v14.14c0,8.28,6.72,15,15,15s15-6.72,15-15V87.09
		h6.86c11.13,0,20.19,9.06,20.19,20.19v29.81H30v-29.81C30,96.15,39.06,87.09,50.19,87.09z M461.81,454.05H50.19
		c-11.13,0-20.19-9.05-20.19-20.19V167.09h452v266.77C482,444.99,472.95,454.05,461.81,454.05z"/>
	<path d="M349.2,265.74h-48.27v-48.27c0-8.28-6.72-15-15-15h-59.87c-8.28,0-15,6.72-15,15v48.27H162.8c-8.28,0-15,6.72-15,15v59.87
		c0,8.28,6.72,15,15,15h48.27v48.27c0,8.28,6.72,15,15,15h59.87c8.28,0,15-6.72,15-15v-48.27h48.27c8.28,0,15-6.72,15-15v-59.87
		C364.2,272.46,357.49,265.74,349.2,265.74z M334.2,325.61h-48.27c-8.28,0-15,6.72-15,15v48.27h-29.87v-48.27c0-8.28-6.72-15-15-15
		H177.8v-29.87h48.27c8.28,0,15-6.72,15-15v-48.27h29.87v48.27c0,8.28,6.72,15,15,15h48.27V325.61z"/>
</g>
</svg>
