<?xml version="1.0" encoding="utf-8"?>
<!-- Generator: Adobe Illustrator 24.0.0, SVG Export Plug-In . SVG Version: 6.00 Build 0)  -->
<svg version="1.1" id="Capa_1" xmlns="http://www.w3.org/2000/svg" xmlns:xlink="http://www.w3.org/1999/xlink" x="0px" y="0px"
	 viewBox="0 0 479.66 479.66" style="enable-background:new 0 0 479.66 479.66;" xml:space="preserve">
<style type="text/css">
	.st0{fill:#998EEB;}
	.st1{stroke:#000000;stroke-width:3;stroke-miterlimit:10;}
</style>
<circle class="st0" cx="239.83" cy="108.41" r="91.5"/>
<g>
	<g>
		<path class="st1" d="M287.85,81.4c-0.11-0.11-0.22-0.22-0.34-0.34c-12.27-12.05-31.92-12.05-44.19,0l-2.61,2.58l-2.61-2.58
			c-12.27-12.05-31.92-12.05-44.19,0c-12.13,11.95-12.28,31.47-0.34,43.6c0.11,0.11,0.22,0.22,0.34,0.34l41.18,40.69
			c3.12,3.08,8.13,3.08,11.25,0L287.52,125C299.65,113.05,299.8,93.53,287.85,81.4z M276.47,113.42c-0.07,0.07-0.14,0.14-0.21,0.21
			l-35.55,35.13l-35.55-35.13c-5.85-5.74-5.94-15.13-0.21-20.98c0.07-0.07,0.14-0.14,0.21-0.21c6.02-5.91,15.67-5.91,21.69,0
			l8.23,8.14c3.12,3.08,8.13,3.08,11.25,0l8.23-8.14c6.03-5.9,15.67-5.9,21.69,0C282.12,98.17,282.21,107.57,276.47,113.42z"/>
	</g>
</g>
<g>
	<g>
		<path class="st1" d="M347.93,92.91l-15.47-6.81c-0.73-2.73-1.54-5.31-2.43-7.8l8.57-14.74c1.42-2.44,1.45-5.46,0.07-7.93
			c-4.13-7.35-9.06-14.22-14.71-20.48c-1.93-2.17-4.9-3.11-7.73-2.45l-16.3,3.72c-2.03-1.63-4.13-3.17-6.32-4.65l-1.57-17.14
			c-0.26-2.84-2.02-5.33-4.61-6.52c-7.56-3.53-15.51-6.19-23.67-7.93c-2.84-0.61-5.8,0.38-7.69,2.59l-11.35,13.13h-7.34L226.03,2.77
			c-1.89-2.21-4.84-3.2-7.68-2.59c-8.17,1.74-16.11,4.4-23.68,7.93c-2.59,1.2-4.35,3.68-4.6,6.52l-1.57,17.14
			c-2.19,1.48-4.29,3.03-6.32,4.65l-16.3-3.72c-2.83-0.66-5.79,0.28-7.73,2.45c-5.65,6.26-10.58,13.13-14.71,20.48
			c-1.38,2.47-1.36,5.49,0.07,7.93l8.57,14.74c-0.89,2.47-1.69,5.03-2.41,7.73l-16.07,6.82c-2.96,1.26-4.88,4.16-4.88,7.37v23.55
			c0,3.21,1.92,6.11,4.88,7.37l16.07,6.82c0.72,2.7,1.52,5.27,2.41,7.73l-8.57,14.74c-1.43,2.45-1.45,5.47-0.06,7.94
			c4.13,7.34,9.06,14.21,14.7,20.48c1.93,2.18,4.9,3.12,7.73,2.45l16.3-3.72c2.03,1.63,4.13,3.18,6.32,4.65l1.57,17.14
			c0.26,2.84,2.02,5.33,4.6,6.52c7.56,3.53,15.51,6.19,23.67,7.93c2.84,0.59,5.79-0.4,7.69-2.59l11.36-13.14h7.33l11.36,13.14
			c1.52,1.76,3.73,2.76,6.05,2.77c0.55,0,1.1-0.06,1.64-0.17c8.17-1.74,16.11-4.4,23.67-7.93c2.59-1.2,4.35-3.68,4.61-6.52
			l1.57-17.14c2.19-1.48,4.29-3.02,6.32-4.64l16.3,3.71c2.83,0.66,5.8-0.28,7.73-2.45c5.65-6.26,10.58-13.13,14.71-20.48
			c1.38-2.47,1.36-5.49-0.07-7.93l-8.57-14.74c0.9-2.48,1.7-5.07,2.43-7.8l15.47-6.8c2.9-1.27,4.78-4.15,4.78-7.32v-23.55
			C352.71,97.06,350.84,94.19,347.93,92.91z M336.71,118.56l-14.29,6.28c-2.32,1.02-4.01,3.07-4.58,5.53
			c-0.98,4.43-2.34,8.76-4.05,12.95c-0.96,2.31-0.79,4.93,0.47,7.09l8.15,14.02c-2.23,3.55-4.67,6.96-7.33,10.2l-15.47-3.52
			c-2.51-0.58-5.14,0.08-7.06,1.79c-3.35,2.94-6.94,5.58-10.74,7.91c-2.14,1.32-3.54,3.57-3.77,6.08l-1.5,16.31
			c-3.76,1.54-7.61,2.85-11.54,3.89l-10.58-12.23c-1.52-1.76-3.73-2.77-6.05-2.77h-14.65c-2.32,0-4.53,1.01-6.05,2.77L217.1,207.1
			c-3.93-1.05-7.78-2.35-11.54-3.89l-1.5-16.31c-0.23-2.51-1.63-4.76-3.77-6.08c-3.8-2.33-7.39-4.98-10.75-7.91
			c-1.92-1.71-4.55-2.37-7.05-1.79l-15.47,3.52c-2.66-3.24-5.11-6.65-7.33-10.21l8.15-14.01c1.26-2.16,1.43-4.79,0.47-7.09
			c-1.71-4.2-3.07-8.53-4.05-12.95c-0.57-2.5-2.31-4.57-4.67-5.58l-14.87-6.31v-12.95l14.87-6.31c2.36-1,4.1-3.08,4.67-5.58
			c0.98-4.43,2.34-8.76,4.05-12.95c0.96-2.31,0.79-4.93-0.47-7.09l-8.15-14.02c2.23-3.55,4.67-6.96,7.33-10.2l15.47,3.52
			c2.51,0.58,5.14-0.08,7.06-1.79c3.35-2.94,6.94-5.58,10.74-7.91c2.14-1.32,3.54-3.57,3.77-6.08l1.5-16.31
			c3.76-1.54,7.61-2.85,11.54-3.9l10.57,12.23c1.52,1.76,3.73,2.77,6.05,2.77h14.65c2.32,0,4.53-1.01,6.05-2.77l10.58-12.23
			c3.92,1.05,7.78,2.35,11.54,3.9l1.5,16.31c0.23,2.51,1.63,4.76,3.77,6.08c3.8,2.33,7.39,4.98,10.75,7.91
			c1.92,1.71,4.55,2.37,7.05,1.79l15.47-3.52c2.66,3.24,5.11,6.65,7.33,10.2l-8.15,14.02c-1.26,2.16-1.43,4.78-0.47,7.09
			c1.71,4.19,3.07,8.53,4.05,12.95c0.57,2.46,2.26,4.51,4.58,5.53l14.29,6.28L336.71,118.56L336.71,118.56z"/>
	</g>
</g>
<g>
	<g>
		<path class="st1" d="M428.27,220.86c-16.83-9.04-37.8-2.93-47.16,13.73l-24.14,42.98c-3.85,4.37-8.85,7.57-14.43,9.23
			l-108.98,32.6c-2.34,0.7-4.87,0.4-6.99-0.83c-2.24-1.29-3.84-3.46-4.41-5.98c-1.23-4.98,1.74-10.04,6.7-11.38l49.2-15.11
			c13.4-3.77,21.51-17.36,18.47-30.94c-3.36-13.8-17.27-22.26-31.07-18.9c-0.43,0.1-0.86,0.22-1.29,0.35L158.56,268.3
			c-37.15,10.16-67.01,37.81-79.99,74.07L33.38,468.76c-1.49,4.16,0.68,8.74,4.84,10.23c0.86,0.31,1.77,0.47,2.68,0.47l103.81,0.21
			h0.02c3.79,0,7.06-2.66,7.83-6.37l5.52-26.54c1.8-11.09,9.57-20.28,20.2-23.9l208.77-68.56c7.21-2.37,13.26-7.38,16.92-14.02
			l38.62-71.93C451.74,251.28,445.33,230.02,428.27,220.86z M428.74,260.29c-0.08,0.17-0.17,0.33-0.26,0.49l-38.56,71.81
			c-1.71,3.08-4.53,5.4-7.88,6.5L173.2,407.68c-16.17,5.43-28.03,19.33-30.86,36.15l-4.13,19.82l-85.95-0.17l41.38-115.72
			c11.26-31.4,37.14-55.32,69.33-64.08l105.8-31.73c2.54-0.78,5.29-0.46,7.59,0.87c2.34,1.35,4.02,3.6,4.65,6.23
			c0.9,5.31-2.42,10.43-7.64,11.77l-48.99,15.05c-13.54,3.89-21.37,18.03-17.47,31.58c1.82,6.31,6,11.68,11.67,14.99
			c5.92,3.46,13.02,4.29,19.58,2.3l108.98-32.6c8.8-2.62,16.64-7.76,22.55-14.78c0.33-0.39,0.61-0.8,0.86-1.24l24.53-43.68
			c4.97-8.88,16.05-12.28,25.15-7.71h0C429.63,239.41,433.45,250.87,428.74,260.29z"/>
	</g>
</g>
</svg>
