<?xml version="1.0" encoding="utf-8"?>
<!-- Generator: Adobe Illustrator 24.0.0, SVG Export Plug-In . SVG Version: 6.00 Build 0)  -->
<svg version="1.1" id="Capa_1" xmlns="http://www.w3.org/2000/svg" xmlns:xlink="http://www.w3.org/1999/xlink" x="0px" y="0px"
	 viewBox="0 0 512 512" style="enable-background:new 0 0 512 512;" xml:space="preserve">
<style type="text/css">
	.st0{fill:#998EEB;}
</style>
<polygon class="st0" points="9.95,425.75 50.45,425.75 66.27,385.25 83.24,425.75 124.55,425.75 100.15,458.38 103.49,498.07 
	74.29,476.86 29.24,498.07 37.92,453.71 "/>
<polygon class="st0" points="381.95,425.75 422.45,425.75 438.27,385.25 455.24,425.75 496.55,425.75 472.15,458.38 475.49,498.07 
	446.29,476.86 401.24,498.07 409.92,453.71 "/>
<polygon class="st0" points="199.68,425.32 240.18,425.32 256,384.82 272.96,425.32 314.27,425.32 289.88,457.95 293.21,497.64 
	264.01,476.43 218.96,497.64 227.64,453.29 "/>
<rect x="73.09" y="153.46" class="st0" width="89.64" height="191.54"/>
<g>
	<g>
		<path d="M122.55,278.4c-12.57,0-22.79,10.22-22.79,22.79s10.22,22.79,22.79,22.79c12.56,0,22.79-10.22,22.79-22.79
			S135.12,278.4,122.55,278.4z M122.55,308.95c-4.28,0-7.76-3.48-7.76-7.76s3.48-7.76,7.76-7.76s7.76,3.48,7.76,7.76
			S126.83,308.95,122.55,308.95z"/>
	</g>
</g>
<g>
	<g>
		<path d="M328.72,423.31c-1.01-3.1-3.89-5.19-7.15-5.19h-44.64l-13.79-42.45c-0.99-3.06-3.93-5.19-7.15-5.19
			c-3.22,0-6.15,2.13-7.15,5.19l-13.79,42.45h-44.64c-3.26,0-6.14,2.1-7.15,5.19c-1.01,3.1,0.1,6.49,2.73,8.4l36.11,26.24
			l-13.79,42.45c-0.96,2.96,0.05,6.3,2.49,8.22c2.61,2.06,6.38,2.13,9.07,0.18L256,482.57l36.11,26.24c2.82,2.05,6.79,1.86,9.4-0.46
			c2.21-1.96,3.07-5.13,2.16-7.94l-13.79-42.45l36.11-26.24C328.63,429.8,329.73,426.41,328.72,423.31z M276.63,449
			c-2.63,1.91-3.74,5.3-2.73,8.4l8.33,25.65l-21.82-15.85c-2.6-1.89-6.23-1.89-8.83,0l-21.82,15.85l8.33-25.65
			c1.01-3.1-0.1-6.49-2.73-8.4l-21.82-15.85h26.97c3.26,0,6.14-2.1,7.15-5.19l8.33-25.65l8.33,25.65c1.01,3.1,3.89,5.19,7.15,5.19
			h26.97L276.63,449z"/>
	</g>
</g>
<g>
	<g>
		<path d="M511.63,423.31c-1.01-3.1-3.89-5.19-7.15-5.19h-44.64l-13.79-42.45c-0.99-3.06-3.93-5.19-7.15-5.19
			c-3.22,0-6.15,2.13-7.15,5.19l-13.79,42.45h-44.64c-3.26,0-6.14,2.1-7.15,5.19c-1.01,3.1,0.1,6.49,2.73,8.4l36.11,26.24
			l-13.79,42.45c-0.96,2.96,0.05,6.3,2.49,8.22c2.61,2.06,6.38,2.13,9.07,0.18l36.11-26.24l36.11,26.24
			c2.83,2.05,6.79,1.86,9.4-0.46c2.21-1.96,3.07-5.13,2.16-7.94l-13.79-42.45l36.11-26.24C511.54,429.8,512.64,426.41,511.63,423.31
			z M459.54,449c-2.63,1.91-3.74,5.3-2.73,8.4l8.33,25.65l-21.82-15.85c-2.64-1.91-6.2-1.92-8.83,0l-21.82,15.85L421,457.4
			c1.01-3.1-0.1-6.49-2.73-8.4l-21.82-15.85h26.97c3.26,0,6.14-2.1,7.15-5.19l8.33-25.65l8.33,25.65c1.01,3.1,3.89,5.19,7.15,5.19
			h26.97L459.54,449z"/>
	</g>
</g>
<g>
	<g>
		<path d="M145.82,423.31c-1.01-3.1-3.89-5.19-7.15-5.19H94.03l-13.79-42.45c-1.01-3.1-3.89-5.19-7.15-5.19s-6.14,2.1-7.15,5.19
			l-13.79,42.45H7.51c-3.26,0-6.14,2.1-7.15,5.19c-1.01,3.1,0.1,6.49,2.73,8.4l36.11,26.24L25.42,500.4c-1.01,3.1,0.1,6.49,2.73,8.4
			c2.63,1.91,6.2,1.91,8.83,0l36.11-26.24l36.11,26.24c2.82,2.05,6.79,1.86,9.4-0.46c2.21-1.96,3.07-5.13,2.16-7.94l-13.79-42.45
			l36.11-26.24C145.72,429.8,146.82,426.41,145.82,423.31z M93.72,449c-2.63,1.91-3.74,5.3-2.73,8.4l8.33,25.65L77.51,467.2
			c-2.6-1.89-6.23-1.89-8.83,0l-21.82,15.85l8.33-25.65c1.01-3.1-0.1-6.49-2.73-8.4l-21.82-15.85h26.97c3.26,0,6.14-2.1,7.15-5.19
			l8.33-25.65l8.33,25.65c1.01,3.1,3.89,5.19,7.15,5.19h26.97L93.72,449z"/>
	</g>
</g>
<g>
	<g>
		<path d="M451.17,189.1c7.76-6.25,12.74-15.82,12.74-26.54c0-18.78-15.28-34.05-34.05-34.05H308.98
			c3.76-8.19,8.09-20.67,10.57-38.02c5.76-40.31-2.94-61.71-11.26-72.56C301.26,8.75,291.8,3.2,280.96,1.87
			c-9.15-1.12-17.51,6.15-17.75,15.34c-1.41,14.45-6.55,54.11-13.93,68.85c-18.94,37.88-64.09,60.46-78.04,66.71
			c-4.88-4.19-11.22-6.74-18.14-6.74H92c-15.37,0-27.88,12.51-27.88,27.88v152.73c0,15.37,12.51,27.88,27.88,27.88h61.09
			c8.23,0,15.63-3.58,20.73-9.27c7.93,5.01,20.73,10.58,38.41,10.58h196.38c18.78,0,34.05-15.28,34.05-34.05
			c0-8.61-3.21-16.48-8.5-22.48c11.31-5.55,19.11-17.18,19.11-30.6c0-8.61-3.21-16.48-8.5-22.48c11.31-5.54,19.11-17.18,19.11-30.6
			C463.9,204.92,458.93,195.34,451.17,189.1z M153.1,339.49H92c-7.08,0-12.85-5.76-12.85-12.85V173.91
			c0-7.09,5.76-12.85,12.85-12.85h61.09c3.59,0,6.83,1.48,9.17,3.86v167.58c0,0.9,0.16,1.78,0.47,2.61
			C160.38,337.79,156.93,339.49,153.1,339.49z M398.28,196.61h31.58c10.49,0,19.02,8.54,19.02,19.02s-8.53,19.02-19.02,19.02h-31.58
			c-4.15,0-7.52,3.36-7.52,7.51s3.36,7.51,7.52,7.51h20.96c10.49,0,19.02,8.54,19.02,19.02s-8.53,19.02-19.02,19.02h-26.72
			c-4.15,0-7.52,3.36-7.52,7.52s3.36,7.52,7.52,7.52h16.11c10.49,0,19.02,8.54,19.02,19.02c0,10.49-8.53,19.02-19.02,19.02H212.24
			c-15.51,0-26.02-5.2-31.73-9.1c0.3-1.65,0.47-3.34,0.47-5.07V173.91c0-2.94-0.46-5.77-1.31-8.43
			c17.61-8.08,62.69-31.97,83.05-72.7c10.18-20.37,15.26-72.24,15.47-74.44c0.02-0.24,0.03-0.48,0.03-0.72
			c0-0.26,0.1-0.47,0.29-0.64c0.27-0.24,0.53-0.21,0.62-0.2c4.7,0.57,11.51,2.82,17.23,10.28c6.56,8.56,13.33,26.15,8.31,61.29
			c-4.26,29.79-14.34,42.82-14.41,42.9c-3.94,4.81-0.39,12.27,5.82,12.27h133.77c10.49,0,19.02,8.54,19.02,19.02
			c0,10.49-8.53,19.02-19.02,19.02h-31.58c-4.15,0-7.52,3.36-7.52,7.51S394.13,196.61,398.28,196.61z"/>
	</g>
</g>
</svg>
