<?xml version="1.0" encoding="utf-8"?>
<!-- Generator: Adobe Illustrator 24.0.0, SVG Export Plug-In . SVG Version: 6.00 Build 0)  -->
<svg version="1.1" id="Layer_1" xmlns="http://www.w3.org/2000/svg" xmlns:xlink="http://www.w3.org/1999/xlink" x="0px" y="0px"
	 viewBox="0 0 512 512" style="enable-background:new 0 0 512 512;" xml:space="preserve">
<style type="text/css">
	.st0{fill:#998EEB;}
</style>
<circle class="st0" cx="265.16" cy="256.99" r="59.97"/>
<circle class="st0" cx="88" cy="436.5" r="27.47"/>
<circle class="st0" cx="418.47" cy="75.35" r="27.47"/>
<path d="M90.05,395.95c-7.17,0-14.06,1.79-20.17,5.15C37.68,359.82,20,308.54,20,256C20,125.87,125.87,20,256,20
	c15.82,0,31.63,1.57,47,4.68c5.41,1.09,10.69-2.41,11.78-7.82s-2.41-10.69-7.82-11.79C290.29,1.71,273.15,0,256,0
	C187.62,0,123.33,26.63,74.98,74.98S0,187.62,0,256c0,57.52,19.53,113.65,55.09,158.65c-4.58,6.84-7.04,14.88-7.04,23.3
	c0,11.22,4.37,21.77,12.3,29.7c7.93,7.93,18.48,12.3,29.7,12.3s21.77-4.37,29.7-12.3c7.93-7.93,12.3-18.48,12.3-29.7
	c0-11.21-4.37-21.77-12.3-29.7C111.82,400.32,101.27,395.95,90.05,395.95z M105.61,453.5c-4.15,4.16-9.68,6.45-15.55,6.45
	s-11.4-2.29-15.55-6.45s-6.45-9.68-6.45-15.55c0-5.88,2.29-11.4,6.45-15.56c4.15-4.16,9.68-6.44,15.55-6.44s11.4,2.29,15.55,6.44
	c4.16,4.16,6.45,9.68,6.45,15.56C112.05,443.82,109.76,449.35,105.61,453.5z"/>
<path d="M456.9,97.34c10.87-16.31,9.13-38.61-5.25-52.98c-7.93-7.93-18.48-12.3-29.7-12.3s-21.77,4.37-29.7,12.3
	c-7.93,7.93-12.3,18.48-12.3,29.7s4.37,21.77,12.3,29.7s18.48,12.3,29.7,12.3c7.17,0,14.06-1.79,20.17-5.15
	C474.32,152.19,492,203.46,492,256c0,130.13-105.87,236-236,236c-15.66,0-31.33-1.54-46.55-4.59c-5.41-1.08-10.68,2.43-11.77,7.84
	c-1.08,5.42,2.43,10.68,7.84,11.77c16.51,3.3,33.5,4.98,50.48,4.98c68.38,0,132.67-26.63,181.02-74.98S512,324.38,512,256
	C512,198.48,492.46,142.34,456.9,97.34z M406.39,89.61c-4.16-4.16-6.45-9.68-6.45-15.56c0-5.88,2.29-11.4,6.45-15.55
	c4.15-4.16,9.68-6.45,15.55-6.45s11.4,2.29,15.56,6.45c8.57,8.58,8.57,22.54,0,31.11c-4.16,4.15-9.68,6.44-15.56,6.44
	C416.07,96.05,410.55,93.76,406.39,89.61z"/>
<path d="M214.73,428c0,5.52,4.48,10,10,10h62.53c5.52,0,10-4.48,10-10v-19.39c13.15-3.54,25.72-8.75,37.53-15.55l13.69,13.69
	c1.88,1.88,4.42,2.93,7.07,2.93c2.65,0,5.2-1.05,7.07-2.93l44.2-44.23c3.9-3.91,3.9-10.24,0-14.14l-13.67-13.67
	c6.8-11.81,12.02-24.38,15.55-37.53h19.31c5.52,0,10-4.48,10-10v-62.53c0-5.52-4.48-10-10-10H408.7
	c-3.54-13.14-8.75-25.71-15.55-37.53l13.6-13.6c1.88-1.88,2.93-4.42,2.93-7.07c0-2.65-1.06-5.2-2.93-7.07l-44.23-44.2
	c-3.9-3.9-10.23-3.9-14.14,0l-13.58,13.58c-11.81-6.8-24.38-12.02-37.53-15.55V84c0-5.52-4.48-10-10-10h-62.53
	c-5.52,0-10,4.48-10,10v19.21c-13.14,3.54-25.71,8.75-37.53,15.55l-13.58-13.58c-3.9-3.9-10.23-3.91-14.14,0l-44.23,44.2
	c-1.88,1.88-2.93,4.42-2.93,7.07s1.05,5.2,2.93,7.07l13.6,13.6c-6.8,11.81-12.02,24.38-15.55,37.53H84.02c-5.52,0-10,4.48-10,10
	l-0.04,62.53c0,2.65,1.05,5.2,2.93,7.07s4.42,2.93,7.07,2.93h19.31c3.54,13.15,8.75,25.72,15.55,37.53l-13.67,13.67
	c-3.9,3.9-3.91,10.23,0,14.14l44.2,44.23c1.88,1.88,4.42,2.93,7.07,2.93h0c2.65,0,5.2-1.05,7.07-2.93l13.68-13.69
	c11.82,6.8,24.39,12.02,37.53,15.55V428z M181.13,372.03c-3.96-2.56-9.16-2-12.5,1.33l-12.18,12.18l-30.06-30.08l12.16-12.17
	c3.33-3.33,3.89-8.54,1.33-12.5c-9.07-14.03-15.44-29.41-18.94-45.71c-0.99-4.61-5.06-7.9-9.78-7.9H93.99l0.02-42.53h17.15
	c4.71,0,8.79-3.29,9.78-7.9c3.5-16.3,9.88-31.68,18.94-45.71c2.56-3.96,2-9.16-1.33-12.5l-12.09-12.09l30.08-30.06l12.07,12.08
	c3.34,3.33,8.54,3.88,12.5,1.33c14.03-9.07,29.41-15.44,45.71-18.94c4.61-0.99,7.9-5.07,7.9-9.78V94h42.53v17.07
	c0,4.71,3.29,8.79,7.9,9.78c16.3,3.5,31.68,9.88,45.71,18.94c3.96,2.56,9.16,2.01,12.5-1.33l12.08-12.07l30.08,30.06l-12.09,12.09
	c-3.34,3.34-3.89,8.54-1.33,12.5c9.07,14.03,15.44,29.41,18.94,45.71c0.99,4.61,5.06,7.9,9.78,7.9h17.18v42.53h-17.18
	c-4.71,0-8.79,3.29-9.78,7.9c-3.5,16.3-9.88,31.68-18.94,45.71c-2.56,3.96-2,9.17,1.33,12.5l12.16,12.16l-30.06,30.08l-12.18-12.17
	c-3.34-3.34-8.54-3.89-12.5-1.33c-14.03,9.07-29.41,15.44-45.71,18.94c-4.61,0.99-7.9,5.06-7.9,9.78V418h-42.53v-17.25
	c0-4.71-3.29-8.79-7.9-9.78C210.54,387.47,195.16,381.09,181.13,372.03z"/>
<path d="M338.63,256c0-45.56-37.07-82.63-82.63-82.63s-82.63,37.07-82.63,82.63s37.07,82.63,82.63,82.63S338.63,301.56,338.63,256z
	 M193.37,256c0-34.54,28.09-62.63,62.63-62.63s62.63,28.1,62.63,62.63s-28.09,62.63-62.63,62.63S193.37,290.54,193.37,256z"/>
<path d="M348.08,37.82c2.63,0,5.21-1.07,7.07-2.93c1.86-1.87,2.93-4.45,2.93-7.08c0-2.62-1.07-5.2-2.93-7.07
	c-1.86-1.86-4.44-2.93-7.07-2.93c-2.64,0-5.21,1.07-7.07,2.93c-1.86,1.87-2.93,4.44-2.93,7.07c0,2.64,1.07,5.21,2.93,7.08
	C342.87,36.75,345.44,37.82,348.08,37.82z"/>
<path d="M164.36,474.36c-2.63,0-5.21,1.07-7.07,2.93s-2.93,4.44-2.93,7.07c0,2.64,1.07,5.21,2.93,7.07s4.44,2.93,7.07,2.93
	s5.21-1.07,7.07-2.93s2.93-4.44,2.93-7.07s-1.07-5.21-2.93-7.07S166.99,474.36,164.36,474.36z"/>
</svg>
