<?xml version="1.0" encoding="utf-8"?>
<!-- Generator: Adobe Illustrator 26.0.3, SVG Export Plug-In . SVG Version: 6.00 Build 0)  -->
<svg version="1.1" xmlns="http://www.w3.org/2000/svg" xmlns:xlink="http://www.w3.org/1999/xlink" x="0px" y="0px"
	 viewBox="0 0 879.09 768.71" style="enable-background:new 0 0 879.09 768.71;" xml:space="preserve">
<g id="Q">
</g>
<g id="O">
</g>
<g id="health">
	<g>
		<path d="M284.83,660.9c-7.56-3.61-13.62-9.1-19.49-14.99c-41.17-41.3-82.47-82.46-123.68-123.7c-8-8-13.71-17.14-13.64-29.03
			c0.09-16.52,12.18-29.55,28.79-30.73c2.74-0.2,5.5-0.1,8.26-0.1c182.98,0,365.95,0,548.93,0c5,0,9.98-0.17,14.89,1.28
			c13.96,4.14,22.51,16.04,22.11,31.08c-0.36,13.84-9.7,25.15-23.43,28.51c-4.92,1.21-9.9,1.27-14.91,1.27
			c-156.69-0.01-313.39-0.02-470.08,0.03c-3.13,0-6.41-0.83-9.54,0.83c0.69,3.08,3.27,4.46,5.13,6.32
			c24.4,24.45,48.15,49.59,73.52,72.98c20.14,18.57,15.2,47.96-10.33,56.24C295.85,660.9,290.34,660.9,284.83,660.9z"/>
		<path d="M439.32,324.92c-91.87,0-183.73,0-275.6,0.01c-4.76,0-9.49-0.03-14.12-1.47c-13.77-4.27-22.03-16.28-21.54-31.49
			c0.43-13.32,9.84-24.57,23.2-27.9c5.17-1.29,10.4-1.3,15.66-1.3c158.2,0.01,316.4,0.01,474.6,0.01c2.25,0,4.51,0.09,6.76-0.03
			c1.93-0.1,4.54,0.83,5.57-1.1c1.34-2.53-1.53-3.9-2.84-5.51c-21.48-26.4-43.01-52.75-64.56-79.08
			c-6.77-8.28-9.47-17.58-6.74-28.03c3.13-11.96,10.95-19.59,22.92-22.36c12.02-2.78,22.47,0.82,30.37,10.2
			c14.83,17.61,29.31,35.5,43.91,53.3c20.31,24.77,40.63,49.52,60.85,74.35c6.83,8.38,13.22,17,13.3,28.63
			c0.13,17.67-12.4,30.98-30.15,31.72c-2.75,0.11-5.51,0.05-8.26,0.05C621.54,324.93,530.43,324.93,439.32,324.92z"/>
	</g>
</g>
<g id="ur">
</g>
</svg>
