<?xml version="1.0" encoding="utf-8"?>
<!-- Generator: Adobe Illustrator 26.0.3, SVG Export Plug-In . SVG Version: 6.00 Build 0)  -->
<svg version="1.1" xmlns="http://www.w3.org/2000/svg" xmlns:xlink="http://www.w3.org/1999/xlink" x="0px" y="0px"
	 viewBox="0 0 879.09 768.71" style="enable-background:new 0 0 879.09 768.71;" xml:space="preserve">
<g id="Q">
</g>
<g id="O">
</g>
<g id="health">
	<g id="S7NSfi.tif">
		<g>
			<path d="M90.35,263.6c2.57-8.62,8.11-15.06,14.7-20.96c71.52-64.08,153.83-106.94,248.88-122.46
				c149.42-24.39,283.57,11.21,401.5,106.54c7.8,6.3,15.36,12.93,22.65,19.81c12.98,12.27,14.09,27.49,3.34,40.2
				c-11.04,13.04-28.82,15.33-42.31,4.81c-8.98-7-17.1-15.09-25.94-22.28c-62.38-50.74-133.46-82.39-213.15-92.34
				c-133.9-16.73-252.45,18.48-353.39,109.24c-22.44,20.18-46.56,14.25-56.28-14.34C90.35,269.07,90.35,266.33,90.35,263.6z"/>
			<path d="M431.34,668.75c-23.33-5.13-40.21-18.09-47.95-41.08c-10.72-31.84,8.74-66.23,41.97-75.06
				c31.52-8.38,65.58,13.11,72.03,45.45c5.9,29.6-11.55,59.06-40.41,68.16c-3.03,0.96-6.13,1.7-9.2,2.54
				C442.3,668.75,436.82,668.75,431.34,668.75z"/>
			<path d="M439.4,259.1c94.52,0.63,176.78,31.94,245.06,98.06c7.88,7.63,13.23,16.54,10.21,28.07
				c-3.25,12.43-11.93,19.72-23.99,22.96c-12.06,3.24-21.65-1.36-30.24-9.83c-32.12-31.66-69.82-54.18-113.04-67.1
				c-36.64-10.96-74.08-14.38-112.29-11.52c-47.36,3.54-91.21,17.27-131.35,42.67c-17.22,10.9-32.75,23.89-47.48,37.98
				c-13.84,13.24-34.51,11.24-46.37-3.89c-9.73-12.42-8.52-26.17,4.02-38.59c24.64-24.42,52.34-44.74,83.25-60.57
				c41.11-21.05,84.68-33.49,130.77-37.02c5.23-0.4,10.44-0.97,15.68-1.17C428.9,258.95,434.15,259.1,439.4,259.1z"/>
			<path d="M600.82,492.97c-0.13,11.77-8.53,23.52-20.68,28.43c-11.65,4.7-21.95,2.34-31.37-8.16
				c-33.1-36.9-75.01-51.68-123.5-47.73c-34.77,2.83-65.17,16.64-89.63,42.19c-1.58,1.65-3.12,3.33-4.69,4.99
				c-12.88,13.67-28.38,14.67-41.72,2.71c-13.54-12.15-14.67-30.24-2.2-43.78c31.34-34.02,69.83-55.72,115.45-63.32
				c73.23-12.2,136.08,8.65,188.17,61.66C596.82,476.23,600.52,483.55,600.82,492.97z"/>
		</g>
	</g>
</g>
<g id="ur">
</g>
</svg>
